<mxfile host="65bd71144e">
    <diagram id="YRrNTrY720WORHw7nkY4" name="Graph_Legend">
        <mxGraphModel dx="2026" dy="1030" grid="1" gridSize="10" guides="1" tooltips="1" connect="1" arrows="1" fold="1" page="1" pageScale="1" pageWidth="1920" pageHeight="1200" math="0" shadow="0">
            <root>
                <mxCell id="0"/>
                <mxCell id="1" parent="0"/>
                <mxCell id="QnIRKIKKSeNdttVPt2R8-1" value="Graph Legend Design Description&lt;br style=&quot;font-size: 32px;&quot;&gt;&lt;p style=&quot;margin-top: 0pt; margin-bottom: 0pt; margin-left: 0in; direction: ltr; unicode-bidi: embed; font-size: 32px;&quot;&gt;&lt;/p&gt;" style="text;html=1;align=left;verticalAlign=top;rounded=0;labelBackgroundColor=none;fontColor=#143642;whiteSpace=wrap;fontSize=32;fontStyle=1" parent="1" vertex="1">
                    <mxGeometry x="695" y="590" width="575" height="30" as="geometry"/>
                </mxCell>
                <mxCell id="QnIRKIKKSeNdttVPt2R8-2" value="Graph Legend Design&lt;br style=&quot;font-size: 32px;&quot;&gt;&lt;p style=&quot;margin-top: 0pt; margin-bottom: 0pt; margin-left: 0in; direction: ltr; unicode-bidi: embed; font-size: 32px;&quot;&gt;&lt;/p&gt;" style="text;html=1;align=left;verticalAlign=top;rounded=0;labelBackgroundColor=none;fontColor=#143642;whiteSpace=wrap;fontSize=32;fontStyle=1" parent="1" vertex="1">
                    <mxGeometry x="820" y="80" width="550" height="30" as="geometry"/>
                </mxCell>
                <mxCell id="QnIRKIKKSeNdttVPt2R8-11" style="rounded=0;orthogonalLoop=1;jettySize=auto;html=1;exitX=1;exitY=0.25;exitDx=0;exitDy=0;entryX=0.583;entryY=1.011;entryDx=0;entryDy=0;entryPerimeter=0;strokeColor=#9933FF;dashed=1;strokeWidth=2;" parent="1" source="QnIRKIKKSeNdttVPt2R8-3" target="QnIRKIKKSeNdttVPt2R8-10" edge="1">
                    <mxGeometry relative="1" as="geometry">
                        <mxPoint x="1240" y="508" as="targetPoint"/>
                    </mxGeometry>
                </mxCell>
                <mxCell id="QnIRKIKKSeNdttVPt2R8-12" style="rounded=0;orthogonalLoop=1;jettySize=auto;html=1;exitX=0.75;exitY=0;exitDx=0;exitDy=0;entryX=0.5;entryY=1;entryDx=0;entryDy=0;strokeColor=#0000FF;strokeWidth=2;" parent="1" source="QnIRKIKKSeNdttVPt2R8-3" target="QnIRKIKKSeNdttVPt2R8-8" edge="1">
                    <mxGeometry relative="1" as="geometry"/>
                </mxCell>
                <mxCell id="RgaNjhP_UmURrgpjqicQ-1" style="rounded=0;orthogonalLoop=1;jettySize=auto;html=1;exitX=0;exitY=0;exitDx=0;exitDy=0;entryX=0.5;entryY=1;entryDx=0;entryDy=0;strokeColor=#0000FF;strokeWidth=2;" parent="1" source="QnIRKIKKSeNdttVPt2R8-3" target="QnIRKIKKSeNdttVPt2R8-4" edge="1">
                    <mxGeometry relative="1" as="geometry"/>
                </mxCell>
                <mxCell id="RgaNjhP_UmURrgpjqicQ-3" style="edgeStyle=orthogonalEdgeStyle;rounded=0;orthogonalLoop=1;jettySize=auto;html=1;exitX=0.5;exitY=0;exitDx=0;exitDy=0;strokeColor=#A8201A;strokeWidth=2;" parent="1" source="QnIRKIKKSeNdttVPt2R8-3" edge="1">
                    <mxGeometry relative="1" as="geometry">
                        <mxPoint x="975" y="380" as="targetPoint"/>
                    </mxGeometry>
                </mxCell>
                <mxCell id="RgaNjhP_UmURrgpjqicQ-6" style="rounded=0;orthogonalLoop=1;jettySize=auto;html=1;exitX=0.25;exitY=0;exitDx=0;exitDy=0;entryX=0.5;entryY=1;entryDx=0;entryDy=0;strokeColor=#00994D;strokeWidth=2;" parent="1" source="QnIRKIKKSeNdttVPt2R8-3" target="QnIRKIKKSeNdttVPt2R8-5" edge="1">
                    <mxGeometry relative="1" as="geometry"/>
                </mxCell>
                <mxCell id="QnIRKIKKSeNdttVPt2R8-3" value="InHerited" style="rounded=0;whiteSpace=wrap;html=1;fillColor=#dbdbdb;fontColor=#333333;strokeColor=#000000;" parent="1" vertex="1">
                    <mxGeometry x="915" y="500" width="120" height="30" as="geometry"/>
                </mxCell>
                <mxCell id="QnIRKIKKSeNdttVPt2R8-4" value="PublicBase" style="rounded=0;whiteSpace=wrap;html=1;" parent="1" vertex="1">
                    <mxGeometry x="480" y="350" width="120" height="30" as="geometry"/>
                </mxCell>
                <mxCell id="QnIRKIKKSeNdttVPt2R8-5" value="ProtectedBase" style="rounded=0;whiteSpace=wrap;html=1;" parent="1" vertex="1">
                    <mxGeometry x="700" y="350" width="120" height="30" as="geometry"/>
                </mxCell>
                <mxCell id="QnIRKIKKSeNdttVPt2R8-6" value="PrivateBase" style="rounded=0;whiteSpace=wrap;html=1;" parent="1" vertex="1">
                    <mxGeometry x="915" y="350" width="120" height="30" as="geometry"/>
                </mxCell>
                <mxCell id="RgaNjhP_UmURrgpjqicQ-5" style="edgeStyle=orthogonalEdgeStyle;rounded=0;orthogonalLoop=1;jettySize=auto;html=1;exitX=0.5;exitY=0;exitDx=0;exitDy=0;entryX=0.5;entryY=1;entryDx=0;entryDy=0;strokeColor=#FFD966;dashed=1;strokeWidth=2;" parent="1" source="QnIRKIKKSeNdttVPt2R8-8" target="QnIRKIKKSeNdttVPt2R8-9" edge="1">
                    <mxGeometry relative="1" as="geometry"/>
                </mxCell>
                <mxCell id="QnIRKIKKSeNdttVPt2R8-8" value="Templ&amp;lt; int &amp;gt;" style="rounded=0;whiteSpace=wrap;html=1;" parent="1" vertex="1">
                    <mxGeometry x="1151" y="350" width="120" height="30" as="geometry"/>
                </mxCell>
                <mxCell id="QnIRKIKKSeNdttVPt2R8-9" value="Templ&amp;lt; T &amp;gt;" style="rounded=0;whiteSpace=wrap;html=1;" parent="1" vertex="1">
                    <mxGeometry x="1151" y="200" width="120" height="30" as="geometry"/>
                </mxCell>
                <mxCell id="QnIRKIKKSeNdttVPt2R8-10" value="Used" style="rounded=0;whiteSpace=wrap;html=1;" parent="1" vertex="1">
                    <mxGeometry x="1401" y="350" width="120" height="30" as="geometry"/>
                </mxCell>
                <mxCell id="RgaNjhP_UmURrgpjqicQ-2" value="" style="shape=image;verticalLabelPosition=bottom;labelBackgroundColor=default;verticalAlign=top;aspect=fixed;imageAspect=0;image=data:image/png,iVBORw0KGgoAAAANSUhEUgAAB9gAAAHSCAYAAACn9xC8AAAAAXNSR0IArs4c6QAAAARnQU1BAACxjwv8YQUAAAAJcEhZcwAAFiUAABYlAUlSJPAAAP+lSURBVHhe7N0JuBVl/cDxsbKyxMqtcENNQ/RJ3CHJpVzQvwuhIu5pLigqblmKoompSOKSmalgboSZ5pYbmmHhbqa5ZFYumYmGa4qWxPnzfTnvdRjmnDNzzrlwwe/nec4Dd+7cmXfebebMb953FqrMlEiSJEmSJEmSJEmSpLo+Uv1XkiRJkiRJkiRJkiTVYYBdkiRJkiRJkiRJkqQCDLBLkiRJkiRJkiRJklSAAXZJkiRJkiRJkiRJkgowwC5JkiRJkiRJkiRJUgEG2CVJkiRJkiRJkiRJKsAAuyRJkiRJkiRJkiRJBRhglyRJkiRJkiRJkiSpAAPskiRJkiRJkiRJkiQVYIBdkiRJkiRJkiRJkqQCDLBLkiRJkiRJkiRJklSAAXZJkiRJkiRJkiRJkgpoe4D93XffTQ488MBkq622Sl599dXq0rnn5JNPTtZaa63kz3/+c3WJ5ra77747WWihhZLx48dXl3Rd1BPqC/VG81a7+475qR62U1eo0y+88EJywAEHJEsssUQog9122y15/fXXq78tplZ9+LCWqyRJkiRJkiRJ6hpqBtgJaBDYIJBR9EPgQ/NWLDcfMpA0L0yZMiU56KCDkosuuih57bXXwjL+nTFjRvj/giAG/z3vzT2e2yRJkiRJkiRJXYVTxKs0R31L8868niWkkV//+tfJTTfdlPzkJz9Jpk2bllQqleTWW28No9klSZIkSZIkSZLmdzUD7ARDCIoQHIkfgiVDhgxJevfunTz11FOz/Y5Pv379qn+teSWW2yOPPJL07NmzulSSOh/ngb/85S/Jpptummy33XbJIossUv3NgoXj4gECz3tzj+c2SZIkSZIkSVJX4Qh2SVJbvPfee2GK+E984hPhI0mSJEmSJEmStKDp1AD7f/7zn+Saa65JNt988/Cu2tVWWy354Q9/GKY4zuL9vL/5zW+SnXfeOYxUY33+jr9nO2X997//nWPfo0ePTv79739X1/hATOfWW2+dLLbYYmH/u+22W3LvvfeGEYrRlVdeGX5/8MEHJ++880516Sxs49vf/nay4oorJnfddVd16awRnY8++miy3377hd+Rlr59+ybnn3/+HNvIW5d0H3bYYSEtRd5hXGv6aKZzZ1r3P/3pTyGfBw4cGI6F/Rx//PEd70puZPz48SFNpPOEE04IaYwffpf13HPPJUceeWTYD/ujfBmBmIf8IF8Y/cr2KIdvfetbYV/pcmjk2muvTQYMGNCRh3y+8pWvJKNGjUr+9a9/VdeaUzat5NF9992Xu2+2w/bWWWedsH3y5Ljjjkv++c9/VteYdTz77LNP3XcGjxs3LuyLabWjdraFmKfUuZhO0j1s2LA50pWe+p+/O+ecc8L6/N1pp52WvP3228mpp56abLzxxiHNLCd9jFTOS1t6e2XyFrFNFuk7iihaD4vWnSeeeCJZffXVQ1vLS1Ms+y222CJ56aWXqktbr+PkKem54IILkttuuy1ZcsklO9KZl5ZYT2M5kp933nln7r5aTRv9DeWal7b0e8opi6OOOqojTbShM888M3nzzTerazSvyLY5lu9///vJMsssk/z+97+vLp3lgQceCMtpl2nPP/98GKlOHeLcgtinptsQx8l+6QuL1jmUaaf1xP1ffvnlyeTJk8N5jHLkc8ABByQvvPBCOH7OA8xGE9P2zW9+M8w8kMW62XNSrfMXD1YcffTRoX6yHh/+ZvDgwaE/y56/yuZVu89t2bbBcVFX9tprr9zXL8T+rEx5SJIkSZIkSZIWUJUSpk2bVhkyZEild+/elaeeeqq6dHZxnR49elT69u1LVGaOz+jRoyvTp0+v/kWl8v7774dl3bp1y11/1KhRYZ0iRo4cGbaz8sor525r6NChlbfffru6diX8/7DDDstdl+2MHz++MmPGjLAuaSAt/O7CCy/sWM6/rMf6l19++WzLJ0yYUFl88cXn2DafbFpYt1Ye9O/fvzJ16tTqmrXF/M+uT7507969suGGG+Zu/5BDDgl/28gVV1yR+/d8+B0mT54cft5oo41yj71Pnz6Vp59+OqwbTZkypTJo0KA51uVDXZo0aVJ1zcY41rzt8Bk4cGDllVdeqa5ZCfWY+rz88svnpjVv3/xNv3795liXD8f25JNPVtesVK655pqwfOzYsdUlH3jttddCevjwf7SzLZCnAwYMyN0On2w7jnmxzTbbzHF85Cn1iXqVXp7+ZNt12bxtpu+op5l6WLTuvPfee5Vhw4ZVevXqVXn88cfDsrT7778/tLcxY8Z09AftqOMxT/O2Qd6Rh3Gdtddeu9KzZ8851mNf5E1aO9JWr37E/d111125aeJDXSUdUa2+LJZr7G+iMtueOHFiWJ7eBuVEebF87733nq1vvvfee0ObTK9PXcm2oWb7vjLttJ64f+pedjt8aNsjRozITdv2229fefnll6tbKn/+qlc3yTu2lVY2r9p5bqOPZvt56/PJ7gPx+MqUhyRJkiRJkiRpwdRpI9gZ8ccIRkZzMxr1f//7XxiF3adPn+S6665L/vGPf1TXTMKISkahbbvttsnTTz8d1p0xY0ZYh1HhjKR9+OGHq2s3xih19vO73/0u7Jttsd1tttkm+fGPfxxGV0Z33HFHcvHFFydbbrll8uCDD4Z9v//++2GdlVdeORk+fHjHKMePfexjyUEHHRRGuJ1yyinJb3/727D8scceCyMi99xzzzB6jtFwcfnIkSOT9dZbL4yMZLsz8zyMqPvBD34QRhnGtDDCkhG77JORfXHdadOmheNYd911k498pLXiYiQt2/3Vr34VRiOn84V9P/nkk9U1a9t9993D+/d79+4djo00xg+/S2OU7zHHHBP2y744xhNPPDG5//77Qxqi6dOnh9HJvF+XfCF/2B5pJd943y514PXXX6/+RX0jRoyYLV2xLh1++OFhhDL1MOtTn/pU8r3vfa8jreT7hRdeGNKS3jf16aKLLgplRN1kxDr74NhIO3nIMcb1Gc3JqGGOLTtClxGjjOLu379/8rnPfS4sa1db4O/OO++85Prrrw+jkJ999tmwHfL0r3/9a6irtVCvSfff/va3sB2OjzxlFCzHkc5btkd5fu1rX5ujXUfUW9pRo7yNyvQdRRSthyhad5j+fPvttw+/mzhxYlgW8XeTJ09OFl100Y4R+O2q46xHGoYMGRLqzdSpUzvSyjvB0+88p5yZXSCWYzrfae9xJHa70kb9II/y0sbob/7+Rz/6UWgz7Idy4Hf8TN2mrrKcMi+r7LZXWmml0KdSN8gbvPXWWyFv11577VA3GFUd0Ra/8IUvJF/+8perS+orWudaaaf1cJyjR49OXn755ZAPr7zySrL//vsnN910U3L22WeH/1N32RflzXnthhtuCKPVozLnL1BPGHXOOvFDOm655ZZkueWWC3Uu2weiTPushb8lfUXObYy8J2/YPrOOxDwirZzrqbuSJEmSJEmSJNXTaQF2AksErplO+uMf/3gIshEgY+pVgggEX8BNbW76cxOfm/arrrpqWJeg1LLLLpsMHTo0WWGFFWabQrsRgr/coP/qV78a9s222O4RRxyRdOvWLXnooYdCYIMpZ7n5TyCMoCZpYN8E0gm4M90twT4C3BFTzxIMINhCegkoMFX6l770pfDvpz/96bAeN+wJ3oP11l9//bBdEEzdd999Qx5xXLy3mCAXDwawfY43rkvAjOMgoB+DsM0iOHTZZZeFoAPpjPnCdLwEKF588cXqmu1x1llnhTwkr9gXx7bLLruEdDBVcQzw8X/y4dBDDw2BzHic5AH5RsCOvGx2Wt5Yl5iym+N94403qr/5AA8HsP+YVvKd6ZV33HHH5PHHHw9pBEE30sKDFASNu3fvHpZzbLw6gL8huPrMM8+E5WyPVw8QkE+nn/pHMOizn/1sKF+0sy38/e9/D4Ffypq6E6d3Jk+/+MUvhm3XwisJTj/99PCwB/uvh+1tsMEGYRpo6m/edOnUdabtbpS3UdG+o6ii9TBPzPu8usP046SV/iEdfJ4yZUroVwgqk9fo7Dqehym3CSTGciTfv/GNb4S8JD2xrOZW2ghyEsQnL9kX5QDaEOXDAwsEuMm/sspu+/Of/3yY4p+HXAjIgoA2P/OQBX8fpyinrfJQEWXJ9PFFFK1zrbTTeuL+l1566fDzUkstlQwaNCj8n4cpeOUD9Zp9Ud6kDQTiUfb8VQvtl9ckUO9oO3ltrZX2GZU5txHQ58EAHjI49thjO/KItPbq1SuUQZ74AAEf/i9JkiRJkiRJ+vDqtAD7Rz/60TmCc9z0JtjDDe94U57gBoEb3p3KKDfWSX9Yn5FmvC+1yI32enr06BEC4WyLYCb7ZnTnmmuu2REIS2OEIzfuSV86cMhNeN5FzUhiRjsStCFgQdAm4vgYQcd7YQn4Z49r8cUXD6M9CWiQFgKtBCoJ1u2www7hHbeMqCdwR7CjHWKwNisGFPLeT98K6kAWo1zJJ0bTxpGjjDKljMnThRdeeI68IhBL2mLwpxHyi0D4ueeem+y6664hwMMxUg4E0HhooggCNdQX/iYGVhntyChPyj0GIiMCmBtuuGGo3wTkQPo32WST8H8C6vGY2Q5lTdpWWWWVsKydbSHmKcH6dL0sIga18/AgCA8LMNqfUfbxfey8G5kRr9n3FteSl7dR0b6jqKL1EGXqDuW/0UYbhUBkelYBHhpgGaPH4wM37a7jRXDcbDuN9HA87IuyxNxKG30t26GfYwaANALAtKl77rmn9AwFKLttHrRiGe2NOgVmbuBcQJnGGVDo9xnZ/sc//jG3zddStu9rpp3Wk7d/ZukA55RsveD8Q0A6PhhU9vwVkV88MPCd73wnjARnJgwC85wf6bcY/Z5Vpn3WUubcRjumzHmwKbZPSZIkSZIkSZLK6LQAey3Zm+mMRi0yYrHojfZ6CI4w9XQcvcnNfm76cxM+Bh/SuGFfK9BI4IBRedhjjz2S1VZbLfw/Ir3pKYZriYEu8oVRfIwcJmjBaGWCRQQyCNASHGpXoD0rL8DRWcjP7P6K5BPSQZJayMszzjgjBMqGDRuWXHnllSHYWTSonsWIcVBn0v8S7M2Tl5fUDYJNBOwIrIOp4ZmOmJG1MSDYzrYQ85SgWV7gqRmknZHnBKZOOumkMNqeYypSLnmyedtIO+tpXj1spu4w0wUPQzCSlzIh2MiDFIzupY+I2lnHW0Fd6Mz2V0/Mxxj0TMtLVxnNbJv+lWMnkMyx/eEPfwizDnCOoM+ljTLCnHrPvwSaW0ljvb6vne20kThiP40+KH0OLHv+Ag8r8EAKfR2j3gm0k4fNyMurZuRtIz5EkPdQnSRJkiRJkiRJRcz1AHsWAWRGGO60005hJCtB5LxP9v3CzYgBzBhQj/smkEBAIYv98i7XPLyT9uabbw5TEBOUi+9jj0jr8ssvH0Y0s/3s8cQP0xozWg+MqmTkH1MVE3RkmmmmHWdK2/3226/QO9LnR+QTzjzzzNw8ip/sO97z8N5upvsnqP2LX/wi5CP1inKM744vIwZjYuAupjUuz8oLfDNKktHMkyZNCgGnOMqTICzTjEftbAsxnQQG24Hj4l3R5Olee+0VpsHnQRDaDWm64oorqmsWw98wkhR5QdF5oZm6w+wDBBV5dz55TVtnO7wWgCmvo3bW8XabW2ljBhHkBW7ZfisPUDWzbR6MYIYSRqfz6gEC7fGhCEarf/KTnwyvE6EeMKKbmUvard3ttF3Knr94r/moUaNCXvLOe/KN8y0PnLAe73LvKmJdaWamBEmSJEmSJEmSMM8D7Lz/nJFk2XdUdwZu+jO9N1NTEzyJ+yYowBTDWYwwZtpr3reaDmgybe53v/vd8L5XRvESSGNEb/o9r6zPjXxGnrOdMphSl+AP75xmqurjjjsu7JOpp7sSglYET1rFVMAELxkNnX6XdTMoS0ZV8j5jAtXk42c+85mmRocSQKbOMF10fPdyTCujXbNpJXBOefPQRXZGAwJ3BNQJrFOOPJDBSM/0lNPtbAsE9UkHQUOCX61i1Ct1cNNNNw3TPTPSl4cBGgX6a2HmCPKQAB5l1BU0U3cY+cssBDz8Qtnz4AEPHVDW6b9rZx2PaH+1HgAqozPSloe6zUNEPJyUnlYcrdaHZrbNu7cJsNNGCBQTUI7BV9p7nCaeh2LIn/i7dmp3O22XsucvgukcA7O6nHDCCeH1KgTeed1EV8N0+ODBtVYe6pAkSZIkSZIkfXjN8wA7N/IZ7UkA74ADDkhuvPHGjkADU88yyuzCCy9MzjnnnLCsCAJcBAPjdnhfNdtldCqjEAlsEvxK73vEiBEhmErAiv0SOGd9ggy8kzciWEPAmyA4U7oz0pFp3RnRzDuM4z7ZPgFy/v7II49MLr744o7gFftgO0xBzT4IzDKa99BDDw2jnN98882wHsFr3tHL6FmCR10lEMnDCQSGCEoRpGgVI5gJSPJOX0bs81BDnHaYvCHwSZ4XmW6YoBnIR96dDMqfbcRyysMoVaaZpmzIdx6W4KGJG264IUwDHqczT6eV8o7vb2ZfzGTws5/9LEyhnp1CnocwqGsE1glQg/XS2tkW2D/bv+aaa0KayEeOi3ekMxJ9/Pjx1TWLIVBGwIzA/4MPPthRPtRV2soFF1wQfs6TzVtGxB577LEhbzfbbLMuU6+brTvMQkCduOSSS5Kf/vSn4eEDAr5p7azjTHvNDBy8u/u2225rOcjezrTVs/rqq4c+kTziwaGYx7Sh2NZ4ECU98r+oZrZNe6P/pk3SRgjA80AFeHCCaeKZyeCiiy4KU7jzAEy7tbudtkvZ8xfng8UWWyzUFR4gim2d47j00ktDPnYVvAKCNnrZZZeFWWio66SXfmrMmDE100rft9Zaa4VPZz8MKEmSJEmSJEnq2uZ5gB2MBCfATQCL0aAEMrjBv/DCC4dRhUOGDOkImBRBsHrgwIEd24mjTAlWH3/88SEYExFYIrDNyOL1118/BK/Y77bbbhvWJ4jKaDxwI55Aw8MPPxxGucaprblZf9BBByU//vGPwyeOiuPvmDaXUbH77rtvmAKc9LAPgnm77rprx6h3bvAzWvJrX/taGGHHeryHluAjAZ4999wz3NjvCghSEawiwMcIUNLKp9lgEOXDwwqDBg1KJkyYEAIglAHbJJDI6FHKochoQ8qCD+vH0cdsn20QFKkVJCOPKU/KJuY7ZTlgwIAQdIzv8mVb1EeC7gTUGenKPtgXIzepWwT00iPTwToE0phynEAm04ozvXhWu9oC+yfd1DmC9eQjx8X7pUln3isR6kkH/xmlGsuHusqU8fVk83allVYK7Sibt/Nas3WHPKBseV87sw/wOgACjmntrOM87EDwF/QL5B/bOfDAA0Ows6x2pq0e6uQRRxwRgsrsL+YxbSi2NZaTnrKa3TbH9tprr4XZKjbeeOPq0lkIvhNYJ/Dat2/fTqmn7W6n7VTm/MXDNwTkmSGGBxViW+c4eKCIB9K6Ch4aGDp0aCh3+ljqOunlISrqSjP1T5IkSZIkSZL04dIlAuzcfD/qqKPCyFHeNc6U7OBG+M477xyCPocddlhYVgRT+44dOzYEjAgKMPqb/zPak6AAQYKIQBiBjKuvvjoECFiXv2G99PqMxrvqqqtCYJ2ASHr0Mek/5JBDkv333z+MOmSaaPB3gwcPDiN+GQVIwAZsnwA+o355Ny3BSwI548aNm2090kKaSBvvR84G7eYVAhDDhw8Po1opIxCAIpjSLKapZqQjeUzekEcgL4YNGxbylHJthEAu9YWyYBt8KHvekU2diKOUs5jyn0BQzHvqIKMZSRNpS6OseOd4dn3y5Je//GXNdzWvscYaYfYEypXATl4gp51tgYAh6eH4Y73eZ599Ql6w7bJI83XXXRdGnYO0UV+ZQprAfy3sk5Gu8VgoRwJZPJCRzdt5qdm6QzunXCl3HtiJ7/HOalcdBw9iMJtBXJ+8XXbZZZsOArczbfWQN9Qh6k2sD+yjVlsro5ltE1QlkMyDFdkHXuI08QTh4/Y6Q7vbabuUOX+xLudF2k+sJ6xPH8mDYzzw1lWQ1l122SXkeezL6F95QIOHZOjnJEmSJEmSJEmqZ6EKkWNJHxqMciaYxLTtl19+eUsPRtTDqG8CdDvuuGMYlS+puLnVTvUB3iXPrBAE3M8666zw8IAkSZIkSZIkSVldYgS7pLmD9ygzywLve+aVCNmp7CXNe7bTuYvnDJnu/vTTT09uvfXWkOcG1yVJkiRJkiRJtRhglxZQvA+c6ZDTH6Z35l3UvGebd6d3xnulJRVnO537eD1FOr95X/xyyy2XnHHGGWHWDaeJlyRJkiRJkiTVY4BdWkAxpTTvGk6/P3qTTTYJQaRrr712jndOS5r7bKdzH+/eJ4jOVPDg3fdbbbVVMnbs2GTcuHHJUkstFZZLkiRJkiRJkpTHd7BLkiRJkiRJkiRJklSAI9glSZIkSZIkSZIkSSrAALskSZIkSZIkSZIkSQUYYJckSZIkSZIkSZIkqQAD7JIkSZIkSZIkSZIkFWCAXZIkSZIkSZIkSZKkAgywS5IkSZIkSZIkSZJUgAF2SZIkSZIkSZIkSZIKMMAuSZIkSZIkSZIkSVIBBtglSZIkSZIkSZIkSSrAALskSZIkSZIkSZIkSQUYYJckSZIkSZIkSZIkqQAD7JIkSZIkSZIkSZIkFWCAXZIkSZIkSZIkSZKkAgywS5IkSZIkSZIkSZJUgAF2SZIkSZIkSZIkSZIKMMAuSZIkSZIkSZIkSVIBBtglSZIkSZIkSZIkSSrAALskSZIkSZIkSZIkSQUYYJckSZIkSZIkSZIkqQAD7JIkSZIkSZIkSZIkFWCAXZIkSZIkSZIkSZKkAgywS5IkSZIkSZIkSZJUgAF2SZIkSZIkSZIkSZIKMMAuSZIkSZIkSZIkSVIBBtglSZIkSZIkSZIkSSrAALskSZIkSZIkSZIkSQUYYJckSZIkSZIkSZIkqQAD7JIkSZIkSZIkSZIkFWCAXZIkSZIkSZIkSZKkAgywS5IkSZIkSZIkSZJUgAF2SZIkSZIkSZIkSZIKMMAuSZIkSZIkSZIkSVIBBtglSZIkSZIkSZIkSSrAALskSZIkSZIkSZIkSQUYYJckSZIkSZIkSZIkqQAD7PPYa6+9lhx//PHJiiuumCy00ELJFltskTzzzDPV387u7rvvDuuMHz++uiRJ3n333eTAAw9Mttpqq+TVV1+tLm2vk08+OVlrrbWSP//5z9UlHx55eS7NC9ZFZdEn0zfTR89PKpVKcueddyabb755qNNLLLFEcvbZZ1d/O/+Y2+fGudkHzK91a14xv9TI3LhelyRJkiRJ0txjgL0JBAfOPPPMcKN7mWWWSR544IHqb8p55513kmOOOSY55ZRTkueffz4s+9e//pX8+9//Djfh2D431CVJWlD85je/SfbYY4/k17/+dfiZB8047y3oYoCc8zvBNilPDMR6DShJkiRJkiR1XQbYm/DGG28kkydPDv9/6aWXkokTJ4age1mPPPJIcuWVVybDhw9P3nzzzbANln3pS1+qriGpK5gboxMXlBGQc3tUbxldOW0fFgQPr7rqqmTppZdO7rnnnuR///tfOPeNGDGiuobmBkfTSrM4O4wkSZIkSZKaYYC9CU8++WRyxx13hGANN6fvuuuuZMqUKdXfFve3v/0t+cIXvpAMHjw4WWyxxapLk2SRRRZJfvKTn4SgQ79+/apLJUmav7399tvh3Pd///d/yQYbbJB85CMfnssQzuec1zm/c56X8ngNKEmSJEmSJHV9BthLYrTdbbfdliy33HLJN77xjfDO9Pvvvz8E3ctiWvhPfepTySc+8YnqEkmSFlxMB8+rUAgifvSjH60ulSRJkiRJkiRp/mGAvaRXXnkluffee5M+ffokK620UvLVr341WXTRRcO7ZAm+FxGnZj3hhBOSRx99NFlttdXC9JTpKSrbMZXxjBkzwrtud95552SJJZYI2998882Ta665JvnPf/5TXesDvBP+/PPPT/r27RvWJV3f//73k2effba6RnFx3wMHDgyj89n/t771reS8884LP6en4kxPjU0azjnnnI48Oe2008I61157bTJgwIBkxRVX7Mirr3zlK8moUaNCsCYiraR/n332CdvKYhm/48EIpvcvipFklBXHwLHE4/nLX/5SXeMD2XzneLfeeuvklltuSaZPn15dKwl/S1r5/OlPf6ou/cD1118f/vb000+f7e9qSdeZhx9+OOyfv19vvfWSv/71r2GdeBz77bdfR16yf8o9m19x2tQrrrii0LEXKUfwO/a36aabht/F7bEP0peWXTfm5YUXXjjHtMZlthvzinxP11Py5Pjjjw9BwIi6ynGwHdos246fWI/z8pW/Oeyww0J/QZ2op8g+0p577rnkyCOPDPsi3ZQ1r5fIQ/ugnayzzjphe/wNf8s2ymD9o446qqNM2c7ee++d3H777aE/oTyY0SOvX4vTUKenpSZdzARCn8Q62267bfL666+H4+XnvHcPp+tYVt5xUh5s5+WXX26YtiKyecC+zjzzzPCKj7Qix9lIXv9N3f7Rj34UzkP1MPX6rrvuOttxklbSnlfuRdtZq/WcsmD9bD1Pl0HR/hNF+5wsjoNz2zLLLJP8/ve/ry6d5YEHHgjLx40bV10yCw/EMZqYtvPf//63unSWmOZ6/Qjq1d+8/os84LipT1ll+oAs0sH584ILLggPDC655JIdZUG9ze4vtq2Yt9TlO++8c45+FXn1tt51Rz0xT9LXJKRj2LBhIR85jig9zTfpJf9jHf35z38eZhk6+uijw3GzjA+/ZwYh0putu2XPf2ll8quWeI5KHyMa9cNFZdNIHtOX7bXXXrl9YmedX6O8vqXRtUk7ypq0ch2PPfbYo2N9PuwnKnP8yMvfc889N5yLJEmSJEmStICoLKAuuuiiSq9evbjrFf7l53aYOHFi2OYVV1wRfn7ttdcqAwcOrGy66aaVF198MSxrZNq0aZUhQ4aE7WQ/cbsjR46s9O7du/LUU0+FnzF58uTZ1kHcVv/+/StTp06tLq1U3n///cro0aMr3bp1m2MffEaNGhXWiaZMmVIZMGBA7rp8smmph+2y/bztxE/6GNgu299mm20q/fr1m2098gH8m16e/pD/r7zySlhv+vTplREjRlS6d+9euf/++8OyNJbxuzFjxlRmzJhRXVpbzPOVV145Ny/79OlTefLJJ6trl8/3SZMmVXr06FHZa6+9Km+++WZ1aSVsk23vv//+lbfffru6tD7yaNVVV60MHjx4tv3HsuN4J0yYUFl88cVnS1P8DB06dLZ9lT32IuVIPRs0aNBsv4sf8oH8iChTyjZvXT7pOlRmuyA91IMNN9ww928OOeSQ0LbAfvLW4RPTQL7WKvNs28xTZB+xPDbaaKPcMqQ8nn766bBuRJlkyyK9frr86mHf5GPedmL94hg51rx1Yh7E/oq/2WGHHXLXiXnBPrNiHYv1Kap3nKx/3333NUxbI3fddVelZ8+eudug76QORkWOs55G/Ug8/lr5Ua8+ZetJmXbWaj2PdbjW35btP+Px1+tzasmey0EfybmB5Xvvvfds/eG9994b0pVev0w/glrlVa//4hPbQjN9QJ6Yjuzf86Hekua4ztprr51b7+kPsm20bPnVU/aaJOYN579seimzesdMeqnbaXF7Zc9/ZfKrHupI3jE26oeLiNcXedvhk23LnXl+RbPXJu0oa9Katx6fWF5lj79s/kqSJEmSJGn+tECOYB87dmyy//77d4wK5l9+ZnkrGKHO6JfevXuHUcH47Gc/G0a/TJo0KXnooYfCskbi+zVHjhwZtvXUU0+FETB8dt999+parWG0FCNzGC359NNPh7Qzaucf//hH8u1vfzuM9GOUM/gdI8sZMc2IHEaBsy7LGS1F3pXBO+lPOeWUMMqf/Hr//ffD9qZOnZr88Ic/rK41p9/+9rdhxBHv52Xf5MeIESPC7/g35hGfeCyHH354GN3O6Ekw5TDHjF/96ldhOxH/Zxll1r9//zCqqChGK1FmjLxi/4xYPfHEE8PrAVgeR44xgpC8XHnllRNGBnLs7PfBBx9Mttxyy5AvN910U1gXG2+8cXLccccll112WRgdxQjNt956K4x8whFHHJF8+tOfDv8vglF1zzzzTDJhwoTwrmPSSpp69uyZPPbYY6HOUXcZpUna+D3H9IMf/CC5/PLLQ5qz2D8jrxode1SrHDk2yv/WW28N+4vbIx2khzRSL+PoXsqUsh0+fHjHumzvxRdfDOmJ+VJ2uxEzGLAOdYK8ok7RVrbZZpsw2vLJ6msfaJO0Udoq+ce244ffkR+sT5kz4i3m67Rp05Lf/e53ybrrrtvwPdON9pH2xBNPJMccc0xIP2lOlwfHElGPTj311NBOKNtYHygvRsW+9957ueWXxWhdjo9/f/nLX4b143YYvbfddtuFdkcboQzy+jWW8/uIv2N79BVxe9l1iqJcqV/kPX3bP//5z9nSR3kuvvjihdOWh30wcpxtU8fIc/6Wn9knfSfLs3nZ7HHSR9B/p/uR2IcyapPRoPVQZ+LxxQ/tgtkwsvWkaDtrRz3v169fbj2PeVK2/4zqnTtqYQYa0kx74m9AmyE/1l577ZBP6dH+9A1f+MIXki9/+cvVJbMU7UdqoV5Qd37xi1+EWQc4BrbBNpl55KSTTppjKv2ifUAt9Ikc55AhQ8K5kHoVy4I+If1+eNJAG495S3kzswF1JfYLUZnrjnr4u7xrkpgne+65Z3XNOTGSe9999+3IG46J9sAxU7/icfIh7+kLeeUPx0I+ZpU9/5XJrzL4u/j39frhRhiJPXr06JB+rj0YUR23w2wO1Ie0zj6/otlrk3aUNf3E5MmTw/+vuOKK2f6G/qrs8dfKX9annHi1lCRJkiRJkhYMC2SAnWku89RaXhQ3iQmUbLLJJmG6SRCk5efu3buHaeKzN1vnBdJAEIKbldwQXHXVVUPgg7Quu+yyydChQ5MVVlghpBd///vfk4kTJ4YbnwQw4lSb/E2PHj2S5ZdfPqxXBPu+4YYbwrT5BPeYTvNjH/tY2B4BFKYproVphgkAEVxpFKiJx8J07xzfG2+8Uf1NkqyxxhrhJjHHR5lF8TiZHn6VVVapLi2GtO22227J5z73ufAzAS6CE0z9+sc//jFMp8pNVG7CMpUw0x8TEOLYORbKgput5At1KN5k5zjYLmXCTVoCFATaWYe86NWrV1ivKII/F198cSjLdGCetDFNNagT66+/fkgbOCZuUnMs5BmB17Tvfve7yTe/+c26x55WqxxfeOGFsP1DDz00PBgRt0c6SA/bJI1xStx///vf4V9uiPNQBNge0zcfcsghHTeqy243Iq94sCHmFWVBXWJqY27YE2AsghvwpJV8oV3FfCVIxcM3tKmYpnY466yzwvS3BPtIM/vdZZddwvGQF7FuEcgkAEG9I+gQ68PHP/7x0D6YCphAKX9TTwwSUXfpG/h78O+aa64ZAmpl29Nmm20WHnjiAZO4vWYRqKHd8SDQ9773vdAXI6aP/KdcWxH3QX9DPYsBbvZFWWy//fYhYDllypSwPGrmOJmem0AQ+c05K/YjsQ+lv6CNlUUdZApk+mSCS/QJKNrOOrueN9N/RmXOHdHnP//5ZPXVVw8PJREABMFRfiboxnESpANtgPb0xS9+MeRLWqv9CEF8+if+nvLmGNgGx87+yAuml04r2ge0A9PQEzCMeUt5Uyd4gI59xenky1531FPrmiTmSb32PGbMmBDMj3lTD22S6wGOh2uIvHwre/4rml9ltasf5uEMgtX0l8cee2yy9NJLh+Vsh+uNeG0bkebOPL+2cm3S7rLOU/b4a+Uv63P89DuSJEmSJElaMCyQAfa891mj1vKiGN3Du20JqH/iE5+oLk3CTU1GujBihRGN8xrBAm72MXqcoAk3HtMfbvySVt4RyU1G0szP3Bhv9eZf3DdBbm6wlsEN0FrBEW7CEohgJBmj/LhRyo1gRkISECEoE3Ezl9FclFX6/boErwmUEQxLl1+zuNH6pS99KdxgZ+QjN85JB2ni+LO4ec1y0hCDWiC9BHR4+IDAJwEFHk4gKFcW+bfwwgtXf/oAN6YZPUYbIH3ZOsEIX0ax8m7nIg+JZI89rVY5xnrGsZHGbBp23HHHkC/x/dK8w5U8I8BBcIbgDSMZszfGy243isGfrBhgSJdRPQQlN9hggzCKd4cddggPSDDilhFtMYjZTnmjFAm80nYJwBCIAe2CQMYBBxzQcazxw8+8x5e8yxu1mUaAiEAC26PtEcjkWOk/GDXYDIINMYjSKvoFyop+OT5E0G6MRmUflHO271hqqaXCiGf6m/QDPWjmOClDjomgGW21WdT3Sy65JDwUQL/Cu4AJdDLbCg8CxGBV0XbW2fW82f4T9c4dtXTr1i2UG+cr2gkYCU++b7TRRiEgyrGSLvo4gqmsHwNsUav9CKPHGdnK/ggUFlG0D2gH9pU9PtoZx8ex8eAFyl531NPKNUk8B+ShLAncf+c73wltglkPaJ+8r590MTq5iHrnv6L5VVa7+uF4XuChmCL9ZWefX1u5NpkbZV32+MvmryRJkiRJkuZfC2SAnRvxeWotL4Ibe4ycAzfU0jfYCDxcffXV4SYcQZZ5jRv22ZGUeeKN+DgNLqNrOJ5WxH0zyoyRVu3ADekzzjgjBD6GDRuWXHnllWHEUDqonsXNVEY93XjjjWHKToJABI622mqruqPoy/jkJz8ZAiJMb8qNdm7oMtqJZUsuuWR1rQ9ww7nWFK78DaNL8X//93/h02pZpMWgXSNFAwDZYy+iyP4Rb7wzupTR+AROmYqXaYcJ0jBqmFGdcb2y222kVhnVwvqMJiXgwU12gpQEIgkMkHb6hM4ItKfl1S1eFdAIgYDsqMA81M1x48aFQCZTU/PwByPzCM4yXXGzgfZ2iMcZAzedIfY1efugnZatM/XEPpR9fepTn6ouLY66Rh/J+W6fffYJQXYCTXGEZVbRdtbZ9byV/rNZpJ/+gwAfx/mHP/whPCzH/jmm++67L4ymZppn/iUAWDQNRdeL/Rd53orOyJ9a8up82euOemKetOOaJKL+82AewVZGStMmKN9mlD3/tauPaEc/HPtLrtGK6Ozza7uvTdDOsi57/GXzV5IkSZIkSfOvBTLAzhSdeWotL4KbbDHAXg+BXwK68xIBD0ZV7rTTTmEqTIIeeZ/4rtU4BTwBhFbFfTOSs0jgrgjynelPGYHJe2oJwnBc3EyO7/PN4ub31ltvHabqZMpO3vtK2TCNbnYEYrMICDHNKfsnIBPzkiADwYYs0lsrsEAAh6AYN8tvvvnm5IILLmh6pFuemLYNN9ww1OW8+sCHKZoZCdkIN8VjwCkvGJYn1jOmQc7bd/zEd44TlGBqZB6SiMGvH//4x2EUK/WBG+fkZ9ntdgZGwzJSjimmqZ9M8X3wwQeHurfffvuFUbdzG693AO8xzsuP+CGg2AijtnkXMlNmE1xllCpTdjN6c++99w4/txt1rIh4nEUDIc2otw/ysJ0jhmMfyr6K5kEadY33GbMN+ngCPozWJI30SwSd0oq2M3RmPW+l/2wWI62ZaYXR6YzaJ9DOw1lgtDqB1IceeigcK+ezVh7SqyX2X0UeiOnKyl531BPzpB3XJOCabNSoUaGcmVKcMqWO8eAkaaK9lNHM+a8d2tEPx74sO9tGLZ19fm33tUm7y7rs8ZfNX0mSJEmSJM2/FsgAOzf6L7rooo6b4fzLzyxv1uTJk8M0rrWCVUyPyg1ORrF3ZqCnCEaOM3qG9yvXGrWYxgh8RooRXGj14QBGVrE9ggVMrdkO3Cgl8MPU6dy8Jyjymc98pu7INn5HIIm0XHXVVck111wTpuCNwZN24AY7o6IYeUhgnBvF3FylnhBwymIKVJYzYpRAVUSec9OXwBLBdd73yrEypX27xLRlp81vFgEnpoem3vAwQxFM9UtAgmltmVGgDOo0o/QOOuig5NJLLw1lyUMTBBZa2W5ZBPho77UwBS31k5kSeJ0BwQ/K/fHHH6+u0VijfRRFH0A94/2xRab9L4JRsgTReI/397///RB0oG0+8MAD1TVmIRja7DHEUeJx2u40tpkdpRmPM07n3UgzaYv74Dizecl0wwSlCRBR9q2K/Tf9Xl4/0gjT2VPnjjjiiPB+4JVWWik8VETZNVKvnaW1o55nNdt/toJ+mwA75z4CeATTYoCMd61z/NQr+nn6mPi7dor9F4HAOM303ER/k21TzSh73VEPU2szg0I7rklAgJVt8f5tZmVYd911Q7CW65VmNHP+a6ei/XAerolAWyrywEpnn1/bfW3SSlnn5UfZ46feomj+SpIkSZIkaf61QAbYEUfTEUjh31aC69zgJcBOAIUbbXm4Icw7FwkCNDsVZbtww5LR2wT9ef9ynCYdjIpmZM2FF16YnHPOOWEZAS2mTScI/bOf/SwEqcg3Ar6MXjz77LPDekUstthiHfnA9mOQjG0ygpwRkWURBAHvDo6BHt7hSgCK6Yprjfzj3fhMEzpmzJjwvmDypNmb4eyD/IgBPgIIxx57bAgGbbPNNiGARVCfgBM3iwmYMy0p+c36PHgxfPjwUCZMPRxv9nIDltGil19+edgeN4OPP/745Otf/3q4OUw+tkM6bczkwJTQ8WYx6SNIyAh6yicbpMweO/nO+7s5drbJww5FUM+Ytp/3qTLqlel14yh99sl2CdTF9kPQgDrEAytxPcqdvyM9BPgYYVp2u81gP7RxgnDZ4B/vXD300END/YzvMyeveMCEGRYIBhYJvNbbRzMIRFI+P/zhD0PdohxjII16SJ/Ge7dJfz1Mgczx3XDDDeH/HBuoP+QtVlhhhfAvCLRRBpRHM4F98ovAFQ/GkDb2R//FKx722muvsO20eJzM+sCDKTFIGfsIyj4eY7Npi/v46U9/GgLKsR+ifzvppJNC3vDwTjuCben+m9Hi1CvqM/lA/tNHx747D8Ek8pD6Hvtf/p7AO/05gcG0ou2sXfW8lmb6z1aR14xU593r5Cvn+NifMVqYfTFrCg/oUSepP+0W+y/qEO00juKNZUZedMY1BVN18woC8paZXmLf0Kyy1x318NAa1xHZaxLq/3nnnZeMHz++umYx9Ktcm9Af8BAIxxq3x4MklHEt7Tr/tapsP1wLr9ph1pLLLrssPNAX2xgPDXCtlM2Lzj6/tnJtkqeZsqZ/IzDONPvMSpRW9vh79uwZ+o1s/lKPuKajPufh+MiLZq6RJUmSJEmSNI9U1NDjjz9e6dWrV+XYY4+tTJ8+vbp0TnG9Pffcs/LWW29Vl9Y2cuTISu/evStPPfVUdckH8n43efJk7qhWrrjiiuqSSmXatGmVIUOGVPr371+ZOnVqdWml8v7771dGjx5d6datW/ibvA/7iCZNmlTp0aPHHOuwjHTUSmeeKVOmVAYMGDDHtvisuuqq4d/0MbBdtp9OT9qzzz5b6dev3xzb4rPhhhtWunfvXvNv77jjjpAHlAvlU1bM81qfoUOHVt5+++3q2rPy/dxzz62Z76NGjQrrRDHfay0fOHBg5ZVXXqkura9efcKMGTMqEyZMqCy++OK5aeNDXaJOoeyxNypHUDcGDRqUu734Yb9gO3m/50PekEdRme2iXl7ltbP33nuvctRRR82xTdaJx539Xfxk86mWevtAXroi2j59QLr8QNpqtR0+9epLFLed9/d8aOvkf/Tggw/O0ZfE/qlWf5XGOocccshsfx8/tdr7PffcU7MM0sdYL22N1NtHNg+KHGc91Jfhw4fn7otPPP5Y99L58dprr9VsC3379g3Hn64nRdtZu+p5Xpqjsv1nvW0Vde+994b9Ua8eeuih6tJZnnnmmUqfPn3Cvq+//vrq0g+wX/Yf61daXnutld6nn366suWWW852rOlP7Lua6QPque666+bI6/j39fK2Vv2mbMpcd9RT65qE89fyyy8/R77XyxvOfWefffYc2+LTs2fPytprr11ze7U+Zc5/zfQH2boVyzcvLXyyfVAt5MX48eNzy4g2wCebzs4+vzZ7bdKusq7VZ8ZjKnP89fKX69811lgjtx6QZ6xTtH1IkiRJkiRp3ltgR7C30+TJk8NI4q997Wth1FctjHRhSllGajNF5bzEFL6Mspo0aVIYvc+oGvTo0SPZeeedkwkTJiSHHXZYWIaNN944jN4ZNGhQGInIekwxzN/vuOOO1bWKYUpNRvwxqoftYLPNNkuuvvrq8P7VsshX0rv//vuH97zyIZ1MoT527NiOEe55OG6mPGYkOyPam8UoT0ZXxXyknC+55JLkjDPOCCOmIvJ96NCh4VUCpJG0kp+M0GI0E2XCOqBOMYKY2QN4r2pcDsqDqV8ZNcWIrjhiqhWMjho8eHAYwcqxMHITpHHbbbcNI4BHjhwZRiKmHXPMMaEuZMuSPEkfexHUDUaRXXXVVWGf7BukZdiwYaGtkbcgHxkFll6P/Cft1EtGiUVlttsMRrMygjZdp3lvNe/fZWTruHHjZsvTWOZl8qnePppFflHvmCWBciNdYLvMlHDFFVeE9NdDXjLqlJF1/F1E/rNdRpOS/xGzMFBn2R84FqaOXnjhhcPPjVD/GBXOaHT+ljQz3W+99s7ocY6TNMYy4G8Z8cnsFfEYW0kb+7juuutm6wfYF6M+qXvpPGgV9YU8YDaD2I+AdNNOaRu1MJsG/WysR+m6yIjg1VZbrbrmLEXbWbvqeT1l+s92YdQv9YJRvdlzRJwmvnfv3h1l3hnIW/ouZkeI+c2x77nnnmEk/3rrrReWtRuzrzCqPPaNHOOyyy5b9zqnHsqmzHVHPdlrEvJjn332Cf1A2RmJOPcx+pj9x2OlDp922mlh6u+BAweGZXnaef5rBcdfph+uhbzYZZddQt6m+0GOkWvX7bffPixL6+zza7PXJnmaKWv6TPrxeI1JfSNv+Bdljj8vf2kH7P/2228PMzNIkiRJkiRpwbAQUfbq/6VOx01g3u97yy23hIBGZyMgxI1jAtXxZqeK4V263AwmCLv77rtXl0qSNG8wLTfn9Oeffz68WqWVB5Dq+TCe/6ZOnRoe6iDgftZZZxUKaEuSJEmSJEkfVo5g11zBO30Zjck7gBnpwztWOxvv8eS9zbw/k1HikiRp/sQ5nXew8x7r9ddfP4w8Vut4zpZ3j59++unhOo28NbguSZIkSZIk1WeAXW336quvhil9mSozfpj+euutt05eeOGF5IADDki6d+9eXbvzPPzww2HKU6bB9Ua8JEnzB0aQp68h+DA199FHH52sueaayV577dX0VPYfdswklM7Xj3zkI8lyyy0XXnnDVO1508RLkiRJkiRJmp0BdrUdwXRGQKXfE8o7KHlXJe9P3WmnnapLO88777wTpnZdffXVk69//evVpZIkqatj6nfeZZ1+9z3vGycIzCtfsu/LV3ErrLBCCKLH98rzrnEeihw7dmx4rc5SSy0VlkuSJEmSJEmqzXewS5IkSZIkSZIkSZJUgCPYJUmSJEmSJEmSJEkqwAC7JEmSJEmSJEmSJEkFGGCXJEmSJEmSJEmSJKkAA+ySJEmSJEmSJEmSJBVggF2SJEmSJEmSJEmSpAIMsEuSJEmSJEmSJEmSVIABdkmSJEmSJEmSJEmSCjDALkmSJEmSJEmSJElSAQbYJUmSJEmSJEmSJEkqwAC7JEmSJEmSJEmSJEkFGGCXJEmSJEmSJEmSJKkAA+ySJEmSJEmSJEmSJBVggF2SJEmSJEmSJEmSpAIMsEuSJEmSJEmSJEmSVIABdkmSJEmSJEmSJEmSCjDAPg+dfPLJyVprrZX8+c9/ri5R2t13350stNBCyfjx46tLugbKi3Kj/Iqam2XdTPpq6aplEHXlNtTOclDn6Mr1R7V19X5JxdhHSpIkSZIkSZpfGWBvQqVSSc4888xwg3+ZZZZJHnjggepvlOfdd99NDjzwwJBfBEYkSZIkSZIkSZIkaX5kgL0Jb7zxRjJ58uTw/5deeimZOHFiCLqrHEevSfOeo4HVDvFBqq222ip59dVXq0vnP115VgNnXJAkSZIkSZKkrsEAexOefPLJ5I477gg3uwkm3HXXXcmUKVOqv1XWIosskvzkJz8JDyH069evulSSJEmSJEmSJEmS5i8G2Ev63//+l9x2223Jcsstl3zjG99Itthii+T+++8PQXdJkiRJkiRJkiRJ0oLLAHtJr7zySnLvvfcmffr0SVZaaaXkq1/9arLooosmv/71r0PwvRn//e9/k2uuuSbZfPPNw1TNq622WjJ69Ojk3//+d3WND/znP/8J62699dbJYostliyxxBLJbrvtFtKUnqb+yiuvDL8/+OCDk3feeae6dBa28e1vfztZccUVw+j7etjm97///fCu+d///vfVpbPw7nmWjxs3rrpklueffz6MVD/yyCPDsSE7tS3TUXOcjz76aHLCCSeE446fvKmqn3vuubA90sxx7bzzzskjjzxS/W0x1157bTJgwICwjbivr3zlK8moUaOSf/3rX9W1ysmma+DAgcl9991X6JUBzHpw9NFHhzTE9LCdwYMHJ7/5zW+SGTNmVNf8AMv4HcdP2fM3m266afKjH/0o1M1Gfvvb34Z8Hzp0aG79qoXjoay+9a1vhf3y4f9/+ctfqmt8IJtG8oX6essttyTTp0+vrjVL+jUB1NNzzjknpI/jOu2006prJeF3559/ftK3b9/wO9ahXj777LPVNWaXl0+0L9oO9T8tPUU69eD444/vqCM///nPq2vVls2bWA9uvvnmZNq0adW1ZhePh7JjPzE/2U667qSn3f7nP/85Rz/xwx/+MKyTVbSfIN/pw7DHHnuE7cYP+RIVTS+y68byv/DCCwtPHX7PPfcku+66a0dd4LPOOuskRx11VGhzZZWtP0XzLyrSLjl2ypHyzCuzvOm/Y928/PLLw2tJSAPb53PAAQckL7zwQkjPn/70p2TIkCEd/dA3v/nN3LbJupTZfvvt11HHyRPyhjxKS7eLRv0vaaYfu+CCC8IDaEsuuWT4Wz7p4y2zf8R8pT3FcqDepetmUY3qZSwfzkekMV334rT36fZIX8FMNrE9brvttsnrr78e8ouf89KY7u+y2B7nIuo5f0/+kE9s5+WXX26YtiIoR9pQ/Hv2deaZZyZvvvlmdY1ZihxnI62cq8q2/2x7jfviOurvf/97da38+sc+DjvssNC2SbMkSZIkSZIkFVJZQF100UWVXr16EQkJ//JzO0ycODFs84orrgg/v/baa5WBAwdWNt1008qLL74YlhU1cuTISrdu3Sorr7xy2Gb2M3To0Mrbb79dXbsS/n/YYYflrst2xo8fX5kxY0ZY9/3336+MGjUq/O7CCy/sWM6/rMf6l19+ecfyerLHDP5uzJgxYfnee+89WzrvvffesP30+hxr7969K0899VT4md/FtGc/8e8mT54cft5oo40qiy+++Bzr9enTp/L000+HdYsgDdltxA9l+Morr1TXrI9j4FiWX3753HT16NGjMmnSpOras2SPH3E72b/nQ/5NmDChuuYslOno0aPD7/L+hn0gbjf+HN1zzz1h+UEHHVR56623qkvri2VAHc3bL2Xw5JNPVtdunEbqJOtEMa3bbLNNpV+/frOtG9M/ZcqUyoABA2b7XfqTzdeyaYjHOHjw4ErPnj1nWzddh/Ok21P679KfbDlwPIMGDcpdN1t3pk2bVhkyZEhY3rdv39y/4VinT59e/Yty/QRpy1uPD/mCMumlDdGW8tbl0yg/o3r9Q9l2X7b+lMk/FG2XU6dOrfTv3z+UJ+WaxXrZtMS62b179zm2y4d2M2LEiNx+aPvtt6+8/PLL1S3Nqqv0KXnr8smeb8r0v7EdZ9fhE4+37P7J13gOq/UpWp+K1MtYPnm/Zzm/j+2RY91hhx1y14l1N7aftJhP2T6B5dn+L35Y/7777muYtkbuuuuuOfq3+KF90E6iIsdZT9E2USs/yrR/0nrIIYfkrssnvW3qX600Fc1HSZIkSZIkScICOYJ97Nixyf777x9G9YF/+ZnlrWCEOiOyevfunay33nph2Wc/+9kwAnTSpEnJQw89FJaVwSjiPn36JL/73e/CKKwZM2YkTz/9dLLNNtskP/7xj8NowIhRZBdffHGy5ZZbJg8++GBIz/vvvx/WWXnllZPhw4d3jDL/2Mc+lhx00EHJXnvtlZxyyilh5DIee+yxMHJzzz33DKMCGcHVCCP111133eSJJ57oGKX/1ltvhRFfa6+9dpgiPz2qjPR/4QtfSL785S9Xl8xp9913T5566qmQlyNHjgwjy+KH36Wx32OOOSZ56aWXQv4w2u7EE08M+/3Vr35VXauxESNGzLYftvWPf/wjOfzww8Podo6njE996lPJ9773vY50TZs2LYyGfO2118JI7Eaj/Hr27BlGgabTRB1gpDevIGBEXnpk4U033RRGPlLWlDllz36nTp0aRk0ycq8W6sURRxyRbLjhhsnpp5+edOvWrfqbYhiByHv0OTbSmS4DlpNucDznnXfebGmkzlBfqbfURY4ji/rJCNi//e1vYX32QXnxf7Z3/fXXh5GrjDjmmFlOnaNdZ915550hnxhpSV1k3VjWzNxA2Tz88MPVtT9w++23J/vuu29HeZKGbF3M4tUQtKfFF188+cUvfhHqAH/39ttvhzq16qqrVtechRH8jDq/9dZbkx/84Acd+Uk+MSMEdSKv7jArBKOCmXGCvOaYqK/0Hdddd104tqhMP0EeT548Ofz/iiuuCGmJH2ahKJte0sRxs4+4Lvt/8cUXk3PPPTf59Kc/HdZrhHxPp4UP26Pulmn37Lts/SmTf2ilXRZFmY8ePTqMZCYvGAFM2tn32WefHf5PHWC/5BN9/w033BBG60b0/fS1nLsoO9IZ85WyZZQ86c8q0v9SDyj7IUOGJP379w/HHsuN/mGRRRYpvX/qOv0FdZzzbnr9sufyIvWSPo56Tho5L3F+isfAcn4fka/MzhLbY946RdF2aIeMVKd/YqYKtsd22Q/XAvQvRdOWh30wcpxtk9eUIX/Lz+yT9sHy2I9HzR5nq22iTPunD+Zcuffee3e0gfS+yDtwzKxHmsjrWJ/os7n+4hrnIx9xUidJkiRJkiRJxSyQdxOZ8jRPreVFcfOWG82bbLJJmF4UBKj5uXv37mGa+OwN6ka4WU6wgiD9xz/+8bA9gnIEQwmCErQnEMCUrQRemY6eG9cEKbgZTCCdQBBTjROE40ZxxE1sAiMEu7l5TvCTKWa/9KUvhX+LBrs+//nPJ6uvvnqYcpjAIf7617+GnwkMsJ84XTBp5eb/F7/4xTB9fDucddZZ4fg4DvKH/e2yyy4hgM8UyXEa+rLY1rLLLpvss88+Ic/feOON6m+KIQhw6KGHdqSLIBJTOO+4447J448/HtJWFnWA9/rzfn/SE48tXf7UY8qcsme/BDvYL9Pc5iEtvCqAKXabCa6DbbOPz33uc+FnyoBgGtMG//GPfwxTFBOsIPhCPaR+xTRST6mvxx13XEg/bShbZmyftBH8SAc5mN534sSJIchEsC1O68s6PXr0SJZffvnqmrPQ/gjusD/qPOXKurGsmRp/hRVWCG01a8yYMSHYFMuzEY6X4BEP8BBkp9ypA6Bt9erVKzyEkUadYN/UGx7siPlJPq2//vohTwnwpqcJB/lM0HfjjTcOdYRjIvDIFM4EjQkmoZl+op6y6Y2vHeABER4+AvunLzjkkENCvW4W+2Yae6Z+jgHCRsrWn7L510q7LCP2gUsvvXT4eamllkoGDRoU/s8DELxOgfrNfskn+kfEqbjJK8oJtAvKjnSC9XmwhDpGWb/33nthedSO/rfs/mnHPCBAvp566qmhzNPrM613Ge2ul5tttlkI8sf22AoCxPSbPCTBA1tcS4DtrrnmmqHeZh/UKSvug3MdbZkyBPuibLfffvvwEMKUKVPC8qiZ4+ysNlGr/VNfePiDtsG1CvtJ74tzH3hYiHrAsXMOiPWJPpvrL/KZfUiSJEmSJElSEQtkgD2OXM+qtbwoRi3yblAC6p/4xCeqS5NklVVWCaM9GVnFiLB2IPhDIJz3nxJsILDN6F5uuBO8zmL0FQEPAl3c4I4I8hGgYMQuo825gU4whhvRRRGQ5W/ZNjeywYhj0rLRRht1jMBnv4xsJ+DK+u26Wf3Rj360+r8PcPOcY2D0GUH9Irghz6hVRizyflcC2QTceMiBhwUInLWKwCrlxvaKBOzJMwKA3/nOd8LIT0Zxc+OfMqLsGbUHjpO0k+ektyjqPO+bbSW4Xgvly7ESXKfcORbykPStscYa1bU+QF1kOcGe7PvfY9A4i/ZEuyLQWaTO0k6op4x4JZgWgy3xQwCf7ZG32cDgwgsvHNYpisAOI+Rpd6SvyN/G46FNxv2lPwTpyZsYGI1oA9n8YX2OhzYZg6LN9hO1lE0v75emnL/73e+Ghxl42IEHAJp5CIZtXnLJJSEoSNsgqEoQmdlC6MeygeA8zdSfMvnXbLssK68PjA9vMDqZskgjiExQ9plnngk/x7pKf0A6s+XIKF9GeJPnnG/S2tH/lt1/bMf0F+R3q9pZL0EfHQO0raL+0Ia4rij60FtZ1Gn2scEGG8x27QIe1uB8zbVNeiYMNHOc7WoTRds/fSAPZzDDAwF16hH1LNu/0SY4fq5Vdthhh/A+fmaooP0UeVhHkiRJkiRJktIWyAA7N9Lz1FpeBDf9GXkLgkrp4AA3bq+++uoQyOEmdTsQvGRKaEYIcqOYQCtBQQLC2VGxIB15AUoQtI0j9BgBVnb0H7gxzU1zgiTcqP/DH/4QHiogjQQG7rvvvjBalCmM+Zcb63mBmXbhWMtsn9FrZ5xxRrjpP2zYsOTKK68MIyrbEVTPYnQcGo1gJ4BEkJ/gAaM6CbSTj3kYoUxQoVb556EuEpygXvLARhxd3S6f/OQnw6hWpn4myE495ZhZRr3IKltmoM6BYCF1vJGYT42UeTCjlhhIYhQsQaoi4vE0QhsrIpufrfQTecqml5kuGGlPn8DU4EzTTwCMkbLMalDkuAh20T7pr6m/BNloG7SXssrWn7L510y7bDeC0VkEUdPpiXW1EcqHvrKRsm257P5jvvKQAyOhW9WOetlZ4kMQ1KHOEs9zefugTrfzXN1qmyjb/ilDXqfD63AYpU/wnPLmAZADDjig43zAMTJanwfNCN7zoAXXNTzcQb3gfGmgXZIkSZIkSVJRC2SA/cgjj6z+b3a1lhdBcCAG2OshaPvOO+9Uf2pe9iY1N4EJ4pEOghVZ3BjmvaN5eN/tzTffHG5EE2SO72Mvg9HAjCRkdDoj/wi0E7gHo98ItjKdPQFWRpa18jBDZ6DsmPKZhwt4VzbpZIQ5eRbfBd8uRQIm1JFRo0aF/GRacvKOMudBDsqSd+2mNSr/PLxnlhF9TD3M9LcElooEz4oioM47jMk7AuoE8Jlym3rLsWSR12WD2nEKbx7aKCLm00477RTKl7zM+8T3QrciHi/HGt9B3kg8HqZOzktX/DR693strfQTecqml2Bd3759kxtvvDEELXkQh+AXI5FpfzxI0qgOMMMB9Z/joJxoTwS++TvymgdSimq2/hTNv2baJeu1sx0WEevqhhtuGNKaLb/4KfJ+7WaU3X/MV0ZUF5mpoJF21MuyitYHHn4C+dJZ6u2DfG/nsTfTJtKaaf88QHPppZeGB/z4+8suuywEzS+66KLk2GOP7bgmYwYXZovhFTdcAzCVPVPIP/HEE2GmF/5WkiRJkiRJkopYIAPs3CjlxmoM8vIvP7O8WZMnT04effTR5Prrr58jKMCHUYR77713GC3cjhvlBFzZH1NwE7xmFB+j+QjIMt1rFtPXM5K4Z8+eswUOmSqVaXF5BzHT4jK6+KSTTgqB0TJ4vykBdgLrBEEIlsSb9ozgjdPEMwKbgGv8XRHcOCcPOxP5RmCFQDPBVx4Y+MxnPhMCL+3EyDjKjvyo9w56AgXkJTMLMIKSqacJLNV6z226/AkGFMF7bnm/MIF83pk8fPjw5KqrrmpbXhO0pLwZCUr9oN5R7tTbvDRSF1nO6MKiU9XHqa7JqyIPrsR84uGCZkY8l8EoYYJApK3oTAiMqqR90FaKBuXLaLafQF6QrZX0kham5j7ooINC8Is2wasqeJ1APaSbunLEEUeEd7yvtNJKYUaPMiPvo2brT9H8K9MueVCKh27SU/pHtMl2B3jTYttklC7H0Jk4juxDHGX3zzmPB8IIrrbrtStRkXpJ+pvtJ+ODVfF1KmlsM5s31B/6w/ialUaaSVvcBw/bZV8BwIwNPHDAww+cF1tVpk3kaaX9U8+43ttzzz1DkH3gwIGhvWbLgmnvOdatttoqvDLmuOOOC/t8/PHHq2tIkiRJkiRJUn0LZIAdcTQSN6L5t5XgOoEZAuzcgK410pl3p371q18NN2lrTfOdhxFe/E0M/vBOWEbZMaqOG8WM1iIIzI3jrbfeOgTyR4wYEYK43GhnJCSBc9YngME70SNunHPjmJvJTI3KSHOmRyVowTuViwScIvbP3zP6/Wc/+1nICwLUINDIaDFGhvMgAwEtbrI3QhCFfCNg38yN+DIIAIP3t8ZACnlNECDmSVmMgCOwGgMePLTAwws33HBDsuWWW3ZMFZ+H415sscXC/rmpH7fBVOsEfcjLtHT5MwKP46Ds499QJuecc0517Vnie80ZUUj9+PrXv54ceuihyc9//vPSARryh5Hp/B1pJXjNyECC6Ty8QQCEekrAgnrICESm9SWNrM+DJwT4ST91pdaDBFkEq3h//DXXXBOOkQAUaSAtjDo9++yzq2vOks4npgemLcV6TloYEXvhhRfOkVfNYMphXpOAs846K7x3n7RRr2gnzExA/qRxPLwvmPcEM3KS4E8czcyxUR9os2X6kLRm+okYzPzlL385x4M3ZdPLSHfyloeM4nrkB39HmRHUYn/18KAJwUC2GQNjbIvAG2XOe5OLaqX+FMm/Mu2SOk9bpC1cd911IS1sm7bF35J3nSXdNpnJhenS4wMTpIFzBdNyc3ykqxm0Bx4i4Phuu+22sN2o7P4pf6bv5txI/sV6QFumHAi+llGmXnLuYjl1PhuMLoK0cw7kYabYJ8R0M405207jgSPy5oILLggPgPGQFuL5ifbFdtBs2uI+fvrTn4aAcjwHkq/xnMWMNDyA16pmzlVpZds/50rqDedR8gysz8w0PJzBQ1A8aEMecv4jPW+++WZYjzSxDuuyz/QDBuPHjw/19sADD2y6TUiSJEmSJElagFXU0OOPP17p1atX5dhjj61Mnz69unROcb0999yz8tZbb1WX1jZy5EiinLmfbt26VcaPH1+ZMWNGde1K5e23364MHz680Prvv/9+ZdSoUZUePXpUJk2aFJYhLudvRo8eXfd4su69996wn+7du1ceeuih6tJZnnnmmUqfPn3Cdq+//vrq0g9wrL1796489dRT1SWVynvvvVc56qijZjsOPldccUX4/eTJk2f7OW3q1KmV/v37V4YMGVKZNm1adWltzz77bKVfv35z7IvPhhtuGI6JNBbBMXAsedviM2DAgMqUKVOqa8+SPX7K6eyzz879+549e1bWXnvtOfKrXvnziemP6csez3PPPVfZZptt5qgT9cQyqPUZOnRoSFdE/Tr33HNDPclbn7rHOlGttKaRVtKc3RbL+NtsPrF96natNPBJ769ePWuEYycPstvnQxnm1SvqxqBBg3L/Jn5IE6jb1HHqOnU+izSn10eZfgKvvfZabnriNsukl2PN+z2fovWuVnr49O3bN2ynaLtH2fpTNv+KtkuQT3lpqdXmWZ/f59XN+Lu8tpPXrkjzhAkTKosvvvhs+05/0vlab9+1+t/rrrtujnYX1ym7f+odfWneevTZ/Fu0zZaplw8++OAcZRTbH2kjjbXaI1jnkEMOme3v46fWueaee+4J5ZX3N+k6US9tjdTbR/acVeQ46ynaJvLqadn2H/vAvE+6vcZ95a3HJ3sui9tN70uSJEmSJEmSogV2BHs7TZ48OYyk+9rXvhZG6dXCaEmmm+U97ExJXATrjx07Nhk0aFAY3ditW7fwf0YA7rrrrmEEVcSoZ6YTv/rqq8NoNNblb1gvvf7Mcg2j5xgNx6hTRtZHjGZn2nDey33eeeeFYyuKEdlMZc6o3VVWWaW6dJY4TXzv3r3D9MlFMPJ9+PDhYYRejx6zppTnPbm8z7vdKJsJEyaE4ybP+JDPd955Z8j/OMK9DKbeP+200xJG9oPjHjNmTBiBztTa9VBOlA1pIt/AdtgeUwUztW0W5c9oQ0b8x/qCzTbbLIx+HDp0aPi5FvKYEYCMUvzmN78Z3ktfFCNAGXkay5Y0X3LJJeGd/qQron6RDl6lkK7T1Nebb745Oeqoo8I6ZWy88cZhdDXbY1scByNYJ02alOy4447VtT7A9tkPv2fmiphm/m7nnXcOec70+e3AsY8ePTqMhI77oTxoo9SDvHpF3eB3tNFtt922oxwp/2HDhoU2GetEM4r2ExGzD1BvY9tgfY6Bf1EmvZQ9UzOn1yNfqDuUB7MXNEJ6ePdy7Bdi/eF4GIm+2mqrVdcspmz9KZt/ZdolM3+Ql+QPyJt6bb6dSPPgwYPDCGDKI/ZbpJf0kNaRI0eGEcjNYjYLZoiI9YHjW3bZZcN5s+z+qXfMiJKuB7xSgz6b116UUaZeco5jhD3lB/bNlOcLL7xw+LkR0k994PybTXetcw2jx+kfGYkd84W/ZcT1+eefH0bEo5W0sQ9mTkj34+yr6DmrjDJtIqts+ydvOd/Qt7M++HffffcN7Sq2V/Jw3Lhxs9W99LY5x5FuSZIkSZIkSSpiIaLs1f9LkiRJkiRJkiRJkqQaHMEuSZIkSZIkSZIkSVIBBtglSZIkSZIkSZIkSSrAALskSZIkSZIkSZIkSQUYYJckSZIkSZIkSZIkqQAD7JIkSZIkSZIkSZIkFWCAXZIkSZIkSZIkSZKkAgywS5IkSZIkSZIkSZJUgAF2SZIkSZIkSZIkSZIKMMAuSZIkSZIkSZIkSVIBBtglSZIkSZIkSZIkSSrAALskSZIkSZIkSZIkSQUYYJckSZIkSZIkSZIkqQAD7JIkSZIkSZIkSZIkFWCAXZIkSZIkSZIkSZKkAgywS5IkSZIkSZIkSZJUgAF2SZIkSZIkSZIkSZIKMMAuSZIkSZIkSZIkSVIBBtglSZIkSZIkSZIkSSrAALskSZIkSZIkSZIkSQUYYJ+HTj755GSttdZK/vznP1eXKO3uu+9OFlpooWT8+PHVJWo36h51kLrYFXXlOvDuu+8mBx54YLLVVlslr776anWpVJ/1Zv7lOWnBYDlKkiRJkiRJapUB9iZUKpXkzDPPDDdol1lmmeSBBx6o/kZ5YkCJ/OLGtiRJkiRJkiRJkiTNjwywN+GNN95IJk+eHP7/0ksvJRMnTgxBd5XT1UdPSwsC25kWZAtC/e7Ksxo444IkSZIkSZIkzckAexOefPLJ5I477gg39LnpfNdddyVTpkyp/lZZiyyySPKTn/wkPITQr1+/6lJJkiRJkiRJkiRJmr8YYC/pf//7X3Lbbbclyy23XPKNb3wj2WKLLZL7778/BN0lSZIkSZIkSZIkSQsuA+wlvfLKK8m9996b9OnTJ1lppZWSr371q8miiy6a/PrXvw7B92b897//Ta655ppk8803D+8pX2211ZLRo0cn//73v6trfOA///lPWHfrrbdOFltssWSJJZZIdtttt5Cm9DT1V155Zfj9wQcfnLzzzjvVpbOwjW9/+9vJiiuuGEbf18M2v//974d3zf/+97+vLp2Fd8+zfNy4cdUlszz//PNhpPqRRx4Zjg2M9mcaX6bzxfjx48NxPvroo8kJJ5wQjjt++F3Wc889F7ZHmjmunXfeOXnkkUeqvy3m2muvTQYMGBC2Eff1la98JRk1alTyr3/9q7pWMeQLaf/Wt74VyoA0DRw4MIzUz5uuOH38Dz/8cEg/f7Peeuslf/3rX5N77rkn2XXXXUOexLSts846yVFHHRWOPaLsDjvssGT11VdPnnjiierS2VEebJs6WUY2jzme++67L/f1B6xL2mJ6SeuZZ56ZvPnmm9U1ZklPL0weM/NDrOfbbrtt8vrrr4f1ZsyYkfzmN78J+2Tf5Cl5W+ud/TH/99tvv47y7Nu3b3L++efPUd/ZBr+nXpGG448/vuNvfv7zn1fXqo+/o57E42Vf5557bvLyyy9X15gdaSAtm266aVg/Hg9pzuZnrBt/+tOfZssD0khaX3vtteqaH4j5RT2K9Y8+4ZZbbkmmT59eXat4O8tuj99TTvQ11Lm0bB/Euhwnfdbf//736lr1MePH0UcfHdpfTA/HO3jw4JAO0pOWLsNW+wKmuaY+Ui+pn1nZvgrN7r9svYnr055Yn7877rjjkn/+85/VNWaXV89ID/UgHls67Vm18iLmAX3VpZde2rF90vPDH/4wrEs9uOmmmzrqAflR67xVpn6VaQ+dUb8R1y/aH9WT7Ss5jr333ju5/fbbw76pZ7SDCy64IDy8t+SSS3YcQyyX9DT4lPk555zTsb3TTjstrFNvGnfygnWz6c/rR6l7nPNJ91NPPdUwbY1k8578zOur0Og4iyjSJmope42Q3Vc8tgsvvHC2cmhHnylJkiRJkiSpi6ksoC666KJKr169iGSFf/m5HSZOnBi2ecUVV4SfX3vttcrAgQMrm266aeXFF18My4oaOXJkpVu3bpWVV145bDP7GTp0aOXtt9+url0J/z/ssMNy12U748ePr8yYMSOs+/7771dGjRoVfnfhhRd2LOdf1mP9yy+/vGN5PdljBn83ZsyYsHzvvfeeLZ333ntv2H56fY61d+/elaeeeir8zO9i2rOf+HeTJ08OP2+00UaVxRdffI71+vTpU3n66afDukWQhuw24ocyfOWVV6pr1pfOw7xt8WFfafy86qqrVgYPHjzb38U8qZcf2eO84447wjbI/2z5xfrIh/83wr5Jw/LLL5+bxz169KhMmjSpuvYsd911V6Vnz55zrMtnwIABlSlTplTXrFSmTZtWGTJkSNjHDjvsMNu6/fv3r0ydOnW2ulrrk617EyZMyE0vn2y7ifWIvM+mO73dWp588slQBum/S3/icUQc/6BBg3LXzctP6kb37t0rG264Ye7fHHLIISEfI/Jr9OjRNesfeck6KNLOymyPdJCevPX4ZOt9LbHe5W2DdFC+ae3sCygryox6mc7XiGNI91VoZv9l6w3769evX+66bIftpdWrZ3xIM2La8+p6rbwgDyiHpZdeeo7t8jniiCMqe+21V+7vTj311Mr06dOrWypXv1CmPbS7foP/l+mP6iHvafN524h1rF5biOUS19lmm23mqCPkF+uwbrZORTGfYp1Ao36U7T3yyCMN01ZP2bxvdJyNtNom2Ef2b+Ine43A/1mWty6fuG3yqB19piRJkiRJkqSuZYEcwT527Nhk//33DyPgwL/8zPJWMEKdkVi9e/cOI4/x2c9+NoxinzRpUvLQQw+FZWUw2q9Pnz7J7373uzDKacaMGcnTTz+dbLPNNsmPf/zjMGosYvTvxRdfnGy55ZbJgw8+GNLz/vvvh3VWXnnlZPjw4R2jzD/2sY8lBx10ULLXXnslp5xySvLb3/42LH/sscfC6LQ999wzjM5jJFUjjNRfd911w4jpOEr/rbfeCqPm11577TBFPqPdItL/hS98Ifnyl79cXTKn3XffPYyOIy9HjhwZRtLFD79LY7/HHHNM8tJLL4X8YZT0iSeeGPb7q1/9qrpWYyNGjJhtP2zrH//4R3L44YeHkWscTxG8DoA8XHzxxZNf/OIXybRp08L23njjjeSqq65KunfvXl1zdn/5y1+SZ555JpkwYULy9ttvh79h5GvPnj3DMafTxoeRmqeffvocx8kIQ0ZfMiKPkcBpjDilnlB/Pve5z1WXNvapT30q+d73vteRxxwTo/BIA6MI40hz/v3Rj34URtT+4Ac/CGVBWvmZWRGuv/76sDw7KpRRksxmwIwJ/I6/ufXWW8PoQpZRR2kHtC/qdDz+vDZLHabO0AaZRSG9Pvu+/PLLZ2s3ESNG9913345j5G+ydS2LEYqjR48OZcBIYkYe83fsk2PiNRFpjMhkhC/HRlpIU1yftFLW6fyMSBPrUM7UjXQ/wMjH9CsoqDPnnXdeaPMcJ39Hu6RPoG8gLxlZjCLt7M477wwjRplRgH2yrdg2KFPSS70C6SA9jMDl96zHZ+rUqWGULG2iCPKB40inh3pBneb1G+wjOxsC2tUXNKvo/svWG479oosuCiOMyXPaE+uzfeoR+c5+Yr1hfZbT/zDzxd/+9reQHrbPjBgnnXRS8tGPfjSs2yzOTT169AjHRX/A9qnDtNOzzjorHBttLdZXjovfTZw4cbYR+mXqV1S0PbS7fqNsf1RLnJmGf3/5y1929Hv8S15tt912oYxoC5x7hgwZkvTv3z+0pXgMzIiyyCKLVLeYhPM4I6opb46DdTivNYNrBepyt27dQjmmz2M333xzsuyyyyZf+tKXCqctT5m+Kq2Z42xHmyhzjcD/WcZ1V+znSeuLL74YZqn49Kc/HdZrV58pSZIkSZIkqWtZIAPsTFWdp9byorg5ys33TTbZJEwhCgLU/ExQlSm5uclbBoEBAicE6T/+8Y+H7a266qrJEUccEW58E7Tnpi1TmxJ8Yjp6ggUEFz/ykY+EQDo3qplumanZCdRHTEXKDXSC3dx45mY30+hy05x/4w3gRj7/+c+HKckJEBPsADes+Zkb0uyHbYO0EvD44he/GKaPbweCORwfxxGnYd1ll11CAP+FF17omIa+LLZFEGGfffYJeU5goRFuohMo4KENguw77rhjR5DhM5/5TLLmmmsmSy+9dPg5i/TygARBoiJ5T4B8jz32CFPJxkB2XM42CKQTqIioezfccEMoq69//evVpcUQjDr00EM78phj4tUDHN/jjz8e8hkECwgek2esT1mA+k8Zbb/99iHwkA38b7bZZiE4tfHGG4d6HsU0U69PPfXUcKzUaXCcTA+cRh5w3KBOr7/++rOtTwCdhw9oi++9915YHo0ZMyYE1OIxFkFAlfLmAZ1jjz22o2zZJ3WGtpFGPrFv8oagTHzIgfVJK4Eq0p+efhzUjcsuu6yjbsR+gKmNCTYStAHHT/7T1mnDtH22TV9An0Awl7yknyrSLsh/Alz8LfnJPtlWbBtDhw5NVlhhhY7XDZCnpId84NhZjw8PSlBfeCVFs6gXW2yxRQg+0xbz0t9ZfUFRRfdftt7wgBL1goeeCNjFh3TYPnlK3k6ePDk8oIO4PvWF8xoBTNLD9ul7qRtMR9+KdJ2kP2D7PNxD38Lvrr766tA/xfrKMqYo5yGAOE182foVpfddrz00Unb/ZfujejgXErRmW1wvxH6PfzlPcB5fZZVVwrKieD0ID11R3hxHs9L9COcx+v/0eYypzDm3Nwqg19NKX9XMcXZGm4j1JO8aIdZxHgjiQUuQVq57DjnkkI6HaDqzz5QkSZIkSZI07yyQAfY4cj2r1vKiGPHFu7IJqH/iE5+oLk3CTXLeOc6Ivlrvyi2LkYMEwnnvJzf9CWwzIosb89wszmKEOUEJAnfp94z26tUrBAoYocdocwKfvMs0G+Cph0A/f8u2uVEMRpiRlo022qhjBD77ZWT7H//4x7B+DC62Km/UGTenOQYCGAQyiuCGPzfhGV3GCDeCeQQ+eMiBhwUIBDTCzXJGQZLXBAm4UV4UN98XXnjh6k9z4v3+l1xySbiZz2hBgjnc3Gd2BMotHTAmyEW+ExiifoCHHhilTSCDoFGrCGxRB8mbGFigDhJY2GCDDWZrA1hqqaVCudNGeBgljSBHDFSlUa+pV2ussUbI00Zi/tOWKbcYrIgfRgMyqpC8jPkSkfdlygscO3WeB2CKPBRB+6cfoM3F/aU/PLBA/pG+NOpGXtrigzwxmEMbo55y7ORZFu2d5TwIEf+mnpj/jNQlUJRNL0Eqjod+iCAYP/MAA6OzCQ6R15RFo3cb5+FvGO38ne98J9R3RqxSR+if2B+jQrPa1Rc0q+j+y9YbRnwzqjmv3yTIueGGG4bt8fASGP0aR4wT7O8MeXWS4yc97D/bvliXBwNIF79H2foVFW0PjZTdf9n+qB7yiYdqqAucbwgYc55kX4xgbgbBefKmVfSj9NH0I6QxL69b1Upf1cxxtqNNlLlG4F3xHMN3v/vd8KAGD3I8++yzczws0M4+U5IkSZIkSVLXsUAG2LnpmafW8iIIJjDSCgTJ0jfpGb3EaD5u1BNcbAeCLEsuuWQYFcmNWIJN3JjnZi/TeWeRjlo3pAlcxdFUjDgsMwovIqDKjWeCm9wM/8Mf/hAeKiCNPHBw3333JX//+99DoIh/uSHdaDrWVnCsZbbP1N1nnHFGeChg2LBhyZVXXhlGuxUJqqcRRCMfGKVGQLkduKlPeqif++yzTwiyE3gk0FMLAXQC6QTUCayzDUbMkj5Gkbcr72OgPo5gj/kVA11p1MGy+yUowsMDPDTCaMZGYv43Qh2lzFsVRwznPdSSp0jaUDRAmM1P+gLKggASbS+rbLuI+d9IDB4TQOXVFbx6gtGpO+ywQ5gxgQDzAQccUGhboG4TvCKwzshi6jt9SDPKHnO75e2/bL2J7YtgXJ7s9mM9q7V+ZyPYn37gJ8q24bL1q5Gy5Vx2/2X7o0Y4344bNy4EjJlNhhk8GMlMcJZp45sNtLcq9qO1+pF2aHdf1UirbaLsNQL9HjPScP3DdPm8goB900cyWj728e3qMyVJkiRJkiR1LQtkgP3II4+s/m92tZYXwc3bGGCvhxuyvH+3VfFGfwyoMzKXgC7p4OZ4FgHWWjfreW8u71TlRi83kOP72Mtg9B8j+hidzigtAu0E7sGoy09+8pNhOntuqBN4aeVhhs5A2TElLw8X8I5W0smobPIsvsO3CEYlLr/88qF8su/RbhYj+Hh/MOXLjXqCczxQEQM+BCGzCExwQ59jILBOwItXCAwYMKDlkZdpMVAYA+rMrIAYzEijDhYJkqXFes1oyryAXVbMf0b0kgb2mfchkMHI4lbF482OyK+FtIEpivPSFT/x/dBlxeOnb6BuZFGfy5RBzP+ddtop1KW8tPJJv2+ZqZIvvfTS8DANdZepvAky8Q5xpkNv1P/x+1GjRoW+hCn76Tc4Fh5iYl+0hbmBfrQdD2HkabbexPaWlS3TRuvnYXT23NZM/Wqnsvsv2x81wiwf3/rWt8IrVJi1gpH0TI3OTC+8k5uf24k2lJ1ZIE+jfqQd2t1XNdJMm0gre43AA2VMOX/jjTd2PHRIIJ1R+WyHB4fi8bXaZ0qSJEmSJEnqehbIAPt+++0XblzGIC//8jPLm8X7b5l+9Prrr8+9QU/wghvmjGLPCz6WRdCJ/TFFN8FrRtMxqo6gFNN0ZzF9/WOPPZb07NlztkAFU5EyhSnvJWUKU0aTnXTSSYXfYRsx6o7ALYF1gpfczI5BJEZzx2niGYXKjej4uyK4CU0edibyjZvgp5xySgi28MAA75rlJnkZTGHNlPnkQ9nR77VQnpQT793nHd0rrbRSmMGAEX71cCOf4DuB9auuuirUPUavZ6dubxYBIeohZRvfp08d5Ph5aCMbyGGGBYIMBL/J3yKo2zz4QVCkyOsVqNvULWaKoM53NtIG3qldJBjEqETqP22hXQ9gpMXjp28gTVnUI5YzQpJySstrZ7Ffufvuu+vOmJCHtNC37rnnniFgxPvD6YN42KMegm20H2bVYKQnr7fgYYj4jurOxgNLPDCSNwqb/GlH0K/ZekP7ydYbRgJT39lmnH0krk/7zL5uIIvRw6zL8WbLv91BzqxW6ldZ7ajfZfujoujLCdzzTnfeec4DOJyP6EfTOAbKpCzaIq8TefXVV0PwPitbxul+hDpURNm0tdJXNaNMm8jTyjUC9YxZCQ466KAQSOecyWt5smXRbJ8pSZIkSZIkqetZIAPsIJjOSCFuuPNvK8F1RhcRYCdwyA3cPLxnl/ftctO4zFTHjKLkb+IIJt7fyYgoRkBxI5YAKjd4uTG79dZbh0D+iBEjwk1kbnYzApPAOetzM5t3okcEPBktR1D46KOPDiPNeQ8swQPeEV1m1BT75+8Z/f6zn/0s5AU3n0FAl9FYjPriQQZGa3HDuRGCGeQbAfu8G/DtxAMC4H3m8aY3ec1N9ZgnRRAE5Fhx1llnhfeyUsfYFmXCwwsEFMoguEiAgXoTb7RTrgTeGQX34IMPhmVZ5N12220XZk0gOM97XtdZZ53qb8thtB4PDFCnOB4ewOBYbrjhhtne6U4wZKuttkp++tOfhvfUxrwk3XF9ZjYo+g5cjpvXD9AGzjnnnI7jp25SrzmuNNoC+6euMyMFU/TGgCRpp84ztS/toR3vuOWBFcqbYAizQFAu7If6QnCYtpBG4JZy4D27Bx98cAiexFHSpIf6Rptsdjr09PEz0pup1WOaeMBi+PDhoY8gzTFgXa+dpfsVpium74n9AttlJO+FF14Yyga0cfL28ccf73jXMOsxwpOAJEFEXplRD2lZbLHFQl6wnVjnCA4SnGIfnYl8YaQy+XXdddeFcollyvvgCX62qpV6Q98c2wHti1lHWJ/zS5z+Oq5Pe2MEbJzNgf3Qb1A3Yh2jjfHADuXPMZMOyo6+nNHV9B+dpWz9akY763fZ/qge6vOhhx4ayoj/Uz6gv6LuI/arzEjCgx+UDzOSUEZlcY6jv6H/o96wP0aPcw6p14/SH/GKm9hfvvnmm+GhrdiHNpu2ZvqqVpRpE3nKXiPQT1BH2A/7AOtTBuQ7AXrqZtk+k3XJO/6VJEmSJEmS1IVV1NDjjz9e6dWrV+XYY4+tTJ8+vbp0TnG9Pffcs/LWW29Vl9Y2cuRI7rjnfrp161YZP358ZcaMGdW1K5W33367Mnz48ELrv//++5VRo0ZVevToUZk0aVJYhricvxk9enTd48m69957w366d+9eeeihh6pLZ3nmmWcqffr0Cdu9/vrrq0s/wLH27t278tRTT1WXVCrvvfde5aijjprtOPhcccUV4feTJ0+e7ee0qVOnVvr3718ZMmRIZdq0adWltT377LOVfv36zbEvPhtuuGE4JtJYBOUwdOjQ3G2tvPLKIY+y28o7/ui1116rDBo0KHd7ffv2DWVY6zj/+c9/VjbffPOw7tixY6tLiyM9pCu73/gZMGBAZcqUKdW1Z7nnnntq/k12fdJM2ikryiwP6/N3edujbPg3XQeo4xMmTKgsvvjic6wfP+n8qlePGmFftCvKNLuPVVddtbLGGmvMcWwcT63yjB/SFNWrG3lppw2fe+65uWniQ/tmnahRO2Nd+oJa2+MT6zN/k/d7Pvx9ts/Kw+/PPvvs3G307Nmzsvbaa8+RH+3sC8D2aFedtf9m6s3TTz9d2XLLLedYnw9965NPPlldc5Z66/OJdYw+nvLNW6dW/1KvTvI7/jZuPy3Wj/TvytQvlG0P7azfKNsf1RLrRXYb8ZPtK6+77ro50hjLhbwgT9LpzKI+xHNw+kM/udFGG4X/Z8ulXj+SrhP10lZPo31k+6oix1lP0TaRV4/KXiPw/7x1+aSvu2KbyPuQL9k+M2632TyQJEmSJEmSNHcssCPY22ny5MlhRNvXvva1MJqrFkZQMTUoIwKZArkI1h87dmwyaNCgMKqyW7du4f+MFNt1113DSKaIUXqMfmS0GSPDWJe/Yb30+jPLNUwZzlSnjKJl5GPEaPZDDjkk2X///ZPzzjsvHFtRjLZjOud+/folq6yySnXpLHGa+N69e4fRm0Uw8p1RbIyg69Fj1pTyvNOUKY3bjbKZMGFCOG7yjA/5fOedd4b8j6PXiqAcRo8enZx99tkdx8qx8/5VRqvFUaZFMbqUdwDHfKBcKV/K+ZprrumYFjoPo98Ytc7+v/71r1eXlsdrBE477bQwSwE4rjFjxoQRxUy9m8YIdUb+MoI8Hj9/V2v9RlifmQ/Sx8/04ZQN7+rOoo4PHjw4jOwnDTHNlCnvpb/gggvCaEVGr7aKfe2yyy7JL3/5y2SzzTYLyzhm8ur222+frW1FHA/5QBskPaQLpHPYsGGhzVFezaINDx06NLyuIt1vUGcYLX3UUUeFdaJG7Yx1+RtGbjLTRyxT1t15551DuznssMPCMsqF/bI8bot/99133zAtfrbPysPv6ZfYbswH8oY8ZRtMm9zZmIGDMqJ8EMu0Xftvpt4w88cVV1wxRzuk7NgOM5qksT51jJkk4qwa1AWmn2a08HrrrReWcc6izz///PPDaz5Amor0L+1Qpn41o531G2X7o1ooC0Y4MxKZ9ESUFeeK8ePHz9ZX8hoXRtPHNkE6mfa93jVHGvWBdO+1114hzaSdkeu8SmPIkCHVtT5AvtAOqY+035h37J8R2+Rp7EObTRv7KNNXtapom8hT9hqB42KGinQfT75wTqKuxf23o8+UJEmSJEmS1PUsRJS9+n9JLeJdv0xJTDBr9913ry7tPEyJTBCAd8aeeOKJhYMxkiRJkiRJkiRJkspzBLvUBrxTlRHVjJzm3atrrbVW9Tedh2djmLngjTfeCKPoDK5LkiRJkiRJkiRJncsAu1TSu+++mxx44IFhWtf4WXjhhZMNNtgguffee8M0xJ097TKmTJmS3HLLLUn//v2TNdZYo7pUkiRJkiRJkiRJUmcxwC6VxEjxNddcM9loo43C+2TBO1W/+c1vJjfeeGNy+OGHz5XR5LzDlvf9b7fdduG98JIkSZIkSZIkSZI6l+9glyRJkiRJkiRJkiSpAEewS5IkSZIkSZIkSZJUgAF2SZIkSZIkSZIkSZIKMMAuSZIkSZIkSZIkSVIBBtglSZIkSZIkSZIkSSrAALskSZIkSZIkSZIkSQUYYJckSZIkSZIkSZIkqQAD7JIkSZIkSZIkSZIkFWCAXZIkSZIkSZIkSZKkAgywS5IkSZIkSZIkSZJUgAF2SZIkSZIkSZIkSZIKMMAuSZIkSZIkSZIkSVIBBtglSZIkSZIkSZIkSSrAALskSZIkSZIkSZIkSQUYYJckSZIkSZIkSZIkqQAD7JIkSZIkSZIkSZIkFWCAXZIkSZIkSZIkSZKkAgywz0Mnn3xystZaayV//vOfq0uUdvfddycLLbRQMn78+OqSD5933303OfDAA5OtttoqefXVV6tL6+vq9aorp480kTbSqK6nmfagrsH+fMEwv/aR06dPT6688sqkb9++oR6uuOKKybXXXlv9bdcyt8+Rts3a8spiXrUBz3/z3v/+97/khBNOSLbYYovkpZdeqi6VOoffST4cPAcrzXO9str5veCFF15IDjjggGSJJZYI/c5uu+2WvP7669Xfzntz+zvQh0lXL/tWzI/nUa/x2ue1115Ljj/++HB/h3rA97Rnnnmm+tvOU7befRjK/MPehxtgb0KlUknOPPPM0JiWWWaZ5IEHHqj+RnniFwXyi05IkiRpbuCajeD6rrvumtx///1h2fPPP59MmzYt/H9+F7/ccZ3F9Za6Fm6Qc6N8Qfiy+WGva6+88kpy7733JltvvXXyhS98obp0wbQg1VvV5vlDXRn32LjXRh3l3hvXcyqHG//kn0GcD49a/fqUKVOSgw46KLnoootCQAr8O2PGjPD/PF4LLBhqlf3UqVO7VPnOrbiB9Xr+U6tfe+edd5JjjjkmOeWUU8L9HfzrX/9K/v3vf8+VuqS5ryt/dzHA3oQ33ngjmTx5cvg/IxgmTpzoBX8TOJlxUvOCXyrnw/5kmNojfonhC8b8Okqiqx+DbXXeo15wg7F///6hHLiRxDXb7rvvXl1D85P4pcrRfl3Hh6Wfe/zxx5Mnnngi+epXvxrqYFdj22jdgvbddEG4ztOHE9dp3G+Ls4Xcfvvt1uEu5sP8HWd+PFf8+te/Tm666abkJz/5SXjImDZ26623hhHNZXm9Mfe10t5qlf3iiy9eXWN2Xa1tz4/tzeuvueORRx4JAymGDx+evPnmm6Fus+xLX/pSdQ1p7jHA3oQnn3wyueOOO0IHT4d51113hafClG+RRRYJJ3M6u379+lWXSpIkdS6ezn/xxReTgQMHhi9bXTEw1gquq7i+4jqL6y11Ldy45CYWX/Z79uxZXTp/+jDXtf/85z/Jr371q2TzzTdPevXqVV264FqQ6q1q8/yhroqABEH1vfbaKznqqKNCQO/RRx+t/lZF8TApbXzEiBHVJVrQ5fXr/PyXv/wl2XTTTZPtttuucH/vtcD8r17Zd7XyJW1zI25gvZ7/1Lpe/dvf/hZmFRs8eHCy2GKLVZcag1qQdeXvLgbYS+L9e7fddluy3HLLJd/4xjfC+x2YcpSguyRJkroObtI+9thjyaKLLlpdIknl/POf/wzf9zbZZJOkW7du1aWSpM5AMJ2g+sYbb5zsvPPO4RqOQS3ci5NUznvvvRcGhH3iE58IH314WPZakDEt/Kc+9SnrtroEA+wlxffv9enTJ1lppZXCNIFc8DPtSrMX/P/973+Ta665JoyKYGTVaqutlowePTq8NyKLERSsy/v/eEKHp6922223kCae4oiYJoPfH3zwweG9FGls49vf/nay4oorhi8q9bDN73//++H9V7///e+rS2eJ78UaN25cdcksdHI8VXLkkUeGY0N2mhmmE+I4+fJ0wgknhOOOn7yphp577rmwPdLMcfFFiyfOyrj22muTAQMGhG3EfX3lK19JRo0aFd7TUVR6ihry9pxzzgnHwvZOO+206lqz3gdy/vnnh6cF+R1l9a1vfSscc7qsItJAWuK2+vbtm5x77rnJyy+/XF2jnDL1iilzf/Ob34R8JZ3kMXXslltuSaZPn15da5ayx89xxP1Tl5599tnqGrPLpoG/Ie0cA3U2LV2fHn744fA3pHm99dZL/vrXv1bXqo38pxwoj3i8jG68+eaba76XN5bPOuusE9JGPaJOUjfT0vmTLVOO584776xb/nH7/M1xxx0XbupGBIqYNYM2Q/rjdvlkpx8qU/+y68byv/DCCwtPaXTPPfeEdxyn08SxMOogm0dFlG0PRfvGKK++cfw/+tGPQj+PetOfxbLIvvsl1k3q5aWXXtqRpxzHD3/4w7AuaWWarphW6lLRtsm2GrWLP/3pT+FvqNNx+8cff3zHO7dAPaX/u+CCC8JDY0suuWTYNp/0McW2st9++3X0nZQF9YV6kxXTG/cd6x15WRb1hvoT6wD733vvvcOIFo69yDGkp+eiTjH7TOwTt9122zD1ZL3puyh71s2mPy9fqO/0caQ7vtOsSFutJ5sH7IP3UDIFVlqj43z99dera9ZWpE3UUrb9F+1zsu06pon28ve//726Vm2UH9dp2GOPPTrSlq7jZfqOdJ9APtOuYvlz3dWO66Uo25by2jHS55ysvPMA5cu5PR5/GmXVyrVWuh5y7iJfYz1M94FZRcuAY8wrTz5F+ph2n6eKSOdJum6n61LZfI/5VSRvmzmH1Lq2yta1eB5s1M+Vuf5utg4V7b/KntMirt3eeuutsG5W0X1n1yNvqfONrrWz10PkR/ZaskjbKFP/21Vv09t5+umnw/mLfbIN8pJ+k2Mn79PXTGuuuWZy8cUXz1FHkdev5V3flq1LHBPL2U6R76ZZ9c4PP//5z8M6zda/tKLtqcg1Ur3zR6x3sbzIm+z3kij2HUWuPyPqT71rvCKa7Vv4Xa3rpKL1q5HseY1tsc161y9lzgXZ/KOcsteHpLed93HKlG8ruKfGPSoGtNA+Vl111fDv7373u6bui2Svp2KZnnfeeeHndPtOtwnqQvY+x9tvv52ceuqpIfAfy5XtMTI077ya3l62fEnPfffdV7NexTpU5BxYS7pfSsvWc9JDXS3y3b/Iub9IeyNN/BzPUWl5fVN6m51xfVC0PyHd7K/RuSJvv6Q3r54glgl1nXXZR717Z7Vk847yoK7lnQvy8j4tneexXrDdVq7FUfZYs/0p+Vn2Pk+tvM9um3Ub9dVZ6TyP587YLtjv3Lr/l9Wo7LPl28q+2n2+IU9RtL1FZa9N08eU7i/LnI+zSHuj66+0MnWmXdcoRc8BMU+uuOKKsA/2xT7jfpkdIYt0sG7Z+4f1+uhsvxbLMK+uxnqRrUtRs+nLXkMU7e/ylLkeKHK9h9h+8+oY8vIjna/N1MMifTgP+Bx99NGhTbAuH46bWQfIV/I3Ld0OSVP2+1S2LqSVaR9F20ApM3eyQLrooosqvXr1IgfDv/zcDhMnTgzbnNnBhJ9nfqGozGwMlZmFUnnxxRfDsqJGjhxZ6datW2XllVcO28x+hg4dWpl5EV9duxL+f9hhh+Wuy3ZmVsDKzMoZ1n3//fcrMxtH+N3MCtKxnH9Zj/Uvv/zyjuX1ZI8Z/N2YMWPC8plfhmdL58wLnbD99Poca+/evStPPfVU+JnfxbRnP/HvJk+eHH7eaKONKosvvvgc6/Xp06fy9NNPh3WLIA3ZbcQPZTiz866uWR/HwLFss802lZkXBLNth31gZidSGTRo0Gy/i58ePXpUJk2aFNaLnnzyyXA8eevz6d+/f2Xq1KnVtesrW6+oKzMvIMPf5K1PPWKdqOjxz/yCMtvv0p90XUDZNLCfmV+2KzM75dn+JrvdPOk2kN5H+hOPI2Kb2WONH8qN8oti/qy99tqVnj17zrE+5U/dTiu6feoAdSFvvXQdKVP/qPfU/7x1+aTbcT312nTZtlq2PZTpG9GovsXyj31QXh7EshgyZEhl2rRp1aUftL+ll156ju3yOeKIIyp77bVX7u9OPfXUyvTp06tbaq5ddO/evbLhhhvmrn/IIYd0pDXW07z14jGRZxMmTMjtf/nk9SXxvFPrU7Q+kffU1bxtxHZe5Bj48H/W22GHHWZbh/L7xz/+EX6frVNRrNfpNtsoX9ge22Wbeb+vta+su+66K7cP4UP/SjuPGh1no/0VbRMxz7N9ZJn2X7TP4Zios3nr8MmmIU+tdMX6UbbviH0C555s2bCvdl0vFW3HqFUm9c4DfGKdjsfUjmutWA9puzO/cM2xLT7Us3Q/V6YMOMa89fik22gtteoDn7zjZH/kLXkc1crvWmKeZNth2XxvJm+bOYfUu7bKHns8D6a3GT/p461Xbtnr7844zpjesue0iGW03WHDhlXee++96tJZiu67bFnEvC56LVkvj+N6Zep/u+stx513XcTyE044obLtttvO8Ts+6b4RZa5vy9alevmTTUeemDe1zg9l61+tvqZoe4p/n7ce+UL+1NoHy4t+7wF/X+a8RV5RLnnrkh72X0TRvECsD2y/1nVSmfpVD/sqev1Stk2hzPXhvLguaRX31Li3FutpOr0cTxn0q2W+m8Q2Ues+R73zHp/s+Slub/nll88t31b7rUZi/UofY6vf/Yuc+4u0N/bDz6QxK69vaiZvip6jwf/z1uGT7k9iuvM+Me/KnvNps2XundWTzbt65ZWX92kxz2OZoV4+Ndoeyh5rme8JKJP3HF+r3zUR83xe3v/L06jss+Xbyr4wv8QN8uo1ym6nllgfsn/Ph/2y/2bqTLuuUcqcA2KeEFvIa1PZa8Ky17pF++iYX/HnWIZ5fxPTn61LaCZ9Za4h6onHUPR6AGWu92L7jXUsKy8/mq2HZfrwuI+8dSl3yiMt1rla36fi9mJdiMq0j1avg2pZIEewjx07Ntl///3DU7bgX35meSt4mpYnLGYWZhjNgc9+9rPhCb6ZhZU89NBDYVkZjFic2SmFJ3J5em5mgw9P+M+8qE9+/OMfhyeeIp785Gn+LbfcMnnwwQdDemY2+LDOzA4vGT58eMfTYh/72MeSgw46KLy36pRTTkl++9vfhuVMk8qTJXvuuWd4SoYnNRphpP66666bPPHEEx2j9BnFwRODMxtimDKRp2oi0s97ML785S9Xl8yJ90HNbBghL2c2jPA0SfzwuzT2e8wxx4SRhuQPT+qceOKJYb+8D7Eo3j2V3g/b+sc//pEcfvjh4YlVjqcM8pSncHjvB/nCNtnHzIv68AQt73X5wQ9+kPBUN7+jrHh6b2YnEZ6GTj8pP/OkEo6HJxZ5Mjuuz5M2vIqgrDL1iifxeIKbOsRy9svxUMeoa9QfRttm1Tp+/s/2rr/++vC0EE8xsX+WU09oi1k8GcUTSDzRTDpZN5YPsy2QX4ymSuNpuWeeeSaZ2SGHp8nZP8dC/tYz8wIgtIGZJ7XkF7/4RRixzt+yDeoBT8mnUdd5Up20XH755R37Il8ZdcS0S7z/I/s0LKO9eJo95g/74Wko6gNPycanNPm7iy66KDypxbHyxCrbp55Tf0gv9Z36whNY1CvaDG2HNsS6fFjO78vWP+o9x03/EdclvbyzmBHjn/70p8N6jcR3vKU/bO/0008v1VabaQ9l+kZQn6lv6TpPfZt5URKelOPptVbQ/maexMMxU+5sm7ynTZ511lnh2GJd4nccF7+b+aVktpEZzbQL+kmOh33H7ce2T72jPoF6QNnPvABLZl6IhWOP5RbfZ8P5grrG+Y70s91YrtQtjiHdlzDahP6CY+FcmV6/zPmXthHbyC9/+cvQRtgO/5JXtKuPfvSjhY4h4u/YHmmM26ON0A+URV3inDTzgjDkQexD3njjjTALxrLLLhu226it1kP75Kld+gPymv6Av+Vnyp7+leXZfqfWcTbaX6ttokz7L9rnUFepBzO/jIc6T3rSaSpSdqRr5kV6+P/MC+WOtMX6UbbviBhht++++3Zcl7BN9tWu66Wi7bgWyp76wTmOEauch9gG2+TcdNJJJ4U2lNauay0wIoGn9WM9JC/IA/qG6667LpRnVKYMuMbIK08+/fo1fr9au85T7VQ238vkbWdfWxW5JkEz199ljrNo/1X2nBZxXCxnevjsFIRF993stXbRa8kibaOd9b9sveW6aIMNNgjfHeKxsx79OGXCtQ/5EsuaPpbrKJbF2X3KXt9GResS+VP0u2k9tc4Pzda/rKLtqcw1Uhp5VPR7SVrR8xZ1tsg1XhHN9C21rpM+85nPNFW/8jRz/VK0TZW9Puwq1yVlkFburW200UahnnK/ivtt3bt3D9+9Y79XBOWc/W4Sy4LyrqXWfY543uPn+GGb5OPXvva1Oc5P0Uc+8pFwPRPLN92Xt9JvNYPttPLdv+i5H81+L6mnM64PULQ/KXKuKHP9xe/K3jsrg7wm/XnngiLXzllFrjdqaeZYy35XK5P3zfTV9cyr+3+1lC37VvaFBSVu0Op2ylx/Fa0zzV4D52nmHMAyfhfXT+cJxxSvOcpe6zZ7D4o8ZL95dTVbL9Lm1f3NNKa0/973vtfweqDs9V4ritZDfle2D6du8j04lg8f0sz1HDMVsX2OLavW96k88yoGkrVABtiZLiFPreVFcdKlgXGDhSkKwAU/P3PBzzTxZSs3nQEdE18aPv7xj4ftEeA74ogjws17gvYUNFM8UAEXXXTR0AHRIXChTiCdiw2mXOBik4BqRGfEiYGTFpWMSs0UGl/60pfCv0Urzec///lk9dVXDzfd+EIFGiA/c4HFftg2SCud2xe/+MUwDUw7EJDi+DiOOHXDLrvsEk7EL7zwQqkvWWlsi0DIPvvsE/Kc4EgZhx12WLgpxcmAsohIE3Xh0EMPDRfkn/vc58Jyymr99dcPJ1ouFOPUHJzA6cTpjI499thk6aWXDstZn3SR/2UVrVd0JHRC1B3qBHWJ/XI81DECnNQ56n02n2sdP1MpESjkCzcnozidB+tws2z55ZevrjkLbYYTK/ujnpJO1o3lM3To0GSFFVYIeZpG+XOxzX6K1mWOl7zmoRuC7DvuuGPHBQ7b6NWrVzjhpVGf6dzJCzr0uC/ylQsmHmLh4phyT2PKFwLFMX/YD8FhTs6sG6dt4UREfeCBFzp4+hJQz3nFA9Nf8SWGG95FlK1/8cYlJzceGALppf0ecsghTT3gEbFvpg5j2pV4QdBI2fZQtm9Mr885IdZ56htfGshv6nYrqJuXXXZZqJvxxhBT+Xz9618Pv7v66qtDvlCX+B3LmM6HE34sj1baRdx33D5/y5RLXJxw0VAEZUU9Afun7pBPoFy52GHaIPbPQyak94Ybbgj5ygMplHl6faYNKoq+iYs6tkX/QVsD/zJtLOW8yiqrhGVFbbbZZuEimCkd4/aake4z6UPoE2Ifws1ZphXivBiXNYsv1uyH8xNtOX65oH+gTm+//fbhwnDKlClhedTMcXZWm6jV/ov2OdQr6ix9AO2e9KTTRP/Yimauq6IxY8aELzbxuiRq1/VSq+04nlf4e8qU8xDb4NjYH+f7vn1nn+q6ndda9A2cn2M9JF8599HP8UWML81opQzapZnzVDuVzfeiedvKOaTstVVZMQ31rr+bqUP1+q+y57SIv+MamC/m2TZTZt/NXmsXvZZsVrP1v9l6S8AsHjtly4fz1o033hjyJZb1hhtumGyxxRZhasi4rbLXt1HRutQueeeHZutfEUXaUxnNfi8pet7qjGu8qEhe1LpOarZ+5Wnm+qVomyp7fdhVrkuK4jjpV2mj9AMRfTABIV51UXRftb6bxLLgu1ktte5z5GGbPEA0ePDgcI2b1y/TxpniNZYvfTl1gXsRjz/+eCjjtM7stzrzu39Wu75/pRXNm6Ln6FpYr5m+tez1V9l7Z/OzsseaLsMi3xPK5n27v2vOq/t/XUW7zjfNatd32XZ+J26kaJ3h/+26RmnmHPDd7343+eY3v9mxX/KEfdIf//GPfwxTape91m21jy6rbPpqXUPE9cvc30zj/iHl2Oh6oNn7gc0oWg/bdb7i3M33PPbBuTWvTdW635anbPvorOugBTLAHkeuZ9VaXhRPxnFRnx3BwJdALvh5eoenSdqBykkgnHcO0LA5QfE0CV88OQll8aQYHT4VJlZ+EDCkM+ApPZ4ao/Hx/ihOfkURkOVv2TYXIOCpXtLCjRIaHRc17Jcn1OhgWT9W6lblPcVOh8sx8AWdk3MRdKhczPBECiO6aNB0CASjOelzcVZGvKDPog5QF8j3hRdeOHQG6Q8dJw2am0Zg3+QrwfDOupkZZesVZcZxkwdrrLFGda0PUH9YTuceO6Go0fFzYVuknlG3qVs8EUYHl80vOnm2R5rTHS/7Jn/L4ETJk5K0FdLH9huJ5XPAAQeEfabTxs98WeaYs09dUW+z26d8qXPkJU9ZgVE7PN2d12Y4sXFzgf1zAVpE2frH+0soZy6a+NLBlxK+nDZz4cg2L7nkknARwMMHXHTwZYZRCPQ95H8jZdtD2b6RPoN+gPWp950h1pM06gPlyZd+2l4a63KhRD2INwVaaRf8Pot6h2w7riW2Fc6b5FN2/zzRzVN/lHk8R5Fe+gvyuxXkExdC1AX6am5wcY7hWHl6sRlcXMUL4laQLzxsR56Qxry8bgfqNGXFDbvsiMmllloq9Bdcj5CWtGaOs11tomj7L9rnUMf5ksPFPl86qG/Ux/Q1Tiuava5C7Fuz2nW91Go7ph+hP2F/fCkpol3XWmBbHEMax0OZki+xLrRSBs1qx3mqncrme5m8bfYcUvbaqpFmrr+LHmfR/ov1y5zTIr70c5OT9pu9pi26b+pus9fa5APpS8u7liyqXfW/HfWWcxUPtZI/2f1y3uNcR5ridVHZ69uoaF1ql7zzQ7P1L0+7v89mNfu9hDzOHjey5612XuM1kxe1rpOarV95qFtlr1+Ktqmy14dd5bqkKILnpJ90pYMuPMRK3aOM/vCHP1SX1tfKd5Na9zlAv8vD9YxAY5QsgV5ufPPeU0bHFX13J30592Woq9ngbWf2W+387t9IM99LGimaN0XP0VG7+tay119l753Nz8oea9nvCWXzvpm+uh7qJvtJmxv3/7qKBSVu0K7tFFG0zrTzGqVd5wDKjXMY5zzKs+y1btk+ulVl09fKNURZedcDzd4PbEbZelj2fEWbJzD/ne98J3z/ZIYgrg2ITdIfM4o8K+/7VC1l20dnXQflXzXO58ioPLWWF0EDY2QBKJx0YfHEAyMSKVAqeDvQWTH1UXxahApHxaOCZ0fYgnTU+hJA5Y1PYDBKoZknbWjUdH50SFRMvtjwUAFp5IGD++67LzzNwsUC/9Jh5Z2Y2oVjLbN9OoQzzjgjdN7Dhg1LrrzyyvAES6s3IfKQT0WQj4hPJuZdNLZbtl7x4f/cgGd5Vtl8Rjx+nhilXjbCjTNuoDXSjouZeBLnCzsnpSKKPDla9Isu+ZHNT/IfXODnaTb/G4n1j6dMeQqcdsw0O9woIC0EfBlpFderhy+ktCn62H322SfcvOUEygVJWWXbQ9m+Mda3Wut3tlp1hScj09rdLsrWo9hWGqF+0L/G9FJu2WNpBueqcePGhRtczMTCzSueLudiiClFmw20tyrmS60+s13iuYl6mpXXj7Si1TZRtv0X7XP4mVeaMEsIT+/usMMO4W+5mOeBpyLto55Wrqvq6czrpaLrxbZb67xSVDPXAPVkt9VZZZCnneepztZMvmfXn5vXVvW0+/q71nE26r/KntMiHlAmkMLNgGb33e5r7WbOAXOj/jfbX/BqoOx1EdvhJnNakfJDketWNJPWZjVb/7LmxvfZdn8vyVu/Hdd47c6Ldtavdl2/5LWpZq4Pu8J1SVGkjXtqTPX5yU9+MhxT/DDCCvRd9KuNtPu7CcgjAnE8CM7rdrgpS8CoaL+TxWhaxHbXSDvyux3f/buibN6U+X7Tzv6k7PVX7HuK3jubn5U91mbv8zQS876zv2uCNGbrZrvPs13J/B43qKVd2ykir8608xqlXecAztF8t4kPlpW91i3TR7dDs+lr5zVEPdnrgWau99qpXj0sc77iuyYPrPFdmpkDuIajH2insu2js66D2nPXqouJF99ZtZYXQYHFAHs9XIhxo6BV2c6Gp2kICJIOOoYsbpzU+jL6wAMPhPfCUlm4cOQpsrJ4ApCndnjKjCc7OGESuAdPztC5Mu04nQE3SVp5mKEzUHZMK8TDBbyTlHTyZBB5xpOBnNjbJU6LwTQnlEutT3x/BKPK0Y4njxrJ1ituXpFelvG7LPKn7I3XePxcMBUR6/ZOO+0UyiQvr/jQ8WVvtpUVj5djLfJ+GsTy4T0jeemKHy4cmxHzq1Ygv9n8L1r/ODEy7emNN94YTiRcBPNFgyf1aDOcBBulgVFXvMuGcqScOBa+EPF35DUn06LKtoeyfWOj9fPw9OLcNjfbRZ7YVniCmrzK2zcfvozyRG9ML+VW5GGTRnhKk/f6MI0YTxryJDrT6PJ0LO9J4+d24iG6RqPG0KjPbJfYDsj7LPK9bL9QTzNtIq1s+y/T53Dxfumll4Yv4eznsssuCxfCvLeOV0i0cr1Vtu8oqitcLzU6r3QVnVUGedp5npofzOtzSNTZ199F+6+y5zRQN0g/13d8Ec8qu+92XmuXtSDU/9ivFb2+7UqaqX955sb32Ubnj3bU1XZc47U7L9pdvzrr+qWZ68P55T4OQXNuvDbCvawi1zexj27XdxPylnePUt8IyDG7CfWX/p+8533UZfA3jFZD3g30ztKO7/7tVO/82Yqi52i0sz8pe/0V+56i987mZ2WPtVEZko+UUVQ279GZ3zVrmRvn2Xllfo8bdFXtvEZp1zmANhkfkuABirLXumX66HZoNn3tuoZoJPYH8Xqg2fuB5CUPCHSGsn04/eeoUaNCf8B077R9vndy35Vj4LtpO5RtH511HbRABtj322+/cEKMnTX/8jPLm8UFNNO41AqyEYDhCyFP3OY1gLKoeOyPaSI4CfHEDE/OUDGZKiKL6et5coj3U8WLBTD9BdMe8I4EnrDlCSOeti37niyeKudEyQmSDocKHBs8o4HjdC88iUIHG39XBBWXPOxM5BsNh/dEcMHFiZ+pxmhY7cYTj+QB+VEkiMuDD+Dd0519MZWtV9QVyopl7D+L+sNybiwy5U8RzOjAhSp1pcgFaazbjBDq7JFkccpJ0lb0iWTSxrHzTo8iAbiyYn2hU8/WF240MCsGdYQvfGl8mchrN2XrXxplweiRgw46KHzRoF0zeosbXvXQJ1FXeMc/7zdZaaWVwmwJ6SeKiyrbHsr2jen18+p8GheK5CWjzrN5Tf53Znudm+2C40h/OUXsG6h/5GEj9CeUHReGTNHTLtQh2izvPOKd51w00Zfz4Fha3jEUwXEyPW6c2iorW8bpPpP+tIhabbWe2O9wnNl+hyf56S/4csC5rFVl2kSeVtp/0T6HfOdabs899ww3PnhnHe06Tj/XjLJ9R1Gdeb1UVDwPUEfjVFhdUStlULb/bed5an4wN88hqNXPUbadef1dtP+KfXfRcxq4ocK1H9NaUleyyu67ndfa9eS1jQWh/rdyfVsWedjO76bN1L88zbanMtdIzX4vaUbRa7w87e5bOqt+UfbtvH6hzyl7fdgVrkuK4DsEwXP6qXjzNfvhfd70ZUVGPzFDAvcl2vXdhPt97Jv6yrSmPHxF/c1enxTV7uv5ZnAea+a7f9TMd5woBhHy2gLbbOZ7XVrRczRa6Vuzx1/2+qvsvbOupOy1eLP3CSmfIt8TyuZ9Wrv76nqaPc+20t7KanZf83vcoN3KXH/V01nXKK2cA3hI4sEHHwxtmjhT2WvdMn10O5RNX2fd38zD/Rru25D/tBOQN2Wu9xhAyXmVPiv7QADtpmx/nadsH04wnXWZUZuR4bzWg4cXuD5rp1baRyttIGvBvKs0E8F0nkCjIvFvK8F1Kg4BdiovhZaH9xMwVVTRC/6Ip0v4m1g5mfOfpyh4aoITPCMKuLCjM9h6663Dhf2IESNC46Oj5skUAuesT2fBTaCIRsfT4Lzb4Oijjw5PjPGeMzoI3k1Q5gKO/fP3fOn52c9+FvKCi04QtOQpP5725EEGGhyVtBE6LPKNE29nd6ic6ME7BmNDIa/pzGOetAudGu/y4f0dBx98cLgwi08QccHEPimXWE+4ICT/uJBjpgHWpWxJE50Q+V1W0XrFZ6uttgp1h6eHeGo87p+HRYYPHx7qHOkr2gly/Ouss05yzTXXhLRzzLRDRu7wJNDZZ59dXXOWdN1mKibSGdNNWrjBeeGFFybnnHNOWNYKpjiJI83POuus8NQ4aSN/qNs8VcUN0DRueJJHTFXHU6yUS7xIIs30DTzEEp9ALytdX2iX8SKeesqME+QhfUt6CinaF/WKv8mebMvWP25mkbc8GBTXIz/4O8qMEzZttR5Okpz82WZMP9viixBlzoVXUWXbQ9m+Mb0+74ChT2Bd6gFBVrYf6xrHxA1o+ijaA9uNdYWRN8xY0lnmRrugPXAhxrHddtttHfUa6b6B2V+YQiderLAe5xemzyN/qVfkFVOC0e+QplgPSDPlwM2yoiiHQw89NLnhhhvC/ykbsH/qL+IUSvWOoSjOD9R3jod2l+6vsulO5wvtiNfDcPx48803k1tuuaUjT1CvrdYT+52f/vSnCe8CjOct8pWH5Mgbngbny0yryrSJPGXbf9E+h2sK8vLxxx8PvwfrM5KELznc1OQiv1ll+46i2G67r5fKiucB6gnnrfiUdiwXzvdlrlU7SzNlEL/sMo1wmYdF23memh/MjXNIVK+f6+zr76L9V9lzGrj5wjpbbrll+DmrmX2361o7T722sSDU/7LXt83orO+mzdS/PGXbUzPXSM18LymjzDVePe3uW9pZvzrz+qWZ68N5cV0yfvz4UO95L3m9Op1G3sYAdq2+kBFH3Mvg+3c8p9XCe9Hj/Tn64liXSQ/f4SijMkgTfSmBO/rMWD+4/uea5YILLgg/5yEQwcP9tEHqPNdlXJ9RXpttttlcDbC347s/mv2OE3FOor5dddVVHfdk4vdGZghg260oeo5G2f6k3rmi7PUXfU+Ze2ddQbPX4mWPNZ2XZe/zFMn7zv6uWUsz59lW21sZreyrM843nXVt1pnacY8qrZ3XKM2cA+gD+R3tlWNhf0cddVS4d841SXwgqcy1bpk+uh3Kpq+d9zfTstcD9KHx+o3vnPEauOz1HtcojLqnzl133XXhGNgHZUf+Uu6tKtuH0265FqO+0M/GY6Z8CWbTF7RD2fZRtg1QJ6g//FvPAhtgbycynUrKyaDexW+84GeKIZ6ALIKLSZ6O48RCgXHS2X777cMJ/fjjjw+NKqLC8IWUGzPrr79+6LR5gT/vC2B9Ts48EQIqCR0GT17wJCYVDgQXeTKD6Q/4lHmKhYcLmE6Qp2t4V1oaJ1FOkHQW5ANpa4SOgA6BvOUpN46fD1/I2o3j5kMexc6fvOaY+JJU5MReFNvlgYZBgwYlEyZMCO9yopzYJydZ9kk6Yt7zVB8XgOQtZc+65B9PLDFjQpGbDFll6hVP6xBYpuMl8B73Tzny9CcdETMgFEUHSh2jc+e4OGZGKHARzrRqHG8W2+eimTSQzphu0sL6jLaJJ5RW8aWdJ1M5KTKSn7TFiz1ObqQzjQArHSn1h6A85UL+kD5OulzQt3LRxL45Pk6mXFDzxBrbpp4SUKasOIGmR0+xTy4MuClLx8/6nHw5UZWtf1wgHH744WE0U1yPbQwYMCD8ftdddw0XP/XEkz/v9IzpZ1urrLJK6A/Jp6KaaQ9l+kbE9el7vva1r4V1qQeMWGfamFjXeBLu//7v/8J69FVsN9YVnsajDDpTZ7cLLsI4FtAmYr2ON8PIM6b04Xy27777hjbN71mPGxHUjfSXauoc9YYvTLEekGbKgTSXQR/GtigTyoZtsX/aAsspQzQ6hiK+/vWvhycV2TbtLvZXHDvTBGXFPpM6yjHTrtgnX8CpL+k8qddW66G9c9HOF2vaczxvka+cu8kDllMf26Fom8hTtv0X7XO4yKUP5PqA38ft8kWdBycpb250tqJs31FUu6+XyiK/4nmFa0HymvKM5XLiiSe25SnmdihbBrQJbjpxPuCanHrBh+uVetp5nppfzK1rq3r93Ny4/i7af5U5p3H+oE5ybojfofIU3Xe7r7Xz1GsbC0L9p96Uub5tRmd+Ny17TZWnbHtq5hopff4o+r2krKLXePW0u29pZ/3qzOuXZq8PSf+8vC5phGtDguZ8T19vvfWqS+dEf0y/TL/GA0L1kC+77LJLyJP0dxPKk/eB0h+XkQ4GMBor1g+u/wkI18P+STt5S53nuozrM9LGzeC5meft+O6PZr/jRNQ5zofpezK02/i9MXtPphlFz9Fl+5NG54oy11/N3Dub15q9Fm/mWMt+TyiT93Pju2Ye9lX2PNtqeyuj1X21+3wzN+MG7dKOe1Rp1Jl2XaM0cw6gXtJOaa8cC/uj7x46dGg4z0Zlr3WL9tHtUjZ97by/GWWvB+hD4/Vb+nqg7PUef0f/l+5fWcZ9dB424jtfq8r24fSf9B08iEG/Go+Z8mUmIAYDt0PZ9tGu66AsA+wFcLHPUys0+FjZ88QLfp6IZRqEIlifqa6oCFRSbnDwfwJ2FCoFHfH0Bx0bI+aopKzL37Been2eCLnqqqtCYJ0GysVPRAU+5JBDkv333z80AI6tKAJbdEhcfGYbJ42cY6HiMgK1CCowJ21uKnECBydZGlu7UTY0NI6bPONDPt95550h/+lM24nAHE/kUA50vuwPXFAMGzYs5Dv5BcqMkxJPgPIEM8hDOpzbb799tvIrqky9ok5wYuQCOb0+dYwRxDyZVrbj40KK42F7bIvy5eTAU2k77rhjda0PsH32w++ZbSLWIf5u5513DmV32GGHhWWtoh2NHj06PF0V90O+064os7y6wHrkBScy1uWYQH3lgQXeucaFYrP4W7ZBmVNHwD5pH+QjD+6k0Q75Uh7rC/nEiTOe5MvUP8r+sssum2099s1TfZRHvDCsh5M/77KKbTnWH/KUp9vKTCPZTHso2jdGrM+XFp6CjXUe7I/RB+QJ6O/pL88///xwMY9YV8oeVzPmRrvgIownuWN9YB9Mmc6xk2eDBw8OozSoD7Fukl/UF/KK0Xjx4oN6xwVjuh5wA4p+lgvZotg+TxTyYAttLKIu0gb5MsW+onrHUATtj3RzcyzdXzF6kS+/WZQL51bqIxfmrA/2zygH2m3Mk0ZttR6+SPL0KXkfy54yGDNmTGjf6TxoVdE2kads+y/a51B3OC9R12Me8y95zvRP2XbdjLJ9R1Htvl5qBvWacwBPPMc85dj4ks9Nqno3sOemsmVAfaMNxOs51qee8m897TxPzS/m1rVVvX5ublx/F+2/ypzTuDHL6JvtttsubL+WovumLPh/O6+1s+q1jQWl/pe5vm1GZ343LXtNlaeZ9tTMNVLZ7yVlkOYy13i1dEbf0q761dnXL81cH3aF65J6CJYTnOPY6pU/fS7fBXlIg1d4NMK20t9NQL9I30efWBYBO/I+nu/IL8qh1neGaJ999gl1PuYv+V2mvrdT0evwRlr5jgP6Os6f3LPkbzkvxe+Nc/v6oGx/0uhcUfb6q+y9s3mt2WtxlD1WyrDM94QyeT83vmvW0u77f+3U6r7m57hBO7V6jyqLc0U7rlGaOQccc8wxoZ3G/Kdu0CYZCZz+nlT2WrdoH90uZdOXvYag/2nm/mYas99m232t67ey13sEsVnOsYC/YV/0ZwzAbIcyfTj5zX1T+t1YN0l/u9OEMu2jXddBWQtViMZKkiRJkvQhN27cuHBDhRsCPN0uSVqwENxmJBavdyIQ1BkY/czNfG46M6pWkqT5BQ++8VAbD4MwolxSbY5glyRJkiR96PE+XUZS8PqQvNfSSJLmX0wLTR/P+0IZzcT0q5IkSVKzDLBLkiRJkj70GHHI1IFMT9jsNI6SpHmPdwYzrTTTlMYP0w3zLnXeAcw7RNvxrm9JkiR9eBlglyRJkiR96G2wwQbJc8891/HuSUnS/Ilg+vrrrz/b+/55zybv4+QdqjvttFN1qSRJktQc38EuSZIkSZIkSZIkSVIBjmCXJEmSJEmSJEmSJKkAA+ySJEmSJEmSJEmSJBVggF2SJEmSJEmSJEmSpAIMsEuSJEmSJEmSJEmSVIABdkmSJEmSJEmSJEmSCjDALkmSJEmSJEmSJElSAQbYJUmSJEmSJEmSJEkqwAC7JEmSJEmSJEmSJEkFGGCXJEmSJEmSJEmSJKkAA+ySJEmSJEmSJEmSJBVggF2SJEmSJEmSJEmSpAIMsEuSJEmSJEmSJEmSVIABdkmSJEmSJEmSJEmSCjDALkmSJEmSJEmSJElSAQbYJUmSJEmSJEmSJEkqwAC7JEmSJEmSJEmSJEkFGGCXJEmSJEmSJEmSJKkAA+ySJEmSJEmSJEmSJBVggF2SJEmSJEmSJEmSpAIMsEuSJEmSJEmSJEmSVIABdkmSJEmSJEmSJEmSCjDALkmSJEmSJEmSJElSAQbYJUmSJEmSJEmSJEkqwAC7JEmSJEmSJEmSJEkFGGCXJEmSJEmSJEmSJKkAA+ySJEmSJEmSJEmSJBVggF2SJEmSJEmSJEmSpAIMsEuSJEmSJEmSJEmSVIABdkmSJEmSJEmSJEmSCjDALkmSJEmSJEmSJElSAQbYJUmSJEmSJEmSJEkqwAC7JEmSJEmSJEmSJEkFGGCXJEmSJEmSJEmSJKkAA+ySJEmSJEmSJEmSJBVggF2SJEmSJEmSJEmSpALaHmB/9913kwMPPDDZaqutkldffbW6VF3N3XffnSy00ELJ+PHjq0s+HP785z8na621VnLyySdXl8x9L7zwQnLAAQckSyyxRCiD3XbbLXn99dervy2mVjv7sJarJEmSJEmSJEmSNDfUDLATtCN4R7Cu6IfgnqTapkyZkhx00EHJRRddlLz22mthGf/OmDEj/H9BEIP/9glzT+yveXiEh0gkSZIkSZIkSZLUOZwiXguUrj6Dwq9//evkpptuSn7yk58k06ZNSyqVSnLrrbeG0eySJEmSJEmSJEmSuraaAXYCfgT+CADGDwHBIUOGJL17906eeuqp2X7Hp1+/ftW/lpRFG/nLX/6SbLrppsl2222XLLLIItXfLFg4Lh4gsE+Ye2J//cgjjyQ9e/asLpUkSZIkSZIkSVK7OYJdmkvee++9MEX8Jz7xifCRJEmSJEmSJEmSNH/p1AD7f/7zn+Saa65JNt988/A+5tVWWy354Q9/GKbxzuId1L/5zW+SnXfeOYzGZH3+jr9nO0Xdc889ya677hr2Fd8Nv8466yRHHXVU8txzz1XXmiU9nfi//vWv5I477uhI67bbbpu8/vrr4R3S/Dx+/PiwzvHHH5+suOKKYdnPf/7z6paSsG32EffLPs8888zkzTffrK4xawTz97///WSZZZZJfv/731eXzvLAAw+E5ePGjasumeX5558Po4CPPPLI5L///W9YFvN16623ThZbbLGwP0ZFjx49Ovn73/8e1imDtLN9jovtUQaMhM269tprkwEDBnQcP5+vfOUryahRo0LeRE888USy+uqrh7zNK+t33nkn2WeffZItttgieemll6pLZy0///zzw7GwberBt771reTRRx8NedcI754mPRdccEFy2223JUsuuWRHOvPSQppJeywzyv7OO+/M3VeraWO6+oEDB+amLf2e8iL1qFlzs46efPLJc7wPPN2WitY5xLzv27dv+HvST7kNGzas1DvH4/4vv/zyZPLkycluu+0WypHPAQcckLzwwgvh+P/0pz+FmTpi2r75zW+GmQeyWJfy32+//TraBGkkraQ5jQcrjj766FA/WY8PfzN48ODQ72XfwV82r2q9GiGWA8fEfqiDbINt0Ze99tpr1TVnl20bHBd1Za+99sp9/QJlwH58B7wkSZIkSZIkSVrgVUqYNm1aZciQIZXevXtXnnrqqerS2cV1evToUenbty+Rxzk+o0ePrkyfPr36F5XK+++/H5Z169Ytd/1Ro0aFdYq44oorcrfBp0+fPpWnn366uubsx7PDDjvMtm7//v0rU6dOrUyePDn8PHjw4ErPnj1nW4d94a677prjd/EzYMCAypQpU8J6mDhxYlge/xYzZsyojBkzJizfe++9K2+//Xb1N5XKvffeG/Ilrk+aDznkkNn2kf6MHDkyrNdIPK6NNtqosvjii8+xnWxegW1n14ufgQMHVl555ZWw3nvvvVcZNmxYpVevXpXHH388LEu7//77K927dw/HzLGDPBo0aFDutqlLkyZNCuvVQ52kLPO2QTmTd3GdtddeO7fM2Bd5k9aOtFGXqFN524j7K1OPYt2N9TSK5ZquX5ibdRTUlWw/0UydI12kL7tu/NTri7Li/ql72e3w2WabbSojRozITdv2229fefnll6tbmpUfEyZMyF2Xz9ChQ2fLo3p1k7xjW2ll86pWfaAcON4NN9xwjm3woS/hb9OefPLJsP289flk94F4fGXKQ5IkSZIkSZIkaX7UaSPYGdXKKN277rorjLj+3//+l9x7771Jnz59kuuuuy75xz/+UV0zCaOGGWnJqPGnn346rMuITtb59re/nZxzzjnJww8/XF27vt133z2MLE1/GKV5+umnJ/fff3/yq1/9qrrmBxiFysjbmFb+hvcZM7I1uv3225N99903jLgmbazDvhjl/qMf/Sj55z//mfzgBz8Io4H5HT+T9uuvvz4sj6PwV1pppWTdddcNo7w5Trz11lshb9Zee+2QRkasRuTHF77wheTLX/5y+PnJJ58Mo9f33nvvkD+khc/UqVPDaNfFF188rFcU6TjmmGM6jov0n3jiibl5NWLEiI485RPL6PDDDw+j2zkGMP359ttvH343ceLEsCzi7yZPnpwsuuiiHbMFTJ8+PcxsQJ6TV5QX673//vth1HTPnj1DHSCv62E90jBkyJCkf//+IU9iWnknePqd53/961/De9D/9re/hXKYNm1acuGFF4Z9k79xJHa70kZdIo/y0sbo77L1qIy5XUcbKVrn2Pd5550X0sdsAc8++2xYn7yn/Pbcc8/qmuVwnMz28PLLL4d8eOWVV5L9998/uemmm5Kzzz47/D+2Lcr7oIMOSm644YbQT0SPPfZYMnLkyGS99dYL9YA0sS3WJy8ZJc9MBRH1hFHnrBM/pOOWW25JlltuuVDnyIesMu2zFv6W9LH+22+/HbZDmW2zzTZhv/QpESPvyRu2f9xxx3XkEWllRgPqriRJkiRJkiRJ0odZpwXYCZ5efPHFycYbb5x8/OMfTz7ykY+E4DrTCxMoI8AIAjcEtghUEZhaddVVw7oEXpdddtlk6NChyQorrJD8+te/Dus343Of+1yyxx57hOm9Y3AxbbPNNkvGjh3bkdY8Y8aMCcFIAomkLSI4RfCVKc8PPfTQMP0yunfvHqaEJtBMYHLKlClh+ec///kwfTpTThPsAsFCfiaAzd/H6Z8JMD711FPJF7/4xTA1N3iPNwGzpZdeOmyLtPAhgMuU1wcffHBYr6izzjorpDMeF/vfZZddQrCUKbNjoDlPLCOOnXJ74403qr9JwvTj1IHf/e53swWfyQeCigSVOS6wH8qX/CNYT3nhYx/7WLL++uuHoDTT97dz6mmm3CaQuPLKK4f6RvD9G9/4RqijpCdOJz+30la2HpUxt+toI0XrHK874AENAsGnnHJKxzTs5D37o841I+6fNoSllloqGTRoUPg/D1OcdtppoV6zL8qbtIFAPOg/KHPQZ1EPSBNYnwdxqPvUG9prLfQ1vCaBekfbyWtrrbTPiHUvu+yykI+f/vSnw3bIO6aapy958cUXq2vOCujzYAAPGRx77LEdeURae/XqFcogT3yAgA//lyRJkiRJkiRJWlB1WoD9ox/9aAhcphHYIaBJUCcGngjgEZzk/cCM5GSd9If1GU3JO4GLBJNAIOySSy4JAUVGXPIeYQJmkyZNCkHEbNCL4FgMkNWy8MILh/RkMQL63//+d7LBBhuEkdtpBO4Y8ct74RkRi27duoVlHDP5gN/+9rfJmmuumWy00UYhwEtQmgAvo4b/+Mc/hvVjYJf8IHhHcJiAOqOieb9y3rvOi6CcsgjWE2RlVHccwQwCi4xcPvfcc8N77gkOEnDr3bt3CL4ya0FEejkeApHp2Qcef/zxsIzR4wT7wEhqyvjUU0/tyOf0Z8cddwx5HAOc7cBxZ8uT9HA87IuR65hbaStbj8qY23W0kaJ1LuY9D9/wu3bJ2/+nPvWp8C8Pg2TrxWc/+9kQkH7mmWfCz/QfjACn3VH3s3WCWSRol9SJOCsAyC8eGPjOd74T+iXex06/Q0Cf/o3R71ll2mct8YGlrBgsp25EtGPK/Ktf/WpH+5QkSZIkSZIkSdIHOi3AXks2YMRI9iKjcosEkwgAX3nllWGk5T777BOC7AS02jnyOSsGlfNGdhLUyguQEegkUE2QjuDWH/7whzCimyn1N9lkk+S+++4Lo3eZnpl/CeLF7TDq+Mc//nGy1157hVHJO+ywQxhtTMDtgAMOaGqEcxYBuWy6CTifccYZIcg6bNiwkM8EytNB9awtt9wyPDTBSF7KjmAj01TzgADBxSg93Xg96UBgZ8grr7mVtmbqUVFzu442I6/OxbwnuJ0XIO4MccR+Gg8lxAA86IuK1AvyLT6oQR/EAykE1hn1Tr9EHjYjL6+akbeN+BBBnF1CkiRJkiRJkiRJs5vrAfYsRnsyinannXYK0yQTJM/7ZN+hnYepsHkvMttjfYJFjAoluEsgvzPeH9yjR4/wb17AjXTnPRRA0Jlpmxn5y3T5BDFjwJmRwJ/85CeThx56KEwBzWhZHhhII+B46aWXhuAmx8z0zwQ9L7roojCtM+9RbjfeT8978pkN4Be/+EVIG+XF+5yZIpwAa9Yqq6wSgoq8Y58gLHnEdrbeeusw5XW0/PLLh3/PPPPMOco9/eGd93Pb3EpbM/WoqHlRR9sh5j11pyuhHyJtG264YcjTdD1If3gAhtHmtMdRo0aFvOQ1E+Qb/REPnLAefVZXEetKMzMlSJIkSZIkSZIkfRjM8wD7oosuGkZL3n333S2PNGcqbKZtPuKII8K7sVdaaaUwbXV2qvp2Iu1Mqf3AAw/MNh00mPaZkb8E4ghYRrzXmOAlQUuCcATrYmCL91jHKbgZ4UrgOv4ui0Afgc0999wzBNkHDhyYPPbYYx3TercTwUFG5PIubB6G4Hg+85nP1B1ZzMhf3u/NQwBMQT558uQw+pcR7Om/Y/Q9x5l9X3srCBoT/G9VZ6QtTzP1qKh5WUdbwRTlzNhAGjrjoZFm0e44Xur073//++rS2gimcwy8a/2EE05I1l133RB4573mXQ3T4YN3sbfyUIckSZIkSZIkSdKCap4H2AlWMaKZqZmZ4vzGG2/sCKYxvTIjKS+88MLknHPOCcvqIWhFIJGgXwwysw0C70zL/OCDD4Zl7cT07FtttVXy05/+NLybnHdSg/2fdNJJyQ033BBG/qZHbHPMjALmvdY/+9nPQnCTYDUISjManVHijEhntDoPIUQsZyQ57zKP76TnGBlFzjurGb0fg2TtRMAVvMc+HiP7J/B++umnd0wtnbXOOuuEgDrT9ZNHTDOenX6aqctZh/dWH3zwweEhgTi1Nu+tZh/HHXdcoSm1mfaa6bx5d/dtt93WcpC9nWmrp5l6VNTcrqPtsvLKK4d3gV9zzTUhDeQ3I75fffXV5LzzzkvGjx9fXXPu4uEQ8pMg+5FHHplcfPHFHQ9fUN94aIFXKNBOSTMPCiy22GKhrtBuWSceBzNRkI9dBa+AoI3ywM7NN98c6jrpZaaCMWPG1EwrD0ettdZa4dOZr+SQJEmSJEmSJEma1+Z5gB3bbLNNMmLEiBCkZcQzwTqCWAsvvHAYOcto9BgUrCcGEgnmMso2boOpypmanOB7uzFCnhHzBAOPPvrojlHd7J93pQ8YMCAsJyiZxqhfpq9/5ZVXko033ri6dBYCmwQtCWr17dt3tnclE9RmFCyji9lmPEYCoIwUZzQ7Dxq0G0E3PqeeemrHMbJ/joOAWq0AK8F+gqS8r51ZCrbbbrsQcExjO+TRoEGDkgkTJoQgH8fEPgiWsw/2W2RELaOCCf6CvCDv2M6BBx4Ygp1ltTNt9TRbj4qY23W0XUg3DzXwGgkeviG/mY2C98DTBpgNYV5hFDrTvjOrw7777hvSSJ6SDzyMsuuuuyYvvvhiWJf2SL/06KOPhnbKOvE4TjvttORjH/tYWK8r4KGBoUOHhnKnL6auk94VVlgh1JVm6p8kSZIkSZIkSdKCpEsE2AkwHXXUUWF09H777Zf07NkzLCfYs/POO4fA5mGHHRaW1UNAjnevM6KYvyWgTmDr6quvDqNgeX94Z2D073XXXRdGs8a0E4BkxCcjVJlmPIuAFUE6gtY8AJAWp+AmwBm3FzHN9PXXXx/yhWME/xLkY8puAnsE+tqNkdyUw/777x+CiXwIOvN+9bFjx3aMcM8iLbz7nqnsGQke3+OdRR6RV1dddVWy7bbbhu2DfBw2bFiYXp48KYIHNpj1IK5PHi677LJNB4HbmbZ6mqlHRc3NOtpOBPZ/+ctfhrpGeybv99lnn1Dv6CvmFer14MGDw6wY5Cl5CdJHHbngggvCu9WZCYB1eVCA9hPrCesTXKfN8mqHroK07rLLLiHPN9tss7CM/oUHNHhIhqC7JEmSJEmSJEnSh9lCFeYqlqT5CLMREPR9/vnnk8svvzyMBlfn4l3yzApBwP2ss84KDw9IkiRJkiRJkiR92HSJEeySVBTvO+cd7LyXff311w8zV6jz8AwW092ffvrpya233hry3OC6JEmSJEmSJEn6sHIEu6Qui/f28w7/PExdf8kll8wxfb1aM378+GSPPfao/jQ7psU/99xzk6WWWqq6RJIkSZIkSZIk6cPFEeySuiymfued4On3vG+yySbJGWeckVx77bUG1zsB797nXetMBQ/efb/VVlslY8eOTcaNG2dwXZIkSZIkSZIkfag5gl2SJEmSJEmSJEmSpAIcwS5JkiRJkiRJkiRJUgEG2CVJkiRJkiRJkiRJKsAAuyRJkiRJkiRJkiRJBRhglyRJkiRJkiRJkiSpAAPskiRJkiRJkiRJkiQVYIBdkiRJkiRJkiRJkqQCDLBLkiRJkiRJkiRJklSAAXZJkiRJkiRJkiRJkgowwC5JkiRJkiRJkiRJUgEG2CVJkiRJkiRJkiRJKsAAuyRJkiRJkiRJkiRJBRhglyRJkiRJkiRJkiSpAAPskiRJkiRJkiRJkiQVYIBdkiRJkiRJkiRJkqQCDLBLkiRJkiRJkiRJklSAAXZJkiRJkiRJkiRJkgowwC5JkiRJkiRJkiRJUgEG2CVJkiRJkiRJkiRJKsAAuyRJkiRJkiRJkiRJBRhglyRJkiRJkiRJkiSpAAPskiRJkiRJkiRJkiQVYIBdkiRJkiRJkiRJkqQCDLBLkiRJkiRJkiRJklSAAXZJkiRJkiRJkiRJkgowwC5JkiRJkiRJkiRJUgEG2CVJkiRJkiRJkiRJKsAAuyRJkiRJkiRJkiRJBRhglyRJkiRJkiRJkiSpAAPskiRJkiRJkiRJkiQVYIBdkiRJkiRJkiRJkqQCDLBLkiRJkiRJkiRJklSAAXZJkiRJkiRJkiRJkgowwC5JkiRJkiRJkiRJUgEG2CVJkiRJkiRJkiRJKsAAuyRJkiRJkiRJkiRJBRhgn4dOPvnkZK211kr+/Oc/V5fUd/fddycLLbRQMn78+OoSad6yTs495nV7fVj6X+vNgq1sPV5QWK/VinfffTc58MADk6222ip59dVXq0slSZIkSZKk4gywN6FSqSRnnnlmuLm7zDLLJA888ED1N/owiTdoqQfc7Nf8a34tSwIDBAg+jAG2rqAz8z8GEKmX1M/5lf3k/I8gNuVHMF+SJEmSJEmSZIC9KW+88UYyefLk8P+XXnopmThxYgi6S6qPICTBSAM10oebfUHXYVnMyRHyH7B+SJIkSZIkSXMywN6EJ598MrnjjjvCzUZGL951113JlClTqr/Vh8UiiyyS/OQnPwkPV/Tr16+6VPOj+bUsl1hiieTWW29NHnnkkaRnz57VpZpbOjP/qYfUR+ol9XN+ZT85/9t9991D+Y0YMaK6RJIkSZIkSZI+3Aywl/S///0vue2225Llllsu+cY3vpFsscUWyf333x+C7pIkSZIkSZIkSZL0/+2dCdwVVf3/x9LMzEpTc0dNQ/JfaqiQhLkl8nNBVMRdXElSzC2XwBI3JHFfUsRSIdxQ1LREcyVxLS1DQ0XLDZUQDXHBuP/7Ptzv4zzDzNxz5s59eHj4vF+vecEz98zMOd/zPd+zfM8iOi5ysAfy9ttvR5MnT466desWrbPOOtEPfvCD6Mtf/nL0pz/9yTnfi/DJJ59E48ePj7bbbju3JekGG2wQjRgxIvrvf/9bC5GNnQGcdU4vq+zTzgeeN29edP/990d77rmnW4XJd/k+8fj4449roerzyCOPRHvvvbeLM+/g+t73vhcdd9xx0SuvvFIL9Rnx+PzlL39x3//KV74SbbrpptGLL77YalvWd955JxoyZEi09tpru3s33HBD7S2RezffsO/yTc7Ff++992oh5p+Vf8YZZ7hz8p966qna3flwbj73R48eXbszn3/9619uleWxxx7r8qUeWfJNxo80DBgwILrnnnu85FskX0nvM888Ex166KEtMuP7Rx99tNNZ8txIC9u9e/fo8ssvjz744INaqM8wfenbt6/LL3Tm4IMPDjpTmTwlPnz31FNPdd+0K74Nb1I3+V7v3r2jP/zhD9Gnn35aC5XPP/7xj+jb3/52pvxI40EHHeQmyHDMAzSSl0Xya/bs2dFZZ50Vbbnlli6NvJv07rzzzt7l0M635tvEAfgG34rLN3nF8y1UF7JgF48TTjgh+v73v9/yHd7Xv39/l59x/auHyevvf/+7l23M2865Xt40Yn/T5G8gO2S41VZbufeSt+g0epwWjySWj8jCiH/vjTfeWCDeF110Ue670WVsG/mCzhEfVt+nkRZ/yjy6gs4Y8Thhs9ndxeK00047Re++++4C+u9jC0L1Ka4DIekkzsOHD3d1iH2DssD74vbGVx55+MgKkjaQ3wnnaxdCbItPXuSVL5+6GBrV3SzMfpEXpNHy5YUXXqiF+AxfW4e+0raD/fbbz4WzC1kgB/5/++23uzDGyy+/7N6HHOPtQWTRr18/d8XlEprPITpoZe65555z37C6m3TTrpo5c2YtZD719MPsVLLNRPxpe8TrWOP8889foF1WRr1vpMkVmV1yySWuDZ9HaJuWdJJfxNXKGt+iDvn3v/9dCxXWPoM0u4SM0+KQLIOEDWlvCiGEEEIIIYQQQoiCVDooo0aNqnTp0oURR/cvf5fBxIkT3TvHjBnj/p45c2alb9++la222qry+uuvu3u+DBs2rLLccstV1l13XffO5DVo0KDK7Nmza6ErlUmTJrn79m2YMWNGpVevXpWBAwdW5syZU7v7GXxjo402qjz//PO1O5XK3LlzKyNGjHDfTn6Ta/jw4S6MD8Ql7R1c3bp1q0ydOrUWcj7EZ/3116/079+/1fctjpZGfu/cuXPL71yW7gcffHCB3+zq06dPZfr06S4cJPML5s2bVxk5cqS7P2DAgFYynjx5sotXPHweafIlDZ06dWoVL7uSYbMokq/jxo3LzFPexTuB9BN2hRVWSA2b1Dt0AZ1IC2uXj7zydMWeL0s3P/roo8rgwYNd2X/22Wdrdz/jscceq6y66qpOD5AHNJKXRfLLnkl7Nxdy+PTTT2uh08s/3+Kb8fzlG3wr+b74xbsgVBfyyPsu+cl3fEFePNOIbTSy8qaMb6TJH7BB/fr1W+Cddpn88zB5Ek/DvodOdu/ePfXdWXrTs2fP1HxOs9N58efbDzzwQC3kZ3EirrvttlursCaXpP772IJQfSqSTr7Ro0ePBcJyxeMbIo88fGQVagMbtS0+eZFVvkLq4iK6m4fFifKbJivye8qUKbXQYbYOmaaF4eK7zzzzjGvHnH766S31B4wfP96F2W677SpvvPFG7W6l8sILL1S6du3aKnxoPofqIGmgjttiiy1SnznyyCNdntSjnn68//77lf3337+yww47VN55553aU5XKtGnTXB6Qvnvvvbd2t1L58MMPnazj4UNlkUe9d5k9NX1M2u689CZtCO9AjmlhuexbgO5lxSkZhzy7lNRr9JH8TwubtAtCCCGEEEIIIYQQolw65Ar2q666KjrssMPcyh3gX/7mfiOwIolVMRtttJFbcQ1f+9rX3EqnBx54IHryySfdvRBYJdmtW7fo4YcfditN5s2bF02dOjXacccdo8suu8xtR1829913n1vdxIo5vkW6+O5rr70WHX/88dGFF17oVpf7YGezxi9WRp1zzjlu6/zf//73tZCfwcqyadOmRePGjXMr7XgmeYYxK28OOeQQt/KJuBGGb7HCj1VIrID71a9+5VaD8Rt/E/fbbrvN3bdVO+wy0LVrV7ei2VaUvf/++27F0CabbOLiGF8RhDxWWWWV6Dvf+U7tThi2GpZ/b7nlFhcP4se/rF5iBeHnP//5WujyQA58d91113Ur7ObOneu+O2fOHKdbyOBzn5tf3FkVPGzYMKfDrOS3sOQbsrvuuuta6d2DDz4YnXnmmU5P0f94+JAyRf49//zzrvzwfd5hF78BenDppZe6dBAHvkW+PfHEE9H222/v4nHnnXe6sHksvfTS0S677OJ0euLEibW78+F7kyZNcjtP2ArKNJqdl6ys4/zuuBxILzq59dZbRxMmTHDxD4VyhBzj7+XCRnXq1CkaNGiQW3EIobqQR9p3kRUrEDlSA1kmV7XmgW1EV9A/3tMM29gM+8t7kN1NN93kVkK+9NJL7r3Ill06TjvttIZtADttrLjiii2yoYzYzipZeoMNPOmkk1psKnnxi1/8YgE7zWpRVhOjm6QDXSAviT86Qj5TR9hqa4MyQVmxOPEM70DPk/jYgqL65JtO4s+Z4thL6g7qEPsGaUEHsJlF5ZFHnqzKqJ9DbItPXqQRWhcbRXQ3D9LKGf+WL/H85r59P8TWoRfUETBmzJgWeXCxw82aa64Zfetb33L5QxsGyE+eQR9o48SPDUImrNYmjVbfhORzUR2kDBAGvSeevN/sG+XH52ijevqx3HLLRV26dHF2jnQayJsV3KxUJ69JH2BziQPtr+WXX97dK6veB8Ih1/i7SPeMGTPcintWmedBmuJp5ELeaW1a5IccWS1OvvGd+LdWWGEFFw6dJJxP+4z2KbtP8D500trI6DG276OPPmrR62a3UYQQQgghhBBCCCFEPh3Swc72pGlk3feFAS8GCn/4wx+6LRiBwVL+XnXVVd028TaY6wuDlgwG46T/whe+4N63/vrrR8ccc4wbuMRpbwOTZUD8GIBkkJmBWr7FwB7fXX311Z3zba211nJpKQqDpmyryjaZNugeB+f11Vdf7QZ5l1122drd1owcOdINMuPsjjtAGdBkkPmggw6KjjrqqJbBUuTPdsI4VRmsnz59urv/jW98w20VzoC3DYTj5OJvBtF5nsFdQM4MJH/zm990g8JF4B0MmuK8RUfIU+Df7373u27gd7311nP3yoQBeAauSQ/5t+SSS7r7yyyzjNMtBqjJF/KCbYmB/N9ss81awvI7kxpwOpP/DOSiL2yDS3oY9CVP4+HZkrQsiBt5iwOGrWgZWOdb6Cf6+vOf/9zFgzLIgHI92FqVtDCAHXc8oBsMVOMoIa+zWBh5SXo333xztw02+Vlky+Q0kNmBBx7oHOvIlnIXqgtFQFZsEbzrrrtGs2bN8so3A9t49tlnu22ueU8zbGMz7C8TdpAr9o06B6cK70W26BvyZxvpRiBfsKEmG8oIzju232abahw8SdiWGRtpNhVbsddeezl7/Oqrr7bkDf8nz7GvP/3pT50uAPFHRwYOHOjSFz/uALbddls34cbi1Ax89Mk3nVaXMPnul7/8patDgG9QvrGZ6EJReeSRJatm1s9l25bQutgoort5sMX2Pvvs05IvxIM84Tt/+9vf3NENZds6voGO4FTG+Qo4s3HAYk+oe0i7tX2Y5ImtIe8gNJ+L6iA6f+2117a0tXg/32LrdOL7+uuv10I2BumgTWWTFSljTOiizkE/cJRbHcx3qeM33HBD5/wts95Hp6nbCY/ttXeRbiZioCfoSyjIO61Ni66QnpVXXtm1NflO/Fs/+clPXDjf9hnQBmWCKenG2W9tZMpKr169ogMOOMA56dGJhdXeFEIIIYQQQgghhBDz6ZAOdlu5niTrvi+sQOJ8RhzqrJA1GMDCWcfganwFTyOw0pQVUpzDGOq0zwMnM4OwrERmFaANCNqFM4h08N16g5kGZ1r+9re/dQOpDADidGWQmAFWBteTA9YMnC611FK1v9Lhd+KThAFtBipxFMTzAFZaaSW3Koo8slVwOMm4R5oZCIWHHnrIDT727NnTDezjgGVglpVDDMjHV1aFwoApA94MNrN6lVVPvB95srKpWbCTAjLhW7vttps7p9UGtW0wGMgLVo/ZgH8y/1lxdeutt7o8Re9MXxgML7qq3xfygEF24sX3krBKjvs4dtCBepCH5DGOh/iKz2effdbdY3VX1gQPaIu8ZOCdwXIcfKxkxOnEIDxnFbMCMHmudxHI6xNPPDH6f//v/7lVjjgCIFQXfCAP2THgZz/7mbMFnJ+NMwFHOXIzZ1QjNMs2xmnkGzgIWT2IbcHJ2wxwTGFH45Bn2G/sXJqTMG0lI44g9AEnjU0koA6jDmBCjdnh+LX77ru78pc8y5h8NsdRWRTRJ9904gwkHdTneXagqDzyyJJVmfVzs21LaF1sFNHdULD9lF/SSL1etq0jDUySIX3UWUCZx7GJnHGaInu+z7dpV9DmsIl7oflcVAfNaZ/EJojyTBkg6y222MLVs7Q3yEfiu80227gdE5A76QX+D9aeKLPep3xTrpE17ysKcvRp05JPTMwYMWKEc6ijQ6SPNMXxbZ8B7Q3kd/jhh7fkn138zVnr6AOO/oXV3hRCCCGEEEIIIYQQ8+mQDnYG5NLIuu8Dg66soAEGM+ODXgye3XzzzW5AkQHXMmCAmG1UWaWSHKxrBJw/yRVlacQdEVkwMHj99dc7uTIQyYAkzhAbSG0GNphtA8RxyIs05woDmwy6MsDOAO1f//pXNyEC+eJcefTRR91Wpm+99Zb7l4HZtPf4wkqn0aNHu8F2tipmwJ0VTqweZhvPZgx8El9WDTLAyuAwK+BIN44D0ohekl82AF0P5ISDxvSFlbeskmom6Dn6jlOSvEnC4HJovrCCDQcGq//QZ8oxW7wyKI6zrh7NzEv0jUF5nDFsG86KRgbHy3J6AOUFvQBWSuI4NkJ1oR6Ue1YX45DgW9gCylbZNMs2xmnkGyZTnC9tTWj5SCtTPjoBZeppGmXqU1o6OaYE0uqSOG0pj7Lq57ayLRBSF+cRGj6PL37xi64esYkEZds6YFt22gpMvCQv0E3qFL6L3M2pzDtpe9BOYsIfhOZz2TpYpqyBOhGHOcczMKGB9FJn4hhnxTwr+plMQH2JXHDIs80+lFnvm1zRyS996Uu1u/6EtmnZrYGjRFhVzip8nOfsmMRkHhzklsfE36d9BmaX8ohPRFkY7U0hhBBCCCGEEEIIMZ8O6WA/9thja/9rTdZ9HxjgNAd7HqyM/eCDD2p/FSd0oJCBWJ+BYQb0WF22xx57uC12GdRLuzjjkdUxebCiiDM5eR/hGRhkRSEDwsQfx0jZmIMwbcCZeKc5HXCwMvjLKjK2oGXw15yrrLJjMJ6toBnkZdCykYkYwGq+gw8+2G09z2AqA8ts98nAM2d18rcvvvkKDN6z0pMt8EkLW6WyRSmD3oceeqjLL/KUgW1WmyHDZL7bxWAxqz5NX1iFaAO6zcLiht6jP0kYKM5zKqXB7hI46TjvlskTVo579+7ttbo4NC9984t0cOYs53QzOM/Zvbyf55E/5/42Ck42tsNFH1hhl9TrUF3IA5s3fPhwV8Y42oHyRB4yoYF3YCfKgtV5rOBLs412DESjNOKoMceRj6OkPWLxZ4vlpC7Er7zzuRulLfQpry6J05byKKN+bgvbAkXq4rYCpy3bn+MAx2lbpq0zqD9wHuN85Z1sCc9qbZypcacyzlAmI7DduRGaz+2hTOZBHO3seeROumlj4WhmAqqt6EcO2EVWmLObgj1L+sqo902u5Af6HkqRNi15fc0117j6luevvfZa5zQfNWpUdPLJJ7f0B3zaZ2Dl6rbbbkvNY7uYJApltjeFEEIIIYQQQgghRBgd0sHOYBWDW+ZQ4l/+5n5RGKRmC9CsQS8cOwxmsYq93oC9DzgU+B4rfXAAZ4HzBydQ2taqxCs5MMkqZFYjM9iZtSrHF7aIZTUS5xVzBug666zjVn6y4qhZEHcGKh9//PEFtnLF8cbqdAbRcaobtroKxzoD6Azm2iAmW7baNvGsQGNA3n5rFOTAQC3ndp5xxhlucJwVZsS9HqH5Goeth0k/Z9pefPHFbrCVfGJrdAazSR8rplh5Vw90j1VaDDTj1CwL4k864ljc0HsGnZOQBu6zQsxWAtaDwWfOAmbwmjRTjhl4ZwU7qyx9qZeXofmFvSA9vI/trhks5/3IoAwY1MdRwKD7FVdc4Va1JQnVhTxwPlC+OBubc3S7du3qHFWsqisb4srKVBw6Ji+caJRd5J/UqyITM3ztbxo4lYgL78Dhsahh8ccm2rnJzSTNFrSFPlldQjrzdiloS3mUUT83YlvS8iKLInVxW8FkKupzdpGg/m/E1mXZDhzE6AX5xNbhbOWOvYC4U5l4IH/7DULzua3LZBZ5+sGKbNoJTDTgYgt9JhtQz9qKfo7nod1ov4HlTRn1vsmViTlp76pHI21a0kFfY//993dO9r59+7p6ijopTl77DKxcsetOslzl0Uh7UwghhBBCCCGEEEIUo0M62MFWhDAYyL+NONdxVuGYY7CYQc40OMPVBhFDtrHF2ccztsqFQdo77rgjOv30091gHStm8hyBOBxYtYNjf8KECc5RgEOJgU5WyzDIFodBQFbvMgjPFpZ8y77NyltWKl955ZXurOZ64PBgIJD02iAi72CQki19OWOybBhkZWDyN7/5jRucZJUO8H22wr399ttbtmk1SDMr1Rnc/d3vfufy8atf/ar7DQcsq41Y7cckDFYjNbIVOtvRHnXUUS4e/N8GoxkUZ9AX1lprLfdvHqH5ysoxvstAP2dzAt/GKf7888+7fGJQF11Cfgxos6PD1Vdf3TJgz/txjLBFKvrHN3mOgXN0FJ2wfEZn2HaYgegQcFZSVpjokBwAj8cN5zBbs6JPxAs5nHLKKU5vya8QRxsrCXGos90reoPDiUHseoTkZWh+EZ7yg3OFcmKr3sk75IpTvCjkDd+87rrr3Jm9ac51CNWFPMhTHE7IBUcBzyMv5MbqPspXKEnbSBw4igOHBLaR7f8N9BRHCHpFHvB9bCllntV97CySRqP2Nw0mWqBv6A0rGG3FrNlGdDukjmhrLP6cJ8wKS5xEpp/kAXlMHjSahjxb0Ax9SmJ1CWXtzDPPbJkMgQ5YGrGrbSUPKKN+LmJb8vIiiyJ1cTPAxrL6Gf1AT0g35Q6H7Y477ujsQhFbZ5PL2GabVdlJeCeT8/geOwbwf8Lbb9YeZFtw6hvqByM0n9tSB9Pw0Q+c0UyEueqqq6K5c+e2aivbin5sH3InPUY8bxqt9+NypQ6kPcS7zHbQ/ssrO6FtWuwQOoONwm4A4Wlz0fbC4c1kC9/2GVi5uuiii5weo9/IAkgXfZETTzzRvTOkjQLoKlvHc/F/IYQQQgghhBBCCNEgFVGXZ599ttKlS5fKySefXPn0009rdxfEwu2///6V999/v3Y3m2HDhjEalnott9xylbFjx1bmzZtXC12pTJo0yf02ZsyY2p35cL9Tp04LvKNz586VTTbZpLLRRhtVnn/++VroSmXu3LmVESNGuG8kn7GLuNVj5syZlX79+qU+3717dxengQMHVubMmVN7Yn6ak/GJk5XGOI888oh7R/KbXH369KlMnz69FvIzJk+e7NK76qqrVp588sna3flMmzat0q1bN/f8bbfdVrvrRzI9M2bMqPTq1WuBeNmVFb80QvKVf7NkwjVo0KDK7NmzXVh0aty4cZUVVlghNSxXPN+IL/FOC7fFFlu4f/PyK85HH31UOe644xZ4jz2Pbl588cWZujl8+HAXJgTSO3LkyJZ3jB8/vvZLaxrNy9ByOGHChNR0ki89e/Z0/+edRlrZII/IK+JJfKGeLnDZO0J1IQvec8EFF6Q+n5X+PEJtI3YZm5YWPs8WpYXnSvuGr/xh6tSple23336B99oVz9csLB+Jp5H1PYO4Jd+fFm/DdDwpG/Q6y7bbZd+oFydIli3IswVF9KlIOvPqkvj7Q+SRh4+sQuvnNNmG2pZ6djlLtiF1cRHdzcPilHXF6zwItXVZ7Zt4/F544YVK165d3f1k24Hn+/bt634777zzanc/IzSfQ3UwTS+MrPzMop5+wIcffuhkzv1jjjmm8vHHH9d+aV0H77HHHpVZs2bVfplPmfU+eX7KKaekvofLZJqmj6FtWtPZtCteh5AHWeWEK6mrhO/Ro0dqWC7LV7NraWG4kmXQ4pGlF0IIIYQQQgghhBAijA67gr1MJk2a5FYi2fmaWbAqh1VMrJZke1sfCM+Kn379+rkVTsstt5z7/9133x3tvffebnVPPViRzaq+nXbayf3duXNntzUs24myTWUStqg87rjj3GoaVvYTHjp16hTtueee0bhx49zZzfVgZRjnVLJyimeJOytvWGU6fvz4aIMNNqiFLBdWxbFKmJVoFvdNNtkkGjlypJMD26kmYRUPq6tYvcy53HFsm/iNNtqo5X1FIQ9ZIcWqJrZBNVh9ddlll0Vjx45NjV8aIfnKCrHRo0c7mSALiOcHK6hZgQboVP/+/d1qrHh44s63WOE4bNgwtxoMiC+r++P5zNbNnGvOOckhsGMAK9LsXYCc2OIb0M1Bgwa5oxjiZYJ03HXXXU5vCRMC6e3Vq5dbkcwqQDt/vx6heRlaDtm6Hj3edttt3d+EJz/YwnjgwIHuXrMJ1YUseA8rK7EdlCXgXXnprwc6jd6ia+gAcTrooIPc+5K2Ebt85JFHRpdffrk7DgKQaz1bVIb9TYO433jjjW5lL/oCvJ/tg1mhGT+PuT2CXqPLpAE9IO5Ang4ePNjViZbPRcmzBc3QpzSwBdgVyrjpPnFhVSi6RD5CW8jDKKN+DrUt9exyFkXq4rLBRsS/Tz6wW8m5557bUudBqK2jfUM6DjvssBbbgDz51yB9rDjG9tN+iGPbxBOeXWCShOZzW+pgEh/9YJU7Z6sD25THV5sje2TBCn/kZOevG2XW++Q5Oyiw2t7eBeQdecx3sght01I3EWfyy+TCv4ccckireiqkfQboAummnRHXOWQ+ZMiQaMyYMe6dpK2s9qYQQgghhBBCCCGECGcJvOy1/wshhBALHRwGODRuuOGGFseTEEIIIYQQQgghhBBCCCFEe0Ar2IUQQgghhBBCCCGEEEIIIYQQQggP5GAXQgghhBBCCCGEEEIIIYQQQgghPJCDXQghhBBCCCGEEEIIIYQQQgghhPBAZ7ALIYQQQgghhBBCCCGEEEIIIYQQHmgFuxBCCCGEEEIIIYQQQgghhBBCCOGBHOxCCCGEEEIIIYQQQgghhBBCCCGEB3KwCyGEEEIIIYQQQgghhBBCCCGEEB7IwS6EEEIIIYQQQgghhBBCCCGEEEJ4IAe7EEIIIYQQQgghhBBCCCGEEEII4YEc7EIIIYQQQgghhBBCCCGEEEIIIYQHcrALIYQQQgghhBBCCCGEEEIIIYQQHsjBLoQQQgghhBBCCCGEEEIIIYQQQnggB7sQQgghhBBCCCGEEEIIIYQQQgjhgRzsQgghhBBCCCGEEEIIIYQQQgghhAdysAshhBBCCCGEEEIIIYQQQgghhBAeyMEuhBBCCCGEEEIIIYQQQgghhBBCeCAHuxBCCCGEEEIIIYQQQgghhBBCCOGBHOxCCCGEEEIIIYQQQgghhBBCCCGEB3KwCyGEEEIIIYQQQgghhBBCCCGEEB7Iwd5OOf3006ONN944+uc//1m7Uz68m2/wLSFEcYqWpVdffTU6/PDDo69//evREkssEe2zzz7Ru+++W/tVdBQWlq398MMPox//+MfRDjvsEP3nP/+p3RVCCCGEEEIIIYQQQgghRCPIwV6ASqUSnXfeec4httpqq0WPP/547RchFk/Gjh3ryoMma/gzffr06IgjjohGjRoVzZw5093j33nz5rn/i8UXnOE4xZs9yaot+POf/+xsA45+HP5CCCGEEEIIIYQQQgghxKKOHOwFmDVrVjRp0iT3/zfffDOaOHGic7oLIYQvf/rTn6I777wz+vWvfx3NmTPH2ZA//vGPbjX74kZb7NiRxsL6rpDshRBCCCGEEEIIIYQQQiy6yMFegClTpkT33nuvcxCwyvDBBx90q1GFWFzZd999nYN46NChtTsiD2T1wgsvRFtttVW08847R8sss0ztFyEiN8mCyRZPP/101Llz59rdRZMePXo4fWciifRcCCGEEEIIIYQQQgghREdADvZA/ve//0V33313tMYaa0S77rpr9KMf/Sh67LHHnNNdCCF8+Oijj9yknKWXXtpdQgghhBBCCCGEEEIIIYQQYtFADvZA3n777Wjy5MlRt27donXWWSf6wQ9+EH35y1922z3jfA/lgw8+iC6//PKoe/fu7pzaDTbYIDrjjDOil19+uRbiM3DInXDCCdH3v/99F5Zr7bXXjvr37x/df//9C5zdbGffcj72O++8Ew0ZMsSF594NN9xQC5XOQw895OIyaNCg6L///W/tbj58n3j07ds3+spXvuJWYR588MHRpZde6v4mHgZn8XImLzsAEDd2BNhuu+1c3Hbaaafo3XffdeFMPqz05Td75zPPPJO6LT/vGj58ePS9732vRT7HHnts9Morr9RCzCf+/TfeeCMaP358y/dJ90UXXRR0XnBo3sS3R/7LX/4S7bnnnk5Gm266afTiiy+6+/xOOGRw4YUXunjx3rPPPrv2lgXTS5if//znLk1x7Iz022+/vXZnPugZunfqqae20t/33nsv6tevn7v4fz3iuhYHuR933HEtcUcmAwYMiO65557o448/roXKxs6izjq/OW2bafQC/Tj00ENb9J3vH3300a7sJvPCV2fA3o0OoovkGfp+1113uW3efSBNPHPFFVe4yTorrrii+y4XcjSSsiN+55133gL54VuWsrC8GzNmTKu0WVljpX2cMnXT8hf949v2Hi7u87tRJJ/iOsBz2FbCz5gxo6nfbUQ/IJ6n8bjEyxnfJx7Eh+9gQ1jxngXlzdfOmS3nnaSD8DzH88lyG2LLwDfPb7311qhPnz4t+ceFfSUvyJM4cXmF2PO0dFLXXHLJJa6uN9L0CbtJ3UQZEEIIIYQQQgghhBBCCLGYUemgjBo1qtKlSxc8sO5f/i6DiRMnuneOGTPG/T1z5sxK3759K1tttVXl9ddfd/d8mT59eqVPnz7ufWnXRhttVHn++edroSvu/9xLC7vccstVxo0bVws5n0mTJrnf+vfvX+ncuXOr8MTf3jds2LDaE/N55JFH3P0jjjii8v7779fu5jN37tzK8OHDW30jeZnMYM6cOZWBAwe67+y2226twvXq1asyY8YMJ59+/fq1+s2uTp06VR544IHa2+ZDenr06JEavlu3bpUpU6bUQn72fd7TvXv31GdGjBhR+fTTT2tP5BOaN8h8/fXXd3nD7xaWd/Aue9+OO+64QJosv0LS+8wzz7jvnX766ZV58+bV7lYq48ePd+G32267yhtvvFG7W6m88MILla5duy4QPgvTtXgecw/5xuNll6WzHugB+kBekWdJkEXyXcg6LtP4ZbplhMgQOYwdOzbz3VzJspSGpSnteWQGDz744AJl1i5sBmXD8ClLeVjerbvuuqlpS8qhTN3Mk0U87qH5hA6ssMIKqeGR1WuvvdaU75ahH2B5msw/y6uePXumpo84TZ06tRa6mJ3DlnMvKx3YecIYpMnHllnaffOc8GlhuKhz3377bRcOmpFOi289fRo0aFBl9uzZLqwQQgghhBBCCCGEEEKIxYMOuYL9qquuig477LDoueeec3/zL39zvxFY4ctqt4022sitzoOvfe1rbhX7Aw88ED355JPung+8i5Xdt912m1vtyEriefPmufusTCS+STiLlxWK1XxruVhN+Ic//MFtWc+qvbTVxqwWPuSQQ6I333zTfYPnODM7jaeeeio65phjoi222CI655xzouWWW672Sz6cQ3/mmWe6lf3IaO7cue5bM2bMcKsHs2BV4CeffOKeJy3EjbOHv/rVr7rn+P+vfvWraObMme433vv44487WbBy1lbnvv/++9FZZ50Vvfbaa9F1110XzZ49u5V82JKbM4CTqy//9a9/uRXE9n3kbzsUTJgwwb3PhyJ5w8rgadOmRePGjWuJb/LMZXYSYNXmSy+95OJGGM45592jRo1yK1qPP/54t2qT3/gG8poyZUr0i1/8okU+a665ZvStb30rmjp1qvsWIPdJkya57xEXnjF4H7qAHFitGQrvJs38e8stt7j4mkzIc84d//znP18LXR6kn++uu+66TjboC9+dM2dO9PDDD0ddu3aNPve5+WYvVGeQDyugV1hhheimm25y7yQ8z7Hadv3113fh6sFKWcIPHDgw6tWrlysjvIerR48eLs9YQUsekJekid/4m7zGZnDf4mVklSW+58Oyyy4bXXzxxS1lje+iQxyBkVZ2ytBN4kYchw0b5uzq888/78LG4x6aT+jtSSed5GwX4S2fZs2a5VaSr7766i4Py/5uWfrhwz/+8Q+XRrPp8bz6/e9/Xwv1GSF27r777nOrzdn9AHtBWL5BGPITu8tK9Tg+tszwyXNAl+w+l8Xhpz/9qZMn8U8Sks4777zTpRNbwU4S8TqLHQJYhQ9///vfXVyp86l7zKZQTtBndIPnhRBCCCGEEEIIIYQQQiw+dEgHO9sop5F13xcG5xm4/+EPf+i2iQWcj/y96qqrum3izdlSj3//+9/RxIkTox133NE5pm3bWZx/nTp1cg5RH77whS+4c+A5Dx4HEg62JCNHjnSOkVVWWSXXWfrss89GP/nJT9xWyCHOddLM1uNslY9Dii12l1xySfctnCW8L4ttt93WTXzYcsstXVqMV1991cnzqKOOcg6V5Zdf3t3nvZtttplzTrIVtm0NjpOGiQRsQc3kAZyFwDtxYh5wwAHO4cd747CN8NVXX93yfeSPM4athpn0gLOlKPXy5jvf+Y77Njpg8U3CtubkBU4gcwwDkzBIP9tPn3LKKU7/AKcQebjPPvs45zlOL7v/3e9+1zlDcQwBzjkccjjmyCMcUTiOgEkpOL/WWmst93coOLZwMKIT6LblLf8SDxxb6623nrtXJp9++qk70oD0Enf0BZZZZhk3EYayZroUojPIBScacsGJuvvuu7t3As916dIl+tKXvuT+bhQctTgaDzroIKf/5ugjjzmGYJdddnF5xbEEcbLKki8nnnhidOCBB7bIh+9Szigjf/vb31ptVQ5l6WY9QvMJ2eFoJZ8Ib/nEpJ3evXs7x63dy6O96gecf/75ThfMpiPbvfbay9kU4pO0Nb52DluO4xlnMs5jJgUQlm8wMYEjQyhX2OY4PrasUSwOlAvihU1N4ptOtotnkgT2iXbB9ttv36rOQkfRb/IVXQbkQd1jNoVywsQ1vok8mHAhhBBCCCGEEEIIIYQQYvGgQzrYbeV6kqz7vrAy8pFHHnEO9aWXXrp2N3KOQlae4qxktaYPhCM8joxvfOMbtbv1wTGAY/5nP/uZc/KwgpQBf84+5lxac57GWWqppZzjIA9kw/myoc51YMUiju4NN9zQOVpCIO7msIhj8sFhb/GPXziwcKTaObmsoMRhfPjhh7c4hOzib86y5p2s9IzDKmp+j8MzOA15X4jTJDRv+C5py8OcREneeustt2J5k002aXGIGjj2tthiCxd/nIRAOjkzGP3F+Qg8z/txRuF8xlmIE5U041DFEb7aaqu5sKEQB5xR5Mvee+/tdIoV5MiBVaLNgh0lNt98c/et3XbbzZ2R/MQTT7jV0jZ5wAjRGWTCal70mzJLmGbBJAh0m3TE7QystNJKLs/Jx/hqXMgqS42AbrHzAXrBiu44ZelmPULzCbkwOQT9aySf2qt+QNruDziGqUuY2MIElzi+ds5sObuQsPNGPM0WHrtMOY478Xl3PVsWCuWVyRrsqoANYbISk3XIW/LG7Fgc33QiI96NjeN9WVi+Uj8SLikPditgNT31kO/kOiGEEEIIIYQQQgghhBCLPgt6RzoArBZMI+u+Dwyes3odcO7GB9lx6t18883O8YDjywcG94GVeLzDBxwfOBlw3rKaDmfuo48+Wvu1OMSZVYHEn9XzPqs747AqkNW03/zmN92KwDIw+dQDRyT4rIaNO1jqkebAyqNZeZOFrcTHcZRGWvzZrhknERNFcMARPyYBsAoWBztOJNKBTHEqUV5CJlok2W+//aLRo0c7RyzbWePIX3nllaONN97YbRvfDEc76WZlLw59nF6suMVRjSOMiTHoujnaQ3TGHHJMOMDJ3UzMcWi7ZMTBVoTqZiN88YtfdPrBNtnJFexZFNHNPIrkE3Fmq/BGaK/6kQWO5VDZJsObLa9HmhO/TNiJ4txzz3UO8MGDB0fXX3+9W0me5lT3ISudlLG8nQUsX+uBzSTOQgghhBBCCCGEEEIIIRYPOqSD/dhjj639rzVZ931gkN0c7HngBPjggw9qf2VjW8CzVbwPvHP48OFuZTHbvXPeO04CHP84DDkjtiisXGZLXM59ZwttzhUOcRbgvMSpxMpRXwd2PUw+bN9L+rIutm4GJgYA51OnhbOLnQbKppl5k4XJJ8sJmOb8wunIhA6c6Ogz24xvvfXWzvnEfXYvYOUqTkMcWazEbQRWXx988MHuLGac3byb7bZZCT1gwAD3ty84unx1kkkB7CLw4osvOmcvW0GzNTnnVrNLg501H6IzTDpB5uSrnWvfLCxeaY494tNMx2YS5I6NYmKGr8O6iG7mUSSfcJ6SV43QXvWjmZgt32OPPdwW7Gnp5aKOCJ2IFQJ1LcdIbLDBBu48e8ox8WFSDjsf5K0698HSSRlDx7OwfGXXBcKmyYIrfna8EEIIIYQQQgghhBBCiI5Ph3Sw40QbNWpUy4p1/uVv7heFM4PZ9jjL2cLWujgNWQWe5hhLwqp3nJqsFPZxyOO4ISzneZ966qlR165d3YA+q4MbhbNmjzzySOck5hxfzk2+8cYbXbp8IA6kB4caWyaXAVsd40Rhq28fhxWr53GshpyDXxbNzJssTD5//etfF5APW9WzUpuzr3FQGZzTzDM42B944AG3xTPbfwP5Z9vEs7Id55P91iisrOV9nM3P+dRMmmDF5+OPP14LkQ2rS1llmrb7APqZ56xlu3S2ueb8ZbaZxrnPKv1nn33W/R6iM0wWIA3kc9FVtL5YvJBPMl5szU2e4/Ajbc0GxyZb7GOrmKDhQxHdBJynaTYnJJ9wiOIYx1Yz0cWHMr7blvrRTNiBhHRjB7ATzSZL9kxWwkYw4QtnP7rOGfq+u73Uw9LJd5h4k4XpEzrLzh9CCCGEEEIIIYQQQgghBHRIBzvYSlUG7/m3Eec6DnAc7Di1slbOLbvssi3bbPtsDY7TkBXD48ePj373u985xxNxZeUlW4xfcMEFtZDz4f04SHEI4CA0xwTbNl9zzTVulV9R7CxlVvWxanCbbbaJjjrqqOiGG25IdX4kIV6W9gsvvNA5Q4E0saKfd4aCfLbbbjt3vi2rj9mi2lYw817kgMPUZP3tb3/bOVIvuuii6OSTT3bOfmQETH4g/0488UR3dm/ZNDNvsojLh3PqTeasDmdrZXSKPIlv041zqlu3bs5xdumll7r/4+i03ywP2V4d5xP6UBTSjg7dfvvt7v+mRzhckROstdZa7t880E3iwcSVCRMmuLxHvuQvq9Rx1schf/kuEwjsvH2+zcQPVr7iMDXHdIjOsMrfdj84//zz3T3eyySFhx56yO1cgFO3DCxev/nNb9zEADv7nDw+7bTTnExta/8yIf3YH9KFHMgnzhknXcQHB6cPRXQThydlnGeSzuyQfEKPCYtTFPvA0R3oDKAP7GaAPbJ7ZX23LfWjmeBQ7t27t0sfZ8/fcccdLRPAsL/sUnLllVc6O98oebLnKAmgHJv+I0t0EvtEXjRCPJ3YEb5D+sgz7BU6Shrj+sQOOFdffXXLpBF0gQkvbF8f1yngb54tUvcJIYQQQgghhBBCCCGEaP90WAd7mbAiHQcfZzjnrRrt3r27Wy3P9rZ2NngWOGSPOOII5zzEkcFKXZzcODxxfto2ywYrohnox0mDox+HDuHZtvnss892q3XLgNWnOBZw4HFuNs6heuBIYOV7nz593E4BnEPMPdLEueRFnCGsCOUs7X79+kXjxo1zZ/EutdRSLe9logPOO1vBvPzyyztnBk4uHFw4iJER4XGq9uzZM7r77rtbHGRl0lZ5Ewf5DBw4MNp+++2d09JkjhOUVfQ4B3HGIpc466yzjgvL6mJWlMdX2ds28eTXJpts4uTWCDgZ0QnkgDyIH/pOvLiPE7YeyHLHHXdsVU64R/7i/FtvvfVqIedD/rLrAVvfsyqfb/Jtyi26uf/++7sz4CFUZ5AXz995551udT/vJR+wC6+//nrLZIVGIV7HHHOMc0BTBmzlLvl22WWXOdlxn2+XCXpDGkgXcqCMkVbOsad8+1JEN5E1Tkx2z+Dcd8JTpnB2huYT+YtDe+bMmc5+oDOERR/+7//+z+WVUeZ320o/mg3lbejQoc4O7LLLLs4RTpqxv9RL5K05vRshT/bInAsbb/qPLG0HDuLUKNgfJuNQt2MvSB95hr3i6BFLIzuSsLsLdfohhxzibBHxQReYCLD33nu30ikhhBBCCCGEEEIIIYQQHR852D1gpSIre+286ixYucmqYFZts1VwPbbccsvolltucU4gHDY4G3CssZpu9913r4WaDwP6rOTG2cw3ACcoDlwcin379nX3yoB4sIqeFbIHHnig19nzOOZxYLJqlOdh2223dStIOa+3CLyTFeA33nhjtNNOOznHBpDuwYMHu3wxWUDnzp2ju+66yzkh+bY5iJn4MGTIkGjMmDHOiVw2bZk3cUgLaeI7fA+QAQ4r9MqOSIiDTHFwpu3GYNvEI7fNN9+8drcY5BUTNXBQIn8DZyP5M3bsWBcXH4greoAOAGnMki0yGT16tFttajIhPTju0EVWvLPjgBGiMzw3YsQIt7sEz4HpOPGzVbdlwAQXVuyTDvsW6Rk5cqT7lq/sQmBCDfYnWX6TMvMhVDdxYrI6mG8CccChjdMTQvKJCS2Ux3vuucc5RC09lE1WPxMHVjBDmd9tS/1oJsiPnQuoh9j5xdKCbPbcc09n5zhWpFHyZE9dyncOO+wwZ0u4qCfvu+++6KqrripFluQXEz04P513W/1CfK644go3sQSw7/3793dHJcTtCuGxSYQdNmxYi04JIYQQQgghhBBCCCGE6PgsUWFPVCGaCM5UVuuzPTOrEoUQ7QfO22ZiBc5iVu4KIYQQQgghhBBCCCGEEEKIbLSCXTQNzsxldSCr4Vk9Gj9zWQghhBBCCCGEEEIIIYQQQgghFjXkYBelwLm5bMPNdrp2cWZu7969o1dffdWdn72onEEshBBCCCGEEEIIIYQQQgghhBBpyMEuSgFn+mabbdbqvG3O7uWsdM7N3WOPPWp3hRBCCCGEEEIIIYQQQgghhBBi0URnsAshhBBCCCGEEEIIIYQQQgghhBAeaAW7EEIIIYQQQgghhBBCCCGEEEII4YEc7EIIIYQQQgghhBBCCCGEEEIIIYQHcrALIYQQQgghhBBCCCGEEEIIIYQQHsjBLoQQQgghhBBCCCGEEEIIIYQQQnggB7sQQgghhBBCCCGEEEIIIYQQQgjhgRzsQgghhBBCCCGEEEIIIYQQQgghhAdysAshhBBCCCGEEEIIIYQQQgghhBAeyMEuhBBCCCGEEEIIIYQQQgghhBBCeCAHuxBCCCGEEEIIIYQQQgghhBBCCOGBHOxCCCGEEEIIIYQQQgghhBBCCCGEB3KwCyGEEEIIIYQQQgghhBBCCCGEEB7IwS6EEEIIIYQQQgghhBBCCCGEEEJ4IAe7EEIIIYQQQgghhBBCCCGEEEII4YEc7EIIIYQQQgghhBBCCCGEEEIIIYQHcrALIYQQQgghhBBCCCGEEEIIIYQQHsjB3k45/fTTo4033jj65z//WbtTPrybb/CtRYlFNd5i4fHnP/85WmKJJaKxY8fW7tSnUqlE9913X7Tddtu5Z7/+9a9HF1xwQe1X0ZH58MMPox//+MfRDjvsEP3nP/+p3RVCCCGEEEIIIYQQQgghhJCDvRA43s477zzndFtttdWixx9/vPaLEO0PHIQ4Cps9YaOjcf/990f77bdf9Kc//cn9PXPmzOi///2v+/+iTEfWh46UNpsUgqMfh78QQgghhBBCCCGEEEIIIdoHcrAXYNasWdGkSZPc/998881o4sSJzukuhOgY4NC88cYbo5VXXjl65JFHov/973+ujA8dOrQWQoRQZAcBkU5b7G4ihBBCCCGEEEIIIYQQQohs5GAvwJQpU6J7773XOTpYLfnggw9G06dPr/0qRPuCrc3/+Mc/Rk8//XTUuXPn2l2Rx+zZs6OXXnop+r//+79o8803jz73uY5jKjuyPnSktPXo0cNN6vj1r38dLbPMMrW7QgghhBBCCCGEEEIIIYRY2MjBHggrWe++++5ojTXWiHbdddfoRz/6UfTYY485p7sQomPAdvDvvPOOc2x+/vOfr90VQgghhBBCCCGEEEIIIYQQiztysAfy9ttvR5MnT466desWrbPOOtEPfvCD6Mtf/rI7pxnneygffPBBdPnll0fdu3d3WyhvsMEG0RlnnBG9/PLLtRCfwSr5E044Ifr+97/vwnKtvfbaUf/+/d150fPmzauFnE98W2achUOGDHHhuXfDDTfUQqXz0EMPubgMGjTI69xp32/x2/Dhw6Pvfe97LfE/9thjo1deeaUW4jNYvfnMM89EBx98sFuZ+pWvfCXq27dvdNddd0Vz5syphfLj1ltvjfr06dMSJy7kSFyIUxy2B+fcY3Yn4Dd2K9huu+3cMzvttFP07rvveqWX/CBf9txzz5b49+7dO/rDH/4Qffrppy4MkE7ynPP8n3rqqdrd+XC+P/dHjx5duzOff/3rX26FK7L75JNPanfTiaeHM6oNk++hhx7aEnfy/Oijj3Y6ntSnNPK2/rbzsJNnSH/88cfR+PHjnSyQCc9vtdVW0YgRI6J///vftVDzScqQsOQFz/OeJBYePeHdPIP+EE9fCIsckM2pp57qvskVl59v3gJbebOlNzteUN4vvPBC937eefbZZ9dCpRPPO2QTtxX8e/XVVy8gh3q6mdQH7BbpJA1ZcsK+8bvpISv8zzrrrGjLLbdsyUPksPPOOy+QN6QbOwmcaU9Yu+LfM1uILtj7yDvyAV31IUvX4zLB1lBukAlxJw9Z8Z6F6avZAPLuoosuaqXTRoi+1sunuN6AlSfyCpmYDnHF01vU1r3xxhsNpZN8u+SSS1wdaaTZGPSWfCa/hRBCCCGEEEIIIYQQQohFkkoHZdSoUZUuXbrglXH/8ncZTJw40b1zzJgx7u+ZM2dW+vbtW9lqq60qr7/+urvny/Tp0yt9+vRx70u7Ntpoo8rzzz9fC11x/+deWtjllluuMm7cuFrI+UyaNMn91r9//0rnzp1bhSf+9r5hw4bVnpjPI4884u4fccQRlffff792N5963wK+16NHj1a/2dWtW7fKlClTXDiYN29eZezYsS5daeG5kvHOg7Bp7+Ai/95+++1ayEplzpw5lYEDBzoZ7Lbbbq3C9urVqzJjxoy66Z07d25lxIgRmfEfPny4C2Mk9QqQwciRI939AQMGVGbPnl37pVKZPHmye3c8fBaWHou7gb5kxS8ZNguTQ1o8eJ738G3iAPx75JFHLvA9u+J5GipD/s+9tLB2+cjL0pS8TCah8bJytuOOOy6g//V02PJuhRVWqKy55pqtnrUr+b16upmmD4899lhl1VVXrQwdOrTy6aefunvGRx99VBk8eLAro9OmTXP3LG/j745fyMfek1f2iCtgC/v165caplOnTpUHHnjAhatHlq6bTHr27OlkmfwGaZs6dWot9Gfv4dvdu3dfIDxXPI0Qqhf18ilpn/NkHk9vEVtXZjotvtgvbEyavLkGDRrUyqYJIYQQQgghhBBCCCGEEIsKHXIF+1VXXRUddthh0XPPPef+5l/+5n4jsNKTVXsbbbRRtOmmm7p7X/va19zqzAceeCB68skn3T0feNell14a3XbbbW6VJivWWRXIfVZYEt8knTt3distq/nWcrEqklWzbFnP6sP33nuvFvoz7rnnnuiQQw6J3nzzTfcNntt3331rv7aGFdTHHHNMtMUWW0TnnHNOtNxyy9V+8SPrW++//75b8fraa69F1113nVsBG4//Rx995M4atlWebLnPqu4VVlghuummm9yKdcLzHCs0119/fRfOl6FDh7rn7SJuxOWnP/2pex8rtpOw8pLV4ZyxT7x4jvOdWbFpZKWXfCJ/1113XXekwNy5c13ePvHEE9H2228fnXnmmdGdd95Ze0vkdkPo2rVr9I9//MOFA2RGvDbZZBN3DEF8lf/UqVOjVVZZJfrOd75TuxMGeoK+ED9W0hI/4o6cH374YReXZpw7Tr7y3QEDBjj5IzOuGTNmuJW85Ldx3333udW77BpAepGL5dvxxx/vVoL/5S9/qYWOXD4hV3aXoJxamtjuPaTsszPA888/78r5sGHD3DvieR+atwa7QrCSmLPdCc870Usf+AYri//2t7+1fM920kjKwQgp9xtuuGHUq1cvt1Id+cZhZTP6t80220RrrbWWu4cckIfJhot4EW7rrbeOJkyY0PIe0jhp0iT3/zFjxrR6Blmz4p+V0rzvV7/6lcsvex87OGD3SCM7RzQK5eukk05qkQnl4Be/+IWL9+9///taqM9gp4gVV1yxxQbE5R5PI4Tqq+GbTyZzdBLdREdNjnG7VMTWhaQT3Sadcf3nG1aG2RUA/v73v7u4UleSj4QjPuQv+Uw9wPNCCCGEEEIIIYQQQgghxKJGh3Swn3feebX/tSbrvi84GXBA/PCHP3Tb3QJb3vL3qquu6pxT5iCuB9s9T5w4Mdpxxx2dQ862z8Wp2alTp2jNNdeshcznC1/4gjsHnvPgZ82albpd+MiRI52DB4cs38ji2WefjX7yk5+47duLONch61s4g3Ak/fznP3fOo2WXXdbdJ/449g444ADn6H311VedEwbHCxMjcLLvvvvu7ixs4LkuXbpEX/rSl9zfRSFuq6++enTQQQc5Zz2yS7Lttts6xyzbYBPPNNLSS/xxeOG0YjtnnK5LLrmky1ucTciAYwXQJcuvb3zjG9G3v/3t6IUXXnCTCODFF190f+Mww2ll21jj/EKe3/zmN9328UXAqcnW/7wXpynxA+TMhBF0cvnll3f3yoSJFDgSV155ZZdmZMaFc3CfffZx+geUIxx5yAtnHHmE/CzfOLqAeFPmLPztt9/u5MpEDrartjSRDra7LoMieWuw9T7lCsdk6OQFJrwgByZU2PfYapuJOMjzr3/9ay3kZ/iWe6Bcsb37I488ssAxBTiOmRhBecg7j554bb755u7ICnQrbWvxNCjz5ONRRx3lnMCmd7xvs802iwYOHOiOaWDL9EY5//zz3TEbJhP0f6+99nJyJR7JPGNSA9vwmw1A7jid2VKdSVE4lSFUX+OE5FMRLA55ts43neQpE6LQcepT03++YWUYPaeckGeAPMhHwgH5y4QCvok8sAlCCCGEEEIIIYQQQgghxKJEh3Sw28r1JFn3fcHxhAMKh/rSSy9duxtF6623nluJySpIVnv6YKtCccjgaPQFBweO+Z/97GfOMc2KWBwXnOXM+bqsDkyy1FJL1XXcIBvOyW3EuQ5Z38JRjCPw8MMPb3E82cXfxx13nJMJK0pxuLACFKcX8qkXdx9w+LAC/OKLL4723ntvNymBSQ2sBCVuOEyTIFdzCmWRll7yiPfxblYGJ2GCAPdxWtr59sibleo4EZETsOL5u9/9btSzZ0/n7GJlOe9mZTsrmQlf1AnOzgs4Q3nnbrvt5s5EZgU2q4SRVbPAuYxjbcSIEc4Zx4padC/pjGWSAbJgJTq7M8T1hYv3UH7QeZyiFh65Fl3V70ORvDXMcVkmfAvdQWeS+eZT7uOwawGO/DvuuKPlfGzSwGQB8gzbEIdJGkyK+eUvf+lWbdt57Jzpzerl+BnoeZgtZGKExTl+McGGeMTP9i5K2gQBHMPYYHZvYPJKHMIn84w4oX/I3JzDofoaJzSf6lHE1vmmExnxbuwS78vCbDhlm3BxWXCxUwVlnzz1nZQmhBBCCCGEEEIIIYQQQrQXOqSDHSdXGln3fcAJgKMJcPjEnQU4K2+++WbnQMEB74Nt982KQt7hAw4cnCU41lkViKP90Ucfrf1aHOLM6kbiz+p5Wy1eJtOmTav9Lxtz5JgTh9XZK620Uu3X4uAIPPfcc51TaPDgwdH111/vVlemOZrKACcsq2FZkcq2y0lwZKU5+nB4k24cUzgUWZXMxA3ewaQO8pqdD9566y33L46rvBXFefAcK3mZTIGTixW2fB/HF99CJ5rhaGenh8suu8ztWMBKcJz7rNzHwcnki+nTp7twrJi1/+dhTlELz6p+Vtc2i6J52yyYYIETlLSbE7QoOIZZpY7TnG3sAQcpZYWdNuKTOdBBJkiw28Fpp53mVm8zWSM5qcAHs4X1KPJuH4rkWTJ8qL42i7JtXVY6cdjn7SJiNrwe5ClxFkIIIYQQQgghhBBCCCEWJTqkg/3YY4+t/a81Wfd9wFlgDvY8cGbY6s88bAt4HKU+8M7hw4e7lctsJ8x57zg7cPzjCOWs26LgUMNZxnbTbA3OWehlOz1w3ANnzhPfrAuHMg5+5EP6yjh3mXzjzGC2Cec8dxykbJPMucF21naZWPxxRJGGJHw3zcmGg5PV1+Qx2zLjaGeHAmC1+he/+EWX78QfZ2ojE0aAlc/shMBW9LyTrZ/Zop1zqtnNgFXYvti29j4wqeSaa65xTlq+ce211zqn/qhRo6KTTz7Z6TqOfiZX7LHHHi6v0nSFC11F3haeYxwadTTnUTRvmwUyfOaZZ9wW4I1OjMGZykp08hI7RlqYxMPW5py/bpA+zqCnLDFRgvPVmaSBU5U84Zz1EMwWsuV4Mn/jV9b58e2BUH1tFs22dZZO6kPyOwsrJ+yIQNg0WXDFz44XQgghhBBCCCGEEEIIIRYVOqSDHecgzjpzQPIvf3O/KDiRcGRlOYhxSg0YMMCtAvdZuceqdxyNOFF9HPI48wjLWeuc/cx2zjgmss4GD4Ezc4888kjnwOc84lNOOSW68cYbXbrKgpXFOHR9zqln+32cOKS3jFXmOKxZKcnkARxgOLK/+tWveu8cEArOJSYUoC84q5OwKpj7rNyOb8XPueQ42Ek3jiccVDYxgdX8tk08K9lxlNlvjcI2+MiE85bZVppzxIkjZ/LXg1XcxCVti/J6zmbkRNncf//9nZO9b9++bmtx3sUqdHSGyR/s3FAPJh+wOp6dEnyPaShC0bxtBsgW+UBZk0TYcp4dMu655x6X/zhsca7jZDewdaSTc+45moJJMZRXH8dxmj6wewHxR7fLmFCzMAjV10ahbKXZ52bbOksn30nTf8PKSdqZ/kIIIYQQQgghhBBCCCHEok6HdLCDrcDFCcG/jTjXcYDjYGc1XpYja9lll3XbJeN48tm2nS12OdN4/Pjx0e9+9zu39TRxZWUs279fcMEFtZDz4f2cb4xjA8eXOVg455jVwKxWLIqdDc3qRFY/4lA76qijohtuuCHViVMEHI44cC+66CK3ShlHKGkAHHbI98QTT3RnBLOSFqcdnH/++e4e8eDsYs4lZwU/Dk5fcFzDAw884M4vB96FLNki3Wf7+hBwZpFWHEzsLMAqYHYEIL1MwGACA2lm1XZ8ggROKVaqk0Z0An3DOQZMOiA8+cxkESZnNLIVOjIlj5EJ594DMsY5zUpXnMM45+pBOLYOZ0IAaSONlk8HH3ywWwkdh/ijY+iwnUWNbPgm38ZRy+QTZNG7d28nJ7aOj58LTnhWql955ZXRhRde6O4RD7a4p/xxDyc98Azblx9zzDHu70YpmreNwipk7JjJDD1mNTQObs5H32yzzdz9RsHO7Lzzzs5RjPwGOl4AAF1GSURBVB0iTWwbH98qnHQxuQdHMuf2224X6BGyvuKKK9zfcWwCxC233BK9/vrrtbvzwRaSBs7kZgcFJlnYO7GLlFMmfZRxHEazCNXXRqDcIyPklZys1GxbF08nu1/wHdJndRF2izTGywk7x1x99dUtkycoK5xFz/b12ALy2OBvnuVfIYQQQgghhBBCCCGEEKK90mEd7GXCinQcTTjN8pyO3bt3dytyWfVZ77xgnOVHHHGEc2rjkOE8W5zcOKHYftm2TTZwaOGwwLGM4xWHF+FZQYyTjVXIZcBqUhwkbE1+0kknOUdpGeCExWmC4xynOasgSQPOFJyjPXv2jO6+++4WpzurY1nZjMPuW9/6lkurOZlx0CEnX/gm11lnndWympN3MVkCJ2EjjuosNt54YzcRAIcWK4KXWmopl150BOclDkPOtU5CnGbOnOm23N5yyy1rd+eD8x3HOts+85640zMU5MyK4a233to5tJEJMka/ceAje9JQD/Tl//7v/1z5QGeIk+UTuy7gYIuDs48dGFipTzi+i2zQaRzIfNe2jEY+Q4cOdTLcZZddXD5ZeMrHwIEDW5yI0K9fv6hPnz4u/qz4JyzPsO05z5RF0bxtBOSLPpjM0GN2ncB+DBkyJKg81AM9Y0IMW73j+GYiUJy4k5UdNUg/cUKP2DI+Dc6JZwISO4CgY4TnQl6k6YQTTnD5N27cOHd+uL0Tu0iZoOy25db7RQjV16JgKylXTOZg4gLfoG7Awd0Wtg6dYHIOOon9IH1WF7GNv6WRXVbYFYW68JBDDnG6SnwoK0wE2HvvvReYbCGEEEIIIYQQQgghhBBCLArIwe4Bq6tZGYszIc+pyUpMtvFm1S7bfNcDhxkrOnEs4WTGacJKW1YF7r777rVQ88ExwepOHFB8A3CE4VzHUcr22mVBPFi9usoqq0QHHnig19nzPnTu3Dm66667ossuu8ytiiXNgGMSJyEOPRzIwEraESNGuJX8PAc8c/PNN7sV+7ZS0wfyBblxxjxOHi5kft9990VXXXVV0Lt8YcLDoEGDnEORb/FN0osjDBkcd9xxqZMi2IobxxROsvXWW692dz62TTzOMpNJUZDz6NGj3epS9AgsfsiY87DJg3pQHnD0Xn755c5pDpZP7M7AWdBxcMgikz333LPF+c6/OODQY5xu6DogH+REeWAHCksz4XmePOV4AwNnP851HNyEIT18j3zG0VcWRfO2Ech3Jr4gWyB9ZiuYzFAm6OD222/v/o/TmMkxSXAgT5gwoSU+5A26xHbgOJKT8I6RI0e2lEHkFbcB5B3lmqMpmBBBGEA3Bw8e7Gyw2b32Sqi+FgX7wIrwuC4wYQlHd1vYOuzCaaed5natMP0H4sPuBZQNoBz379/f7XIQtzOEJ48Jyy4QTNgQQgghhBBCCCGEEEIIIRYllqiUtQe4EEKIUmH7bBzp7KIxduzYltX9QgghhBBCCCGEEEIIIYQQYuGgFexCCCGEEEIIIYQQQgghhBBCCCGEB3KwCyGEEEIIIYQQQgghhBBCCCGEEB7IwS6EEEIIIYQQQgghhBBCCCGEEEJ4oDPYhRBCCCGEEEIIIYQQQgghhBBCCA+0gl0IIYQQQgghhBBCCCGEEEIIIYTwQA52IYQQQgghhBBCCCGEEEIIIYQQwgM52IUQQgghhBBCCCGEEEIIIYQQQggP5GAXQgghhBBCCCGEEEIIIYQQQgghPJCDXQghhBBCCCGEEEIIIYQQQgghhPBADnYhhBBCCCGEEEIIIYQQQgghhBDCAznYhRBCCCGEEEIIIYQQQgghhBBCCA/kYBdCCCGEEEIIIYQQQgghhBBCCCE8kINdCCGEEEIIIYQQQgghhBBCCCGE8EAOdiGEEEIIIYQQQgghhBBCCCGEEMIDOdiFEEIIIYQQQgghhBBCCCGEEEIID+RgF0IIIYQQQgghhBBCCCGEEEIIITyQg10IIYQQQgghhBBCCCGEEEIIIYTwQA52IYQQQgghhBBCCCGEEEIIIYQQwgM52IUQQgghhBBCCCGEEEIIIYQQQggP5GAXQgghhBBCCCGEEEIIIYQQQgghPJCDXQTxz3/+M9p4442j008/vXan7fjwww+jH//4x9EOO+wQ/ec//6ndbR5//vOfoyWWWCIaO3Zs7U7b0dZpFYs+ZerrzJkzoyFDhkRrr722e+ePfvSjaNq0abVf2w/YIewRdkmItkS61zih7QnVi2F0FB1d3MvawmyLiuZRRr6G2tBQsmxus3VyUdH5trRNzc7rjk6R9kPZ+fvcc89F3bt3dxf/D+Wpp55yz+66667RW2+9VbtbHotLXdOe0rkw2rVtmX7ZrfZFM/NjcbEfQiwqFKlfVI6FaAw52AtQqVSi8847zxmf1VZbLXr88cdrvwghFgbWgKBM0jAQ9bEGFHJDfsYHH3wQnXTSSdGZZ54Z/etf/3L33nnnnWju3Lnu/6I40tNi0MhHZhqgEUIsqpgd872SdbNoe7LaSaJjwcAjA5Bt5SwXYXSENiB9q0suuSSaPn16dM4550RdunSp/eJP165d3bNPP/10dNFFF0Wffvpp7RexOKF6qX2gPr0Q/qid1VxULwjRPpCDvQCzZs2KJk2a5P7/5ptvRhMnTnROdyGEWNRh4Ob666+PTjnllOi9995zto17nTt3roUQIh+tWBCi+VC+NFAhhBDNwQYs22Ilj9pNHZt77703uu6666Kf//zn0ZZbblm7G06PHj2iQw89NPrNb34TPfLII7W7fkjHRNlIp8pB7XkRpz3rg3RVCCGykYO9AFOmTHEdJSoYZmI9+OCDbkayEGLhsMwyy0S//vWvnTOYwQdRH+SEvJAb8jNeeumlaJVVVon69+8ffeUrX6ndFWUgPS3Gvvvu62Q2dOjQ2h0hhFi0MDsWv2yy7rBhwxb4LVk3i7Ynq50kOhZf//rXoz/+8Y+aTNpOWdTbgO+++250zTXXRFtvvXXUp08fN2mjKEsuuWS03377Reuuu65zsrMyXixeqF5qH6hPL4Q/amc1F9ULQrQP5GAP5H//+1909913R2ussYY7A4uziR977DHndBdCiEUdtoX/0pe+FC299NK1O0IIIYQQQgghQvjLX/7iFmbssssu0corr1y7W5xOnTpFu+22mxuP+sc//lG7K4QQQgghhFhYyMEeyNtvvx1Nnjw56tatW7TOOutEP/jBD6Ivf/nL0Z/+9CfnfA/Btlj5+9//Ho0fPz7abrvt3KzmDTbYIBoxYkT03//+txZyPnYGWdo5P2lbNNnZQKyy5wxlOnf2jZ122snNqLbt78aMGRM988wz0cEHH+xmmHHx/xdeeKH2tvowi/ryyy+PttpqK/dOewfvZUZVCMR3+PDhTha8q3v37tHFF18cvfXWW7UQn8EWaXvvvXdLWK7vfe970XHHHRe98sortVCf8fHHHzt59+7d263QJTxxRub//ve/a6Faw3uOPfbYaO2113bP7Lnnnm4GXhoWd+LAu3mGZ9PiAiFpzSNEDiG6gd4RZsiQIS4t3Lvhhhtqb5ovG75h3+Wb5513ntte3CD/zzjjjGi11VaLnnrqqdrd+Tz++OPu/ujRo2t35oOjl9l4yO6TTz6p3c0mbcsivov+sZ2exZ14Hn300a4cz5s3rxYym7wtIu08oeR5NyHfTQuLDlCW0lYm8Oz9998f9e3b1+milbM0u5BH0maYTpx66qkuPnE98tkeM7Qc1iOtHCEj0pl37uDs2bOjs846y23BaOUbGe28886u3FP+kyR1mG8NGDAguueee1qFT9o43o8dufLKK50u+JCmp+Abh3r4yi0Zju+ydeUbb7xRC/EZFufnnnuule7xbuzCzJkzayHn11O8Cx1Cl3i3XaZHoXmUVgbjNow4J+tQzqeMl0nDyg82nG8SnueydMPynDJp78aWvfzyy7UQ/vD+eN3D9/fZZx9nE5J1ZDzNefY3jSy7ZDRqK0NtloW39gVpR4fuuuuuaM6cObVQYSTzhX+vvvrqljzkm9RDfIv2WRrc5/dk3ZPFrbfe6lafWZq5vv/977tyRB7FidtXK2vIk2fQt/vuu2+BPAefcmn5m2aruZ+0Rck6I63cGiF524iOGsn08nwz7HxaurL0uyxb3AyIW7PaommEyjmu9+jLhRde2CLHs88+24WJ2x8cT6SBd2+66abRiy++6ML42kr7XrKdyPPkLZOgOcorzvnnn5/aFk0jnp44yfiRvnr9CF9C7EycpG5Q3h999NFUO2P2s4z+WpwQ+wFltGf5ZqP9i3h7wuwneU4fH1gxbHnBlYxfiI1Nw6fdFMfKtpWtvDql0bzm+YMOOqilzKaBfEm31bWh/YF6NiFe18QpWlZMJlnth3qE6DljQ8jl29/+drTNNtvU7rYm7X3ILquvyu/kOeNP7ILik4+hOuZT18TLDfJOG0sAX3sOxIXn02xAlj2GZJkgP2gDHnDAAantIiOkTk1C3Msc2zA5mQxJS1pfxkcOvm2qRtIfqlNtabcgrp/Uy75lPilD4luvfxy3jfH8qZfmkPZ8Wt6Sd2k2lffzvrL6XWn5ga784Q9/SO1nxgm106SnrcZkIMQ+xesi4h7a76mXNh998LG7jdrRNPvBuLSvrqYRj3c8rOmqb/2XRpGxP2u3oceE5Rl06ZJLLnH+njh5conb1RC75au/Sf20eCb7G3n5CvY9HxuYRlo+8Q7eybuFEDWqhaVDMmrUqEqXLl2wZO5f/i6DiRMnuneOGTPG/V3tPFeqDZZK1dBVXn/9dXfPl2HDhlWWW265yrrrruvembwGDRpUqVYYtdAV903uVztTtTuf8fzzz1c22mgj906j2oCqDBw40N3fbbfdWr27V69elRkzZrh38TdxIC7xMFzdunWrTJkypfbG9O/A9OnTK/369Vvgea5OnTpVHnjggVrI+vA9vpv2Li6Lu2FySbt4z9SpU2sh58vkyCOPTA3LFU+XyaZnz56VFVZYYYGwyXcD8ql2nBYIa+HjsoTQtOYRKgdf3ejfv3+lc+fOrcKY/j/44IML/GZXtTHt9MJIlh2oNm4qI0eOdPerDcxW+l5tVDmdjIfPg7wjPeSBMW7cuFS95vKVrckhLR48z3uQJTI1fL9L+gmbpl9cSRswd+7cSrWBlxrWLl95Jcuy6UTRdxIm7VmutLKSR145iudxWp5bnqQ9y1VtkFaqjeFa6Pn5i41KCxt/d7Wx7Wx9WjiuRvTUNw71IJyP3PLCpdkp4rzqqqtWtthii9RnsKmm/3l6YDIqkkfcj8vY9BW5VRv4C7yDK/keyg/3ssomZYswBvYLO5YWliskbyjH1c5i6nuIT7Uz7OyB4WN/s8iyS0YjtjLUZhGetGW9m8tsUD0sz/n2mmuumfqueB4+++yzrv03ePDgykcffeTuGfzNffR92rRptbv5EM+0b3JhG7ARBrJFxptssklqHYneksdxfMtlXvmJ51VIuYXQvG1ERyEvvXH9TNPXUBviq99l2WJfTIZ5ZcDCNLMtmkWonPkuctpxxx0X+L6lkX/XX399pzfxPDH5htjK999/v7L//vtXdthhh8o777zj7gFlmnQS/t57763drVQ+/PBDp8fJ8FlYeuL5Q5nx7UfkYfmaLCs8n3ynXVl2BnuYphvocrL/FdJfM5sbLyOQFvdQ+1Fme7bR/kVaOvPygfRbmBAbmwXxSHuey+JoeR1Sp5TVNx8/frx75qqrrqrd+QwbB+Hi/5CXnjR7hRzzbEIZZcXy2Lf9ALzf4mCE6jkywR5mtcfAt36KM2vWrMoee+zh7B92sB4+OmZy9q1rTKbIKGssIcSeg8UzqcuQZo8hdCwlNJ15lGV7KI++fZksOXDfp01VVvp9dMriujDsVpEynydD5JLWP47LFkLSjF6in8kwXHG9DYkX+ldWvwvy8oPL0mJ6FS8LwLeSz9iVtNO8A/mkhY3LuawxmVD7ZGks0u/xSZuPPvjYXSubljdxTD9D7cejjz7qpatZWLyTYYvUf0kIkxU3rtDxoLhs6snFdDLEbvnqLzLz7W+k5WsRG5hWjkPbPUIsznTIFezVDmB02GGHudV2wL/8zf1GYBYyM52qxsvNqoavfe1rboZ71WhGTz75pLsXAqvUeR/nuDODqGrAomqjNqp2xqLLLrvMbf/VKMw2YpasfaOa7+4MFGZVGcsuu6xbNc1se35n9fEvfvELt/09Z3nkzW6qVlhuhi3v/NWvftXyjqqxdjN4qw0Qt4rFZjLnwQyoaoXnvstsUWbL2btIB9vyJ0k715I4nHPOOe49v//972sh55+fzywwZgu+9tprTt5c1YrZzfarVhy1kJ/B9msnnXSSWwVD2Lhs4u+udnDd7Dnee91117nZdMQF2THD86OPPmolyyJpzSNEDoaPbjCr8pBDDmlJP2H4FvnJLD9m9JLvyIXf+Pv444+PbrvtNnff0suOD127dnXytN0ekBmzE6udEBfH+CxcygFngX/nO9+p3QmD+JDXnFPHDEPkSvyqjY3o4YcfdnH53OfKN4Eh32X3impDyNkTyoqFJd+QHXoUtwHk05lnnul20MAWxcM3at/sLDHig02qNtTcu7nI73oU0b800CvOWUR26BH6xLvQI/QV25iXb+guOhyPB3IiDpx/OGHCBFdGAd0nr/j3lltuaSkD9i1mvn7+8593YdFTZmGfcsopLl2EQ49ff/11ZzuxoUUIiUMevnLj71GjRi0QDr1F57CR2Lekvab8I0fyEdsWr6uIP88BeoDuoEPoEu+2y/QoJI/qwWqQFVdcscWGkSfkFWUk+R5WDTCzlxnexJ2wpIMwyIJ6itVTwG+XXnqps2PMPmbFOmG5j52iTRECM8yZKbz99ttHTzzxhHsPaaZ8YyvQq7QVlVn2t0yaabPQC1b4ULfedNNN7p2ER4coT+uvv34tpD98k9UQf/vb39z/43kez8P11lvPrWBFhrYy1uBv7pMfa621Vu1uPpQv4m6X6c5Pf/pTlxbikITvUIZfeuklF0/Sz+x05GXlHkLKpZWfNFudrL99yy2E5q1RREfb0s776ndZtrhZNKstmkdRW/3QQw+5FUqm9zwXPz+Z3bGmTZsWjRs3riV+rJqjvxBiK5dbbrmoS5cu7jvokIEus7KDFYTUDbwD6HOh/7Q5l19+eXcvFMoMehLSjwihiJ3hWJ9f/vKXLboRtzPx/leZ/bUkC7M924z+BfkwadIk9/8xY8a05AdXj9h5uyE2NgufdpPhW6eUmdeUZVbI8S7sThzKMjsl9OrVq6VMEed4Grj4fl5/IM8mZFGkrJB+n/ZDFqF6/vbbb7s4kY60c1FD2l9xWL1O++nVV19dYMfDNEJ0zLeuMagf0bu0sYSibV9fssZSiAfvRS+zCE1nGmXZnpC+TBpF2lSNpr+92y2DZ7Ff9co8sirSP87CJ80+7fnQNh3xLKvfxTtJO+9hVxLSgq4gR9J32mmn1W0X+9pp5GFyaasxmbbqm/umzUcfjDy7G4qP/UCffOPmS9H6L4nJzeLDxbuwZWl9lTvvvNONB/Fd8pqw5KO141kpDr52NdRu+epvWf0N4tGW7R4hFmfqW6xFELaESiPrvi8YNiqxH/7wh25rDGB7DP5eddVV3RZgGNwQqKDYNpEtTb7whS+499HwOeaYY9zAEU57jGAjbLvttm6wwr6RxoknnhgdeOCBLZ1jKpaBAwe2NEjztn2hc0fajzrqKNdYsncsueSS0WabbebeQwMmvn1SFjT2MdA4L04++eSWs8p4F3L5xje+4f6uB3FgSz+2UKHyphIAGqE0hngv70LeXFTMbAf0k5/8xIWLw3aSJ5xwgusQERbZ7LXXXq5zRNpp3AANDRpcdPBoZFnliMzp4LFNGRU0z0BZac0jSw6Gj26MHDnSNSos/QaVPg0Jtg4k760xQllAXpw1R+U9ffp0d5/0sEUegyg08oHGOX/TeOF525YMnUee3/zmN90AaRFo7DDowHtxoCBXYICDSTEM7Jmulonvd8kLygXQOKGsWFh+p+FO+aNsobfYlttvv90NqtDRIk/j4dlOqb1RT//SML2iXDBgjD4B+vnd737XyS+kcwjIafPNN4/69+/v8sa2M0PPaMQjU2y6lQH7Fo1vnHRgA1hrrLGGm1gFNKrRzyOPPDJ4QowREoc8fOXGQA9617dvX9ewt3DoK/YPO8igMgOdcbB31157retMYNusrmJrLWwqnYJGyMqjelBG6BybDSNP6DCwBRlOcTohQPmhQ0XngPJG3AlLOlZfffVo0KBBrrzaFqc4ZyZOnOjSi+xsOyye6dSpU7Tmmmu6cD6QFgZByGPykzjwHtJMpx57yeAanckkWfa3TJplswhPHcckRwZ7dt9995YBZnQIxxiOoVC22GILp+PoJN9HlmxThu6ji3/9619duKWXXtrVQ7TdyEvD4jVr1iw32aKo09R056BqHYg+8b4kbN/I4C+deOJJ+rEV6ChtAdPzouWyHr7lNjRv4xTR0ba08776XZYtbhbNaouGkiXnOGztiDPN9D4JccZum14aRWwlYWhHmhMDOTDpmT4NZZNBUxvUQud5fsMNNyxc7ov0IxqBd9ezM+Qz7XDTDXSbuGBzn3322Za85t+y+mtxQu1H2e3Ztu5fxGl22yiJb51SZl6jV2xPit2Ih0eWOOJssUEefD+vP5BlE0LwKSu+7Yc0itSTtEEZiM86e71oXxX7RVsU28bzZeJb1xhZYwlF7HkoWWMpxIM2po3XpRGazjTKsj2+fZksirSpyki/LwvDbhmUecprvTJfdjvcN831CGnTWf+mrH6XyQS7zDg6aUFXkCN6zHbhyDKELDsd0gY3m9fImEwj9im039OM/oXPGK4vzeiT+dDMsVreldZXiec7Ok1eE5Z8tHY8fRjwlUuo3fLV37L6G23d7hFicaZDOtht5XqSrPu+MIONc8VwqDNwa1AhMpudWVLxFRSNQKfpW9/6ljvzg4GIRsAImiEMAaNJHHCuM3syC9JM2hkkWWqppVqMv1007qhImMVdDzokGHoq1ZAONu/+7W9/6xprNDYZnKHxxiAbDl4z+DQMqQRo8FIxMXsMvchr5KYNwlGxUdHRWKLRBBb3ww8/3FVccRnwN2fuICsGFuLhQ9Oah68cDB/dsDxNwixW8pXGS7w8wEorreRmblNebMYgE0a4R+OCdAOrnGig9OzZ03U4aMSSF+gbEzsaWWVEg4W48c7ddtvNnRFjA63JgZ0y8f0uecFMdvSPiTZxfeFiViL6SZ5iA+i4IzsGhmkgtUdC9S8NOnPoFXa2aLmgwU5nk8YkDjQ6HzTeOfuJWZg2YYgGPA1FyiIzs3EIkG/YXWaIxuFcIzqmTEbCGYuzlkGPRgcgQuKQh6/cWN3BYF9a2SIuNMIpn3To45hNS2KDV9ZZ8MU3j+qBfSZucYgntp50mM5Z+WGlHB2aeFmz8NRjyJ08tXqNDje2vhH4NvYSW8eARBJmaFOmiV+yLsqyv2XSLJtl4Ukbcmx2OrCN1DPku8Wb89Ko80mbOdmwRXSusVE84wvvpJwxu5yyyup49B9ZUH4ZiEmCfibTTfnkOcoM5QCKlst6+Jbb0LyNU0RH29LO++p3Wba4WTSrLVqPIraawaekXY7Db+hNkiK2kn4K5YMVGOQnacd2c94xK1fQacID/4dG2lBF+hEhFLEzaVCukA3P2AB2mf21OKH2o+z2bFv3L+L42tiy8K1TysxrwmOrAYe62RrqLeSKjiadA7w3pD+QZRPyKKusQFr7IUkj9WTWpMxG+qo4CJqBb11jZI0lNNL29cXquyJjKaHpTKMs20NcknUmOpXsy2RRpE1VRvp9WRh2qx7JMl92O9w3zfUIadOZjSqr32UThNBjnMlF8LXTIW3wMsZk2rJv3oz+hc8Yri9l9MmKUOZYrW9fBdtGesl3dDAPX7mE2i1f/W12f6PZ7R4hFkc6pIMdg5VG1n0fMBisXgeMZNywUDncfPPNzrDiUCwDGnZsFRUyw7FsvvjFL7rGVD1nB5WPD1Qs9bBZoWkNnTSoDK6//nqXtwdVO/F05lmpRmMoDWaesfU+sz2ZkUZlzsxjOhM0XOn0+0CDNtkx8ZnRGu8khaY1j1A5lIE1iGkkJ6FcpHXcaEShL1TU6AMz5picgq7TeGGbQVaO0snhXyrytPf4wHPMPqURS6VPA4bv0xDgW5TV0MabD77ftQZePZATjUY6Oegn+tKsQZWilKl/Vi7S9MoHdIdGKIMtbF1Go5WGe5b9YUXN6NGjnUOArfJokDNTlMYv23hZxwc7weoC8pCt2Gi80/DFpjCD28e+ZeEbhzx85UadAsQ9jdDyVqR8huZREZLxsvJTDxtUsrLJzGTsWSOwhRadaPImbeUA708OrLUlzbJZFp4Z2Uy6aja0m9Dr+OA991h5wexr2wKNnVVorzFD3HcggfSce+65rkM+ePBgZ+94Z8gAvpFWP5ZdLuuRfF9o3jZKW9p5X/2GMmxxW1JGWzSPtrDVcYrYSvKHQVBWMuLAoH1J/jFwhP1mkg0Tq8g7BohwOofsQJKkrH5EGmXaGWBFEJh98SnjEJq/7aE925b9Cx+a+e4kaXVK2XmNgxxHOeUfGQIyZfEBO8XYROsy+wN5lF1W0toPSZpRT4bUTwuTtLqmHm3R9i1zLAWKpLOZtsc3XKNtKqNI+ovSFnYrj2SZb4t2eFqa6xHSpiu732X5kSWTeoTa6bYck2nrvnl77l+UZT9CoSyUUf+F9FWs/ZmV73F85RJqt3z1t5n9DVhY7R4hOjId0sHOljxpZN33AcNiDvY8aDRwHlSjUOEzGyrN+GPo2gK+Yx0BOglZ2EAV26xQCWZdeWfTGKzch/g5KXmwdQtngtCIpIKiIqTBhIOECpTBgCQMuF1zzTWuMub5a6+91lVwnLvE9mJF88/izpm9aem3y87uC01rHkXk0CgW/7RKl3SmzXxm5SgDoczgZqYenVHO9gNmDDOpg2MR6ORQ0TcyKQaYlfezn/3MbdfGO1m1yHY6DMQeeuihTm6+MNPVF5/vMpuVssOMaGSY1BO7aFAxo5zGJvmLvmQ1ghYWZepfnl7Vg+9xbjZnhdEYZSs3GuzYMmTJOZpJGBTkjO2nn37ahWUgnm3YGKjnzCP+BjpabKd0xx13uEYkAyg0ehnEZ2svtk1K03kffOOQh6/czF5bpyFJ0TT4UiSPysDKzx577OFW88XLWPxCf61sAnVgo9i3yZu0+pvvNqNjzbd8OzvNsFkWHhtgq8ebCd9hpQWr5Pi2sc0227gOKVsSM1mQMsyMcAY3fKH9RznHyYDuIiP0iHxjNQvtpEZY2OUyNG8bpa3tvG9boAxbvLAx2fq2RbNYGLa6iK1EdznfkJVBbMdNHtGuZACKCdAMuLGqhQFdyhcDvaxqaYRm9SPKtjNmT2xw0OxMGf21OKH2oxnt2bbuX7R3ys5rJqNxTiwr0HEYMvkfxzl1KZNYjDL7A3mUXVay2g9xGqkniV8WRfuqIf3ShUEjbd+08GlYfVfGWEpR2oPtaaRN1Z5oVh2VBvV3vMzbtxdWOzyLkDadpaOsflc9mdQj1E635ZhMW/fNF0b/ItSOLgz70ehYbWhfpV6+x/GVS6jdCtHfZvU3oNntHiEWRzqkgx1jjNGxBiz/8jf3i4KxxgBlNW7o5FA5siqqjMqJGeGsHGfQyAyeDZAwSzEJcSizEQBUcmzTgmHP2xaIQSwaSMwUa7Qxx0wtoFL1aciytQ8rUjiznvNN1llnHTcby2fGIXJFN/bff39XWXHmEjJPk68PzJ6mkcAZJD5bpISmNY9G5FAUS+/jjz++QHqZIEJjgcqYjqdhK43ofFIRU2Fb44XZtraVGoM36JT91ihsoUQ8OMuMLapo0CIvzqasB5NLiAt6QTmLQ5nLy7u876J/pI/ZmZT3etBBR2fo5DD5pj1Rpv6ZXqEHobt3YIeJB2c8nn322a6zSSM6q9EYh7gSlmc5t4xGMo1e9DsJK66YcXzEEUe4Ri96y+pYOkmNEBKHJL5yM3tN+Uzaa55DH9EzOsONQtlIlplG8qgRyDNkhKPFZyUVjhnqPmxVo5Pm7NsMvlFWkqTV943ApDzaC2mrVMmPtrJZDCaQt8iw6KoyX0gT23ICHdQ4rOLkjDXOMGS3Ic4nZFU7NsoX8o6yyHlrTNJARl/96lddJ7kMipZL6qBkGStCaN42ysKy875tgUZs8cLGZOvbFs1iYdjqoraSFS+0jdidgouBK1bGUD5xsJMO7APvtN/KgDiU2Y8o084wwIhTh/YJ7Wsos78WJ9R+NKM928z+RaN9tBDS2k1FaEZe4zTEoY5jHZtJmcJhHq9L26o/WmZZyWs/xAnVc7A+JOWxHiF9VXQEO4NssfchlKVj9Shiz0PHumirQxljKUVZWGMbcRppU5VBe7ZbaRBf+oPA96At+8dpZLXnQ9p0Zfe7TCa0JXxsWJKidrotxmTaum9u+Katkf5dqB0NtR9l9T3jFB2rDe2rxPOdeiMPX7k0Yrd89Zf0lNnfaGa7R4jFmQ7pYAeb8YTx599GnOsMruNgx1lojbAkzOy2QRwa0L4wc4pnbAAf480AMJUKRpRBYQMDz4D/jTfe6FZqkDaeYxsUZmxhZIvCIAfbg1ilS6XDmT5MKqCiozGUBZU4HW7O32DGGfGwVXOkh3eRHh+50IhhVhYVx1133eXeQ3yIH1um/O53v6uFnA8zpZAL77YKhmdoKDH7iwkCcZjdxswwKutPauecEJ5ZlAzyUCFbZy0UVsghq4suusjNKCPO1oCh8keHOGuFvIPQtOYRKocysPT+5je/cQ0hawjwfbbnYbUggzHxyRlU0szmpkInfZQp0y06BciDPGJCDLpOo6MoyPmoo45yqy3srFH0m3wmv5EXDbl6EI4BDDrNTKAhj9Ad0sBMVHatiOP7XToXyI9GC7trsFWQNcr4BpMU2EoLfaUc8RyDyNiLCy+8sCWfzQYwmLWwKFP/TK+uuOIK1yGzDh0yN1tiZSgJ224RFxyofJM4APmAjHhnHFazkle2spV8AvKBb4FtsUoHCLkzgcreS5ywd9hO8pRB41BC4pCHr9zi9pqzoiy/KL9s40a5pC4ruh0cIAfqRMpMsvMSmkdlge3p3bu3s8Vsq3XHHXe01LvEgdUvV155pctjQE6syho/fryTCWWQvCGv0ekLLrjAhfMh/u2hQ4e6gQrKON8lzZRx7ADnNZYBMmaGNvZqwoQJLu5WtzBLHF2O0yybhROLji6cf/757ju81+zn8ccf79oYobD6gXYd7wHykU4p+otu28ohg3iw/RrPcRYb5YlV7SEwgArIyOo6K1tsbYdsG6FIuaR+xP7wTCOOVAjN20ZpSzvvq9+htpgwpAHZ2UBteyC0LZrFwrDVRW0lTjzOy7zqqquiuXPntuqr0ZbElrOqlry0gceiNLMfUdTOMCGawXRkhd6ykt/a4fQjTW/L7K/FaQ/t2Wb0L2wiANu3ItNmktduKkIz8pr+HOUTGTOQDdRLccrsD+RRtKyEth/iFKkniSf1C3Y0re70rZ+SkGb0BGcuYXwoW8fqUcSek5aQsS52JKGdeW1iLAWbOHLkSFfmm00zbE8ojbSpGmFRsFvJMk/ZYXcNbBjf4mxsKNIOL4u89nxIm67sfpfJhLYE37YVrGbTaVfl5UWInQ5pg5cxJtOWffPQ/kWj/btQOxpiPxqNWxzeWaT+ixPaV4nnO2MifJtn+C55Qzm3sSBfuYTaLV/9Lau/0dbtHhg7dqx7lnGXtLaPEB2WqjERdagatUqXLl0q1YZFpWrUancXxMLtv//+lWojonY3m2qjhNo19apWKJWqYapUDVctdKUyZ86cypFHHpkavtqYr6y66qrunQbhBw4cWOnVq1dlxowZtbutqTbKUt9n16BBgyrVCqgWulKpGvTKRhtt1Oo7UK0MKv369Ut9h118qx6kl3ST/uTz1YZCZcMNN2yVnpkzZ2Z+t3v37pVqZeBkgCxgzJgxqWG5kjI32fBMEr5PPOLvBuRTbdgu8G67kB1hIDSteYTKIUQ30tJvPPLIIy5NyW9y9enTx+lFksmTJ7s0o6/Vxmzt7nyqDe1Kt27d3PO33XZb7a4f6GRcvqaryXjZldTtLCjzI0aMSH1HmmxDvosOjBs3rrLCCiukhuWKvxt5Ite0cNgA/s3LrzgWz2RZTsrRh1D9q0eeXsXjlhbXCRMmpJYpZFztJLn/my2ycpwMa1dch/lWWhgu0ldtoLtw9UjGOSQO9fCV29SpUyvbb799ajjKX7UR7sIZeTqRZic++uijynHHHbfAuy1MSB5B2jfq2TDCJt8zd+5cV5bTvm0XaTXIU/I2GYZ7yCNLJmlQ5k855ZQF3sVFfJL1fVqaQ+D5tLh37ty5sskmm7SKO//ydzKsXY3YLJ7j+bRwxCPZbsnD8jztXVx55ZB4DBgwwIUbOnRoblsujZdffjmzbk9rf5lM09KWpbuh5fKJJ55YII/j7wwtt6F526iOtpWd99XvUFscD2/fCsVkmFcG8uRscYjnC5Bm37ZoHqG22mSdl548vYRQWwkffvhhi5055phjKh9//HHtl/l6PXLkSPfbHnvsUZk1a1btl/qkpcfqlrQrK35ppOVrUTuTFp4rrf3A3779tSxblRb3UPtBPMpqzxpF+xdZ6cxq25p88nQ5TUZ51Gs35ZWtrPiH5LUvjz32mJMvzw4ePNjFO06R/kA9m5Amy9CyYjJKC8+V1n5Ii1eontPWYPwI3UMHk9Qrw/H2V5xnnnnGjRVg23zsDdTTsTydTatrsvQuTqg9550hY108mzWWQlguH/tlpKXTh7Jtj0EceS5eTrNsgW+bqsz0t2e7Ze9Pe54rrcyX0T8ukuZ67Xne6dumo8yV1e+CPJlwWV6k6VWInTbdSwvL1YwxmVD7lFd28ghJG+TpQz2bAYQJsaPgaz/q6WoWafG2shJ/V/zKqv+ShPZV8vKdKy4bX7mE2C1f/TX7n3Yl9dNkGY97ERuYpuN8I6TdAxb35H0hOjoddgV7mVQNjZtlv/XWW+duK8jspWrjy61oZWseH5hdxiymXXfd1c3Sqhqu6KCDDnJbjOy9995u5o/BjCtWJDCDqmoQXXieu++++9yqDZslWISTTjrJrRjgvbDtttu6lfTEjZmp9WBrFGZCMVOOlWKkA5jRW+2AOxkim3qQ3r322sutFiAOwEpvZpmyvWtypjwri5mFyqwwkwmzrIg7Kw+T2zghL7b533PPPVvSyr+HHHJIqsxDIa7MoOYcFeJPfKB79+7RkCFD3Dkw5DmEpjWPUDmUBTPeqo0aN6ONuAN5Xu3wO31AL5IwQ5OVRtUGd7TeeuvV7s7HtlKrNhBa3lcU5Dx69GgXN+IEcbn46jZlvtpIjS6//HK3BRxY+UiTbch30YH+/fu7GZfx8JQfyhEzJqsNJVf2AXkyAz6ez2YDhg8f7sIsDMrWP/SKcsRsSJMJ72WWK/lgZSiNXXbZxelkvEwhW7Y1qjby3D0DOTODlO9QRg1WG1CGqw3XFh2uNvLdCom4fbN3Vxun7pkihMShHr5y419sEbbGwpGWamfD2SN2T2kEVmzwLtMHIG1slQkheVQmbD/GzizkF7vamI0hjtQJ1c5DdPTRR7t7wBndyKPaYXI6TTjqSZ7ffffda6H8oMyzMwllgrLB+8h76hy2LG+07klS7UA7G4y+Amklv6nn2FYsTjNtFs+NGDHCrfg3eZv9JH5F2i1s744djMvxsMMOc3LMKofEY9NNN3WrEYlnXlsuDdp36Aff4Xtc6EUZ7S8jtFxSjzKT3MoR+sl2dksttZT7O5TQvG2UtrLzvvpNOsuyxQsb5OHbFs1jYdjqIraSlR6sZAS2iWRFi0FY2tOUfdqWjZ6/3sx+RFE7w+q1pN3Iaofzdxn9tSSh9oN4lN2eLbt/QdsWOVp+EMd4eSqTeu2mIjQjr9lKtFevXk4G2AfiHaet+qNFy0qR9kOcUD2nrYHOsHqMuCUJaX8ZlUrFjTXNnj3b2TZfe9MMHatHqD1HbiFjXTybHEvhOdrqyAgdbQvaamwjj0baVEVZFOwWYWnbJfUjre+OjJrZP86iXnueOPi26ShzZfa7eC95wW6VJi/yhK2qOS6EvlUWIXaa39p6TKZIe7MIIWmDRvt3oXYUfO1HmX1P3lnGWG1oX4V3Ih923kAfTYd4njoc/TJ85RJit3z1t6z+Rlu3e4RYnFkCL3vt/6KNwVDT2bzhhhtaGkBtDdta0jmjYbbvvvvW7gohhBBCdAzY6pFt8dh27ZJLLvHqsAshhBBCNALbqTIgzpmnDHKHOriSsK3sfvvt5wb21Z7JZsaMGc4JiEOC7bI1+L94wbbEONIpLzgw2UZaCCGEEKJZaAW7EEIIIYTosEyePNmtZtp55501GC2EEEKINoFV/QceeGB0//33u9Vojaxt4fxVFmZwdjE7Hqo9syDI9/XXX3dnPLNCkTO25VwXQgghhBDNRA52IYQQQgjRIfnggw+iO+64I9puu+3cVm9CCCGEEG0F7Q9WU7Nl70MPPVS7Gw47D7ItLc51jgISkVudzBa2dn3uc59zuxWde+65blvbttomXgghhBBCLL7IwS6EEEIIITokjz76qDuOp3fv3tEqq6xSuyuEEEII0XxYaX7kkUe6NsiJJ54YPffcc7Vf/OE8WZ7deOON3ZmuSy65ZO2XxRvOP8eJbmfU2hm+nDXM+b4rrbSSuy+EEEIIIUSz0BnsQgghhBBCCCGEEEIIIYQQQgghhAdawS6EEEIIIYQQQgghhBBCCCGEEEJ4IAe7EEIIIYQQQgghhBBCCCGEEEII4YEc7EIIIYQQQgghhBBCCCGEEEIIIYQHcrALIYQQQgghhBBCCCGEEEIIIYQQHsjBLoQQQgghhBBCCCGEEEIIIYQQQnggB7sQQgghhBBCCCGEEEIIIYQQQgjhgRzsQgghhBBCCCGEEEIIIYQQQgghhAdysAshhBBCCCGEEEIIIYQQQgghhBAeyMEuhBBCCCGEEEIIIYQQQgghhBBCeCAHuxBCCCGEEEIIIYQQQgghhBBCCOGBHOxCCCGEEEIIIYQQQgghhBBCCCGEB3KwCyGEEEIIIYQQQgghhBBCCCGEEB7IwS6EEEIIIYQQQgghhBBCCCGEEEJ4IAe7EEIIIYQQQgghhBBCCCGEEEII4YEc7EIIIYQQQgghhBBCCCGEEEIIIYQHcrB3UP785z9HSyyxRDR27NjanSj68MMPox//+MfRDjvsEP3nP/+p3V10SEtTs1jYsmrLtHZ0/vnPf0Ybb7xxdPrpp9fuiI4A+Um+kr+LE7INYmEjmyraG2XbRel4eXTUunpxbYMIsTApaptnzpwZDRkyJFp77bVdXfGjH/0omjZtWu1XIXvWMSkjX5vd70wr020xDrco6Hxbj0fKDpRDmk4LsahRdrtpUfdFCeGDHOwFqFQq0XnnnecMzWqrrRY9/vjjtV+EEEJ0FBhMwM6rgyTEoovKsRBicccGtrCFOEwWV8xZhCyQyeIOg5wMdnZkp8oHH3wQnXTSSdGZZ54Z/etf/3L33nnnnWju3Lnu/x0J2jnot++ldtHCR23UxQPVPUKIRYWO1m5SH0i0FXKwF2DWrFnRpEmT3P/ffPPNaOLEic7pLoQQRWn2DHGxIJphvCDSw+YgubamI89ill1p/7TnPOrIZaMosp/NQ/aqubSH8kzeNtuB3hbfKMrTTz8dXX/99dEpp5wSvffee27MhnudO3euhRBCiIVDW9rO9tyWUjuvNeoLtE8Wl3wp2m5qz23BtkY2bfFEDvYCTJkyJbr33nudAcG4Pvjgg9H06dNrvwohhOgI7Lvvvq5BOXTo0NodIcSihsqxEGJxZ5lllol+/etfO1vYo0eP2t3FD9KODJAFMlnc+frXvx798Y9/7NAO55deeilaZZVVov79+0df+cpXanc7JrRz0O/4NWbMGPcb/yZ/U7to4aM26uKB6h4hxKJCR2s3qQ8k2go52AP53//+F919993RGmusEe26667uLIrHHnvMOd2FEEIIIYQQQgghxMKF7U2/9KUvRUsvvXTtjhBCCCGESEPtJiGKIQd7IG+//XY0efLkqFu3btE666wT/eAHP4i+/OUvR3/605+c890HZs5whjuzgXguDe7z++jRo2t35j/3zDPPRIceemi09tpruy0nunfvHl1++eXunIxG+Pjjj6Px48dHvXv3dt9lRvs+++zj0sp3DdtK8Nhjj40++eST2t35zx999NFuwgHb5sc5//zz3Vn1Tz31VO1OPvPmzYvuv//+qG/fvi1xOfjgg902G2nceuutUZ8+fVpkwvX9738/Gj58uDsrJMkrr7wSHXfccdEGG2zgwvLcgAEDonvuucelI4nJZrvttnPhee6iiy5yW8QkCc2j0LRmMXv27Oiss86KttxyS/cevsu7dt55Zxf3ZLosH9mFgXhdeOGFLfI4++yzW21/gwzZscHSv9NOO0Xvvvuue0970huTPfIjHsQHud51113RnDlzaqFaQ9rQk+9973subeQZcURH4sTlZc+YvJDLfffd1yq9RvL9PPPzn/88euONN2oh5sN7sSWw3377ubB2xXWBvEKXttpqK/eb6QvpTn4/GRZ5kE9XXnml95ZGjzzySLT33nu3pJWLtFB+kjLKw1efrDzsueeeLm38Trg0HU4jpBywXQ/pQnannnqqC2uXbeWTt7VP0o4gF+w62yjFiaedfPe1JfVI6rvpwgsvvFAL8RkWtp5dqqeHyIH/33777S6M8fLLL7v3Icd4PYgs+vXr5664XELzOUTvSQNl9bnnnmtlW0n3kCFDopkzZ9ZC1ifUrmZRdvmO69TUqVOd3pmNIR/Y0uvTTz9177vmmmta3vfd7343uvrqqxeIt8ns73//+wL6OWLEiOi///1vLWQ+vnUx9pT7V1xxhZuwuOKKK7aEJ11WHnz1th5p5bhIuUyLD2Gpw6jz0GsfuxKqV/H4Y3eoo/g+z1KGWHmYRlr9Rtx5H/phNGp3jZD6ooj8oYw2k08exQmp80NsVRrNKBumP9ddd5073oo2GvHiOvzww6NXX33VvQ+bOXDgwBbdOvDAAxeoT+JtoaQukiePPvqoVzrZ9euEE05wabX08R5WSpC/5LNRtv30wbfsJClSZyTbEnwrrU+STB/vD23Tma0nHyG0LMQxXWikXR+iB8C7kaP1OQiPPKin/v3vf9dC5RPXYaNZ9YFPeW5mfYBekCbylriajnFxn9/jaY/rka899/mGkVau0vpcYPKlDCMP0levT5fE0pYWN+QXTztxa7SvC2Xa24VBso4lfllt57QyUKSNFmoH4mWAfCN+9v0bbrihVRknHskxDiOpj4RJ66PzHX5vtO+TRTw9ccqw+WmEyttIlkku/t9Iv7MIpqOhfUi+T1jy+YwzznD550sZ9V2y7gmxnWB2yKetnIZvWwra2g74xi0k73kn8v7LX/7Sqi8clxvP3HnnnS22nfin9XutjLILiG8ZSMO3XvVpOxgh9WoWcd1Mtiuy2vYh4+8+dW3R95UxDgJJe2t5S35b2n3zJaRM1KvPIBm3onVBUlfQw2SdZ7LNajdl0Ux7FmrzszCbQD4acd03+Vjc+UZaf9/intcX8bFpoXWxxT9kjDNNF8l/6kDKejxtPmVAeFAVVodk1KhRlS5duqAJ7l/+LoOJEye6d1YrWPd3VZErVeWuVBWx8vrrr7t7Pjz77LMuXoMHD6589NFHtbvz4W/ud+vWrTJt2jR3r1rAKuPGjaussMIK7vvJa9CgQZVqJ92FhWqnzt23eEK1Q1qpduYqvXr1qsyYMaN2t+KeqzYOF3gn13LLLVepGlP3fXj//fcr+++/f6VqKCtVI+TuAfEkvoSvVpq1u5VK1Ui6uCXDZzF37txK1bClxsWueJpg2LBhqeG4yJu33367FnK+XDp16pQadqONNqo8//zzLpzJirDVCjE1fNWIVqqVtwsPoXlUJK1ZkJ/ka9o7uJJxJZ2kd8cdd6z06NGjVVjkaeknzG677dbqd9Of9qQ3fIfv8Z60+HCRrjjIIJl2u4jTlClTaiE/k9cmm2xS6dy58wLh0RN0K07I+/N02N5brYQr1c56ahi+/8ADD7hwgM6j+2lhuXz1inBpz3ORhmqjthYyHx99ojygp1l5SFkhjIHM4mUWQspBXtpMPml2FB588MFUPeCqdg5cXhlFbEkeFqd11103VVZJ3QqxS/X0sNrAqqy//vqVagOvpWxDtZHpwlQbopVqI712t1KpdjgrXbt2bRU+NJ9D9B5Iw6qrrlrZYostUp858sgjXZ74EGpXsyi7fJtOIcOVV155gfDcr3ZwKtVO6wK/cSX1mfjxDDqVFj5Zd5k95Lk4eemM18X2fFo40kX6QvS2HmnluEi5JD5Zemt2zMeuhOqVxb9nz56p8kizxXn1T9xuhpbHPPLSnoxjEfkTjzLaTD55ZDoaUueH2qo0mlE2TH+wi8mwXLQDhw4dmvq+XXbZpfLWW2/V3vRZ/NZcc83U8GnpxC7EdQ7y0okukj6jbPtZD+LmU3bS0lWkbBO/tLDxd5fVpkvG2acsZFFGu554+OoBuk/9nRaWi7T5YN+Mh29WfZCXPivPzawP8t5tcbS0299Gnm6EfgOQhW+fCBsX2qdLw9KW9jzps9/JozL6ulCmvS0Ly8u8Mo08Q9rOZbbRQuwAmIz79++/QP1MGu19WWMcEKKPZfR98rD0xPOnWTYfisq7Gf1OsPik2eSkXSrSh6RfnhaWKymbLMqs7yydPrbT5BBSN2XBd9Oe5yKPLczCsAM+cQvNe95J2LR+MtcxxxxTOeCAA1J/O+uss1LrXd8ykKbTYLY47eIdVq/mlVH0wfKAcL52LA/7XmjbPhnOrnifH0yP+UZWXVvkfVn5y/2QcRDfPoRPvoSWCdOtrPqsrLrAV1dMtmnh8r7VLHsWWu7zQMfIP2RhWJ769vdJg09fJE+f7X15+kR6k3Ux7yzTPpvOQpn96MWdDulgx5mephyNOtkp7CeffHKrgonijhw50r3/tttuc/d8MCc6Tnac7XHM+U4HzAwMjXvubb/99pXHH3+8xZDg4P/Vr37lCiENfcOMddwQmlEzI2dMmDDBPc+7n3jiicr//vc/9/67777bpZVCxX2DRgcdDeJkkHYKPIYpHm8qBToeyC1uLLOgcUpcMPT3339/q3ReddVVC6QpDfLktddeq/z0pz9tlS8ff/yxa0wRz1tuucX9bfdJy5AhQ1ynCExWPE/ljEONcMhm8uTJLn4Yt1deecWFh9A8KiOtefC+xx57rLL11lsvEFcz6Hz/+OOPr7z00ksubUZW+uO0J72xMsM3b7rpppbKggbMrbfe6r5rFR689957rlFN+Ouuu66loUMa//CHP7j4xye/ZMmL71x55ZXuPrplMuK54447zsmP8Nbx5rumC1Ri5LWRVmYN5HrKKae453jenuM+ukYe0Piy+8iVd/GM3SO+TAK6+OKLnUyKwvvOOecc9/7zzjuvdjcfH31Cb0jf3nvv7ToYxNfKMjJET9BnI62RlIZPOYjrRpy0PCH95J3lBXkK5DHxJDx5b7pTxJbkYXHabLPN3MCe5S/x+MUvfuF+i+tuGXWHwTMMWDHIwGADkBZ0nzJMeYoPMJBW3sXENCMkn0P1HqxBi3x+//vfu7LN+/kWcef9Tz75ZC10OHn6lEeZ5TupUw899JALiyxJM/lgMkDepm/33HOP+y2ef2Ay4xumn3GZ8VtcR+qVGyOrLgZLQ7I9YoTqbR5psg8tl7NmzarsscceLt1//vOfW+LDex5++OFWttZXPnF4X5ZeWfzpINHJfPPNN51s42U+bouJh3WS4vUP6UOuxNUGcULtbijEJa2+KGIXy2wz1csj+53vIYd6dT5xCbVVWZRdNpL6Yw4c2lmHHXaY+41nTjzxRJfv5D/vOuKII9xvcfttcsGOnHvuuS26GJdLmk3mGZ7NA1nS/iJtlDXKnFGm/cyDML5lxzddxCOtbPNO3z5JWW26tDhbnobYK6MZ7fosPaDe5r0DBgxo0VMuyghtoUsuucSFq0daekPtUUh9UK88p5GlMxBaH0CerobEjzRltf/zvkHcQvpcoX26emTFLSvf44T2dcu0t2WB3eTdefUjMiKMb9s5tB4KJcsOQFYZMKyME4d4/W2E9tH5t9G+Tx5p9VszbX4aPvJuVr/T8iteprPsUkiblXqGOoj4HXzwwZWXX37ZheUZbCrl0Uc2RqP1XVo6IS+PsmwUaWhkDCHLFixMO1AvbqH9lWRakCXhiSdy4zfyzeokfiM9/JZcOGdx+853vlP57W9/W7cMZOV1Grwrr5+UVTeH1qt5WHx5l2/bPonlRV6fn/tZdW2SkPc1Mg7CcyF9iHr5ElomTLey6rMy6oLQOg/y7FIeZduzMscp0uJmus83eF+9/n5IX6SeTUvDym9aXZy0afXsM21T9N1sBGkC3nnXXXe593EvtAyIfDrkFvHVyqn2v9Zk3felWoiiqiGIfvjDH7otFoDtE/i7qtBuW/dqoXD368F5Frvssot7Z7UBXrtbLTGVSlQ1JFFV8d2WKZ///OfdvWrD3f1eVfqoWqiiJZdc0v29/PLLR4cccojbwoLvVw2ou+8L23BUC7Hb5p5tJzbddNPoc5/7nHt/tTC5bSs4g+Phhx+uPRG5MGyFUzV+7m+2SnrggQfc9mYHHXRQVC3MLduqVSsJ9/yGG27o0pIHsmP7LeJSbcS67Sni6WS7Dh/Ik9VXX93FpdoQdrKEqrF028rxfvLvC1/4grvPv2wZQ/rXW289d89Armwlw9Z9hEM2VePvtjpha6mqMXXhQvOorLTmwfs233xzt80IWx2R10nY1qraqIvWXXddl7Yk2267bXTVVVe1pN9oT3pjZYbtUtjuZPfdd4+WWWYZ99uyyy4bVSsod4ZMnGpl6rbfZFucfffd14UD0lhtMEXVBqvbvoWt/OKwZVK18dMiL76z6667Op0grMmYNKIP1cooqlZYzj4A27j85Cc/cVsGVivdaNq0ae5+PXg3unPUUUdF1Yam0xFA3uhatbHivmdb3tjWVmussUb0ta99zf2f+LJV2ZFHHuniXBS+zVY36Gy1Yebk70uWPlEe2KILHaH8UG6Jr5XlQYMGRWuttZaTQSg+5SCEKVOmRH/84x+dzpIf5CmQx+g9dr3aSHTb/sTxtSW+UHbRI9MF4oEe8J2//e1vbiumsusOvoGtrDY+o2ojy92jrFYbtlG1g+m2HCLtphOUyWqj1eUdhOZzqN4b1Q5wdO2110bVxqYr27yfb7G1FPGtdkpqIcMpW5+gaDpNp3r27OnCIkv0i4uydscddzh7bPpW7bS4bQzffvvtVlscAvnE1pmmnyazaqciqja4o2qD3fsYHCOrLq5H2Xqbh2+5/PTTT11+UwbQUYsPdQBbgJ155pkt+VYEH71iu0lszCqrrOJkS1z22msvp+/okOWp2ajDDjss+uUvf9lS/5A+yi9xJT+aaXcNZJJXX/jKvy3aTGn41vlFy3AojZQN05+VV17Z/b3SSiu5LWyBbfko/+Q7+c+70C3AXiThO2xpabqIXKiPaH89++yzTh6hkP/YJ+SLrUjaqCzKlL1v2Qkhq2yH9El4DprRpmuEZrTrs/QAfeYd6O83vvENp3dcbGGI7tG2bpSOWB+UCWkq0v4P6XPxztA+XaOU2dc1yrS3bYVv27kt2mhZdiDOyJEjo+OPP76lDCTJGuMI7aNzv5G+TxHa2ub7yHth9DvjhLZZ2aqXMVb0GZts2+PyTKdOnaI111zThfOlGfWdL751Uxm0JztgFO2vxNNCPUJ4yus222zjfrv55ptdnWbp5B4yJR+tDMY58cQTXX7nlYFQeFez61VfGmnbW15QFsiftD5/Vl2bhs/7rFw0Mg5SZh+ikTKRVZ+VUReUPS7dKL72rC3GKQzf/n6z+yLII68uDrHP9Geph2hLYyOsLf3Vr37VbW8/dOhQd6/MMiA66BnsNGzTyLrvC2focHYKDnUc5AYDID169HAN7TcS5zblQQWPgaFjZg0ynDJ05qgYaZQBBXnq1KktDXYryHatsMIK7twSKgsMUQizZ892HQY6Dt/85jdrdz+ja9euriBToMywfOtb33IVFGfaUHitk0FjZeutt3bxtAJoMucd9SAuPEe6fcIbxIGK4+KLL3bn2mCUaEQjKxrCGBbAgGAkuEc4Ol3I/p133onmJc64MGgUY2TjIHOML+m2yjE0j4qmNQ8GfGhIMSjI5AwqLSpOzlHhbN20Rp9VallgWK1hEKc96Y3JnrBUwMi7HugA3+c8PKuo7eJvGpeUZRq6cdCH5Pup3NA3GkDkAbz11lvuvJJNNtmkpZIy0EPkwPdpHPtAXJAVjoWlllqqVXy5aPjyfRuY4XwWBqHoCND4oHFCgyWtw1wP3vnb3/7WNXCxSzgyaNTQqcReWRnwIU+fyHvOk6EBmUwf5Y30U1brpaFIOQgBvUfWDH7G6wFgAI08p55g8lQcX1vSCOga5Yw0vv/++8F2qR6koXv37i59ZlfRc+wIcmZgGdnzfb5NZxMbQScAQvM5VO8NK9NJKKdgnRUfmq1PUDSdaTpF+WLwGbub1Cn0FR2l3PoOxjAIhU6RJ/V0xLcurkfZepuHb7mkU0uZp82w2267uTOqbDCNdIdSRK+IaxI6dHTwcNTZBAjyAH2hrWoDLmmUaXeN0PrCV/7NaDP5QPyIT5y0Or9oGQ6lkbKRpj/mqEKPeT4OOk+n3XfABblgKyjraQNhSbBRDH7/7Gc/c7rCGXTYLxxP6Jw5MupRpux9y04evmU7pE9SZpuuTMpo1/vqATaBPjMDYAxioee80/oYZdAR64NGCLXnWYT0uczGhfTpGiWvbxLa1zWabW+bgeVNkmTbuZF6KIsi9YHZ+yyyxjhC++jkZSN9nyI02+aXVf82u98Zp2gfEjuCXWyUMuq7ovjWTWWwMO1AFkX7K2lpQZaUc/rByXgRFucj5du3n5wsA/VYGPVqI2S17Yv0+bPqWijyvrRywftDxkHK7EM0Uiay6rMy6oKyx6UbxdeeNWOcIgvixDvjpPX3+WaZfZHQujjNpkGafWYsGj2kr5n2jFFmGRDVPKr926HACKWRdd8HjCCr1wEliysdnSJmwKGYNL59wcAx+4QZITTWgBmwvIdZKza4Q0eZCqce8cLvC4WWwkuhTJsRTvqSBpAZOzQY//GPf7iGBBUJnQwGPukcMnEAQ8gAEQaHStlnligVHRUenVhmi/tAes8991zXkRk8eHB0/fXXO3lmDeQzQ3D06NEuvieddJLrGJEeKq9bbrkl09GeBCMcJzSPiqQ1DypOjDydvNNOO81Vvgz8mJEtm/akNyZ7OrI0mnzwGcDw7bCQ1qQ+2AxPKuE0kuHr4aNbYPn97W9/280MZJD417/+tRuwIy50Gk499VQvvaChS3nCbh5U7QTQGaABYJ3HMrHyUI96g4ZtUQ7MtlhDJk6aLtQjNHweX/ziF93MVxuQbUbd0blzZ9dYY8IZefHoo4+6xiDfRe6UXXSEd1LG0R9WQENoPofqfT1CZd1WdrXsdMIHH3ywgP0i/XSkQqCdsuKKK7aavZtGaF2cRzP0NpSkrvA3q9FwgtHBoJOLg4XOMnaWtp+vY6VMvaKeTcbV6rc0GxWnLLsLZdcXyTSV3WZqhDQ734wynEazygaDGEkYiEpr3+VhK/asDZQFesHgGYMJrEpAV6hLilCm7H3LThahZdu3T1JGm64ZNNquD9ED0nrZZZe5VVmsysCxjVxwnDDA7GPLirIo1wdFKNueh/S5zMaF9OmaRZG+rg9l2du2IqlTZddDZdYHPhTpozfS9ylCM21+mfJui36nUbQPSV1EWW2UZo1jNUIZ9t6XZtuBPMrsrxhZ43yhfYxkGchiYdarjZJs25OfZfX5oez3ge84iI8Og4/NbUaZKKMuKHtculkk49GMch9CWn+/zL5ImXVxln3GNjGOl0eZZUB0UAc7WzykkXXfBxTPHOx5UBlg0H1h1iOFkq0vqZTZyoRZMQyyGFQENNCYXUQ8qKDTLgo5s9dDYDCADizvpSAm4b1JpzPxoaPBbDK2oaAxSScDw8JkAzoazOSlUqTyp7JkJn49LC7MtvFtDJAnbNvG7L+bbrrJVSDMriPOzMKiMxSHDuzBBx8cPf30025QhLiztQ4N5QEDBri/ixCaR0XSmgUVyqWXXurSj7FnixfSRn7yzTFjxtRClkd70huTPZWw7QRRD1Zlwm233dYqf5IXO1MUwTpUWY3f0EaAvY9jLtLiaRfbvwANAmbbY0+oDP/617+6xgCdQMoLlXi9OLBV6rBhw1w+06AjLQw28RyypjFQFqZPe+yxhyu/aWnjIh7kdxptVQ5Md9D9JHwnNG/LBAcoZQu7R2Mq1C75QEONgQQahbyTSWHM3KdhFx9goFNHWWblgBGaz6F6XyZtpU+wMNNZDwaXmdmaNcBshNbFeTRDb8uAwVJmGL/44osufew2xFZgDLYdeuihzmbWoy30Ks9GxSnD7hrNri/KbDM1g7Yqw+21bADfpX0HeQ5q+kjDhw93q/zYDpHjJ9ARJjLzDvQohDJl71t20ihStn37JGW06ZoB+li0XV9ED2hjXHPNNc4pjc259tpr3aDjqFGjopNPPjmo/90oi0p9UISy7XlIn8tsHN/x7dM1iyJ93cWBMuuhsusDH6zOCOmjN9L3KUKzbH7Z8m6LfqdRtA/JVvFl0Eh91xFpZl4nKbO/UjbUDeiYlYEsFma92gi8I9m2L7PPD2W/LwSzE2X0IZpRJsqoCyyNIXVee6C9lvsy+iLNbvuYLuLw5715lFkGRAd1sNOxRcGZIQb8y9/cLwqdXrbWyKrEmI3MYAirzzGovjAjjLNBOEOFVfCcO8aq9vj2HRQQKlFmxDNztkyYpceKIAo326Al4XvMyKNBGTdczNTHSNPB4MLw08mgErCZvA899JB7p/1WD2YAMiuI9zKg7wPxprLhbCWML9uHcK4E8ciDGecYbM674VwKDArvefzxx2shwgjNoyJpzQLdQ96khe1EaEiRtmZWNO1Jb2y7H2YS06nxgbgzOMZ5I1RkZUNni8YgjaDkABGdUfSE/KchmSStkWPvY1VL6IATecVqqCOOOMI1BjhLhh0zGMDNgzwgPziDmbNX1llnHWeXiqzWqIfpEx3TojN5GykHyBw77oPpDrYiqTs4I8lzGtbYoraGDh4zH5mhykz7ULsUJ6uxzWABukg+sZ3ZJ5984mbpQ3yAgXggf/sNQvO5Eb1vlGbZ1bLLd7PJsuVJitbFyCNtMlaz2jxlwNZdpI+zwtjKDocYusL5dHHS7Epb1Ndmo9CnvF0HyrC7RrPrizLbTHFCbH8ezSjDi1rZ8K3/6OjTXmOnLlZfsM0yA02sBKtHs+2nb9lJo5GyHdInKdqmq0fRslC0Xd+IHiBT+vb777+/G9jiXEnqKZxbbU1IfZAsz23Zf+Pbvvlb1J5nfcPKlU+fq0ifrllYHRna1+3olFkPNWIHimJ1RkgfvZG+T6OUafPLlneZ/c56hLZZyRccIaS3rMlXzRjHghD7XAZpbalQmpXXaXErs79SNjiDOSIGXWMiThZF69W0tgOE1KuNkNa2L9rnz6Ls94VQtA+Rli/NtH9QtC4oUuc1Qln2rD2XeyC/ffoiaTat2W0f00X8lzjv82jGGMbiTId0sIPNHqdw828jznUaZTjYqVhQvjTYzt0aViFbO9DwYqsPZuVw1hoOd1a1x6FyoeNOIWEVPtuEmPJjwKj42EqFWUyhA0IUvt69e7tO/tChQ10B5J1sW8I2dbyT7/bs2bP2xHxoFGAIrrrqqmju3Lmt5GIzeZl5Qzx9t1qkkUDDFRleeOGFLcYJ+RMXGiRJaMwDnR2rXOj0UFGzdR+NYIMdAo466qiW3QLM8BNHwoNtgRNKaB4VSWsWGGIMMhUPDTzbcoYzd3jXFVdc4f4uk/akN5QhBqXg/PPPd7MsyVv0gE4Os8KoXOKwawT5ddFFF7mZZugJ8QfSRHnnrBubsRkKcWcnCs5l4TwTy190lC2Qfve73zl7Ed+qxxwIbAvKzOg48fexQobK2/IZfUJ/GdQz28PgLHrFZB8Lhzx4jplsNFz5Xh7oFHrKOy3+vIsOArMl0bWyiOsT2+swS9M6w3yTVYtXXnmlS1MWRcoBMsB2M5OUVUc+mO785je/cYOpZneQEdt7Yl9s28Bmgs6Sl+g6uku60WV03SZpFak78vQQeCcNer7Hyiv+T3j7zepB7C+NYmafGqH5HKr3ZVK2XS2zfDcDZuCTb5YffJdJf3yXzgMTAfMIqYsBu82KeCYlMrHQ7C80s81TFOoC2g+kz86zo+zh7GV2PbbSBh7y7Epb1Ndmo3gXgxWsiATLD/KU9JRhd41m1xdltpmgiO3Po8wyvCiUDQYUcX7xTcoBbQ3qH+q/bbfdtqUspIHccVYgE5yQ9g7a5QwYsXolSVvZT9+yk0Zo2Q7pk5TRpsui0bJQtF0fqgf8jV4TlrQDssD+YodxauFQaQtC6oO88txW/TcGKdEVyojPQHwRe573jZA+V5E+XbMo2tctk7Fjxzq7zxhRW7V36lFmPVSkPmiUeJ3h20cnzUX7PkVols1vRN7N6nf6UqQPSf0zfvx4l6d8j7iTBuzYBRdc4MKF0IxxrFD73Ah5balQys7rvLiV2V9phGQZoBxx1jllAFngFM4itF7NaztAM8Yyfdv2oX3+epT9vhBC+xBt3Ucroy4oUucVpUx71l7KfZyQvkieTWt22yeui+gvY3qmc/Qx2HXL9DC0DAD1P5M9uPi/iFHNSFGHqtJXunTpUqlWMJWqstXuLoiF23///StVg1W7W5+q0agMGDCAkZVKtQOX+o1qoauMGzeuUm2wu3Bp18CBAytz5sxx4auVqrs3ZswY9zfwG2F69epVmTFjRu3u/O+fcsopC7yPq9oQqFQ7d+77caqFrTJo0CAX5phjjqlUDWjtl/lxHTlypPttjz32qMyaNav2S32qFUWlT58+reJg1xZbbOH+jafp5ZdfrlQ74guE5SJ81ahVqg1dF5Y0k/a0sFx8l+9DlqwM4sAzyNkIzaPQtOYxYcIEl1fJ9xCXasff/T8e12olUKl2Clpkk6Re+qE96Q1xsfcmr0022aSVHhjIIEt3uJAPYSxslryyZDV16tTK9ttvn/ruase8MmXKlFrI+cycObPSr1+/BcJavqEvab/HLwtLPNN+56pWtJVqA9aFyyMrPlzdu3d374nrcx4++lTtqFZGjBiRqsd2xeXP/+N5BKHl4KOPPqpUO0YLhLdyR9j438Yjjzzivp18jituR6Be2tNsSR4Wp6yLckB5MELtUj09hGpnrdK1a1d3/7bbbqvdnQ/P9+3b1/1W7RTU7n5GaD6H6D2k6YWRlZ9ZhOpTHmWW7zydst+yZJAmH+6lfY8rzZan2cOQuthIk6/pYqje5pGW73kyhGS5tDTHvx+/4uWunl0J1au0+BvEnTQkZZFno+L5H1oeswitL0LlD2W2merlUZqOG1lxD7VVeZRZNvL0x35LS2eaDOqVg2T9Bzwf1znif8EFF6Q+37lzZ9dmi4eHMu1nPXzLTjJdEFK2rewmw9oVlyXfSgvD5dumg7Q41ysL9Sjarg/VA7MJaRcyT+tzpMH7eG9cr0Ptkb0jGQ+7ku2wvPLcFvXBE0884fQk/n5La1raQ+055H0DkJlvn6tIny6PNL2HevkOxCWkr5uXP/ZbWtzT9BJM95LyDsHekRYnI0tGkJYm0lxGGy3UDkCejCFLlnFC++jQSN8nj7T0EHeLT/JqxOY3Iu+sq9F+Z1p+ZZXN0DYrckraJS7u8c1kWuvRyDhWll6G2uc4VrbJIx/qtaWS+hInTU/LsgNQL25ljBMZ/Eb4NLmlydTSnnUly0BaXhepV/PaDsB3fOvVPCy+ae/gSrbtQ/v89fS4zPfZb3l5n/wttA/RVn00MF1Nu0LqgtA6L01OPpRtz8oap4C0NJnup70jLb4Wx7SLOMbbhHk2jTChdXFenqTpEbK7+OKLM2UX18PQMmByy4rP4kyHXcFeJlVlcrNS7aylLJj9wYxWzmFnywdfmMHCWU3VysOtZk/7BrNQ+vfv72a3MSOqWujc/arxds8wy71a6NxMn1D4PltTMLOFmS7VQujeu/fee0fMzOJfvh+HGTmcLQRsbccsfIOwzIIiPdVC52bn+MIWFWznzyyZqnF2cWHrjPvuu8+dU5EEmVcrseiwww5zceaqGgcXntmlNiMO+I0ZTszWYdsmgzMzOMukahDd94sSmkehac1jl112iaqVvZtdCFXD7OLA9jRV4+nulU170hviUq183Wxk0g7IgrgxCyyuBwbh7rrrLpf3hCX+gG4MGTLEnX3IbOSi8CzvYNtH0wW+ecopp7iZbKwKjcPM72rHrEWXiU88XugLabnxxhudPhEGePfgwYOdncL+QLWh77aqiYcznag2xJzO14P4cKZNXD/JZ2TKbPCythEy2GaTWcDEjx1HLB/59p577unK+dFHH+3uZRFaDtiKkvywNAL5n3eGFrBCne/wbosn+UD+kUeN2BFfmNEa/z55/9vf/tbNRKU8GKF2qZ4eAulj5nS109Nq9j7YVomEZ8VpktB8DtH7sinTrpZZvpsB9gqdog4iTnz/oIMOcttFpdnyJCF1scGKF2YeW7qQ7+qrr+7aQKF622yQz+jRo1vFBTmZTUR2Vu7q2ZW2qK+xUdRvtHcsvsSFVZeXX355S91Wht2FtqgvKCNltZmK2v48yizD7b1sYBvQLdMX4unbjib+zJBHtyx9pIG2EvaGLfaStKX99C07aYSUbeLo2ycpo02XRaNloWi7PlQPKOsc04Zdsnjy7yGHHOJdT5VFSH0AeeW5LeoDVlyyksq+gdxYZbvUUku5v5MUsef1vkG6fPtcRfp0zYK4hPZ1FwdIcxn1UKgdKAt0LaSPDtjjon2fUJpl8xuRd7P6nSGEtlm33HJLl5/0R8gbwrHjEc/vvvvutVD+NGMcK9Q+N4JPHz+EMvO6XtzK6q80wkknneT0h2+C1UvJOj+NIvVqXtvB/i5zLNO3bV+kz59H2e8LJbQP0ZZ9tLLqgiJ1XhHKtmftodzHCemL5Nk0wjS77YPs+AZHURM/iy/fY2cI8t70sMx+9OLOEnjZa/8XCwm26TjggAPcFh+XXHJJ3QpaCCGEEKIM6EzTub/hhhtaOi5CCJGEbeAYOGJgmi2ThRBCCCGE6KhwBjSTJ3BQ7rvvvrW7HQe17YUQohy0gr0dMHnyZLfqfeedd5ZzXQghhBBCCCGEEEIIIYQQQggh2ilysC9kPvjgg+iOO+6ItttuO7ctoRBCCCGEEEIIIYQQQgghhBBCiPaJHOwLmUcffdRtzdq7d+9olVVWqd0VQgghhBBCCCGEEEIIIYQQQgjR3tAZ7EIIIYQQQgghhBBCCCGEEEIIIYQHWsEuhBBCCCGEEEIIIYQQQgghhBBCeCAHuxBCCCGEEEIIIYQQQgghhBBCCOGBHOxCCCGEEEIIIYQQQgghhBBCCCGEB3KwCyGEEEIIIYQQQgghhBBCCCGEEB7IwS6EEEIIIYQQQgghhBBCCCGEEEJ4IAe7EEIIIYQQQgghhBBCCCGEEEII4YEc7EIIIYQQQgghhBBCCCGEEEIIIYQHcrALIYQQQgghhBBCCCGEEEIIIYQQHsjBLoQQQgghhBBCCCGEEEIIIYQQQnggB7sQQgghhBBCCCGEEEIIIYQQQghRlyj6/5s/UgzKePJoAAAAAElFTkSuQmCC;imageBorder=default;" parent="1" vertex="1">
                    <mxGeometry x="140" y="660" width="1620.19" height="376" as="geometry"/>
                </mxCell>
                <mxCell id="RgaNjhP_UmURrgpjqicQ-8" value="0000FF" style="rounded=0;whiteSpace=wrap;html=1;fillColor=none;strokeColor=none;" parent="1" vertex="1">
                    <mxGeometry x="643.55" y="440" width="80" height="20" as="geometry"/>
                </mxCell>
                <mxCell id="RgaNjhP_UmURrgpjqicQ-9" value="00994D" style="rounded=0;whiteSpace=wrap;html=1;fillColor=none;strokeColor=none;" parent="1" vertex="1">
                    <mxGeometry x="780" y="430" width="80" height="20" as="geometry"/>
                </mxCell>
                <mxCell id="RgaNjhP_UmURrgpjqicQ-10" value="A8201A" style="rounded=0;whiteSpace=wrap;html=1;fillColor=none;strokeColor=none;" parent="1" vertex="1">
                    <mxGeometry x="970" y="420" width="80" height="20" as="geometry"/>
                </mxCell>
                <mxCell id="RgaNjhP_UmURrgpjqicQ-11" value="0000FF" style="rounded=0;whiteSpace=wrap;html=1;fillColor=none;strokeColor=none;" parent="1" vertex="1">
                    <mxGeometry x="1121" y="420" width="80" height="20" as="geometry"/>
                </mxCell>
                <mxCell id="RgaNjhP_UmURrgpjqicQ-12" value="9933FF" style="text;whiteSpace=wrap;" parent="1" vertex="1">
                    <mxGeometry x="1271" y="440" width="80" height="20" as="geometry"/>
                </mxCell>
                <mxCell id="RgaNjhP_UmURrgpjqicQ-13" value="FFD966" style="text;whiteSpace=wrap;" parent="1" vertex="1">
                    <mxGeometry x="1221" y="280" width="80" height="20" as="geometry"/>
                </mxCell>
                <mxCell id="y3RRcHx7MZDoXcnVKObc-1" style="rounded=0;orthogonalLoop=1;jettySize=auto;html=1;exitX=0.5;exitY=0;exitDx=0;exitDy=0;strokeColor=#0000FF;strokeWidth=2;entryX=0.5;entryY=1;entryDx=0;entryDy=0;" parent="1" source="QnIRKIKKSeNdttVPt2R8-4" target="y3RRcHx7MZDoXcnVKObc-2" edge="1">
                    <mxGeometry relative="1" as="geometry">
                        <mxPoint x="835" y="350" as="sourcePoint"/>
                        <mxPoint x="540" y="250" as="targetPoint"/>
                    </mxGeometry>
                </mxCell>
                <mxCell id="y3RRcHx7MZDoXcnVKObc-2" value="Truncated" style="rounded=0;whiteSpace=wrap;html=1;fillColor=#F8E4E2;strokeColor=#FF0000;" parent="1" vertex="1">
                    <mxGeometry x="480" y="200" width="120" height="30" as="geometry"/>
                </mxCell>
                <mxCell id="y3RRcHx7MZDoXcnVKObc-4" value="line: FF0000&#10;Filled: F8E4E2" style="text;whiteSpace=wrap;" parent="1" vertex="1">
                    <mxGeometry x="610" y="195" width="100" height="40" as="geometry"/>
                </mxCell>
                <mxCell id="5" value="Fill: DBDBDB" style="rounded=0;whiteSpace=wrap;html=1;fillColor=none;strokeColor=none;" vertex="1" parent="1">
                    <mxGeometry x="935" y="537" width="80" height="20" as="geometry"/>
                </mxCell>
                <mxCell id="7" value="Fill: DBDBDB" style="rounded=0;whiteSpace=wrap;html=1;fillColor=none;strokeColor=none;" vertex="1" parent="1">
                    <mxGeometry x="848" y="713" width="80" height="20" as="geometry"/>
                </mxCell>
                <mxCell id="8" value="" style="line;strokeWidth=4;html=1;perimeter=backbonePerimeter;points=[];outlineConnect=0;fillColor=#dbdbdb;strokeColor=#FF3333;" vertex="1" parent="1">
                    <mxGeometry x="200" y="765" width="540" height="34.38" as="geometry"/>
                </mxCell>
                <mxCell id="10" value="" style="line;strokeWidth=4;html=1;perimeter=backbonePerimeter;points=[];outlineConnect=0;fillColor=#dbdbdb;strokeColor=#FF3333;" vertex="1" parent="1">
                    <mxGeometry x="200" y="736" width="540" height="34.38" as="geometry"/>
                </mxCell>
            </root>
        </mxGraphModel>
    </diagram>
</mxfile>